<?xml version="1.0" encoding="UTF-8" standalone="no"?>
<svg width="527px" height="80px" viewBox="0 0 527 80" version="1.1" xmlns="http://www.w3.org/2000/svg" xmlns:xlink="http://www.w3.org/1999/xlink" xmlns:sketch="http://www.bohemiancoding.com/sketch/ns">
    <!-- Generator: Sketch 3.4.4 (17249) - http://www.bohemiancoding.com/sketch -->
    <title>backlinking</title>
    <desc>Created with Sketch.</desc>
    <defs></defs>
    <g id="Page-1" stroke="none" stroke-width="1" fill="none" fill-rule="evenodd" sketch:type="MSPage">
        <g id="Project-–-addictionary" sketch:type="MSArtboardGroup" transform="translate(-102.000000, -3095.000000)">
            <g id="Group" sketch:type="MSLayerGroup" transform="translate(39.000000, 1426.000000)">
                <g id="backlinking" transform="translate(64.000000, 1667.000000)">
                    <g id="wiki_article_mini-+-Annecy">
                        <g id="wiki_article_mini" transform="translate(0.000000, 23.000000)" sketch:type="MSShapeGroup">
                            <path d="M56,39 L0,39 L0,0 L56,0 L56,39 Z" id="Stroke-220" stroke="#979797" fill="#FFFFFF"></path>
                            <path d="M15.9041038,40 L15.9041038,5 L56.0001476,5" id="Rectangle-208" stroke="#979797"></path>
                            <g id="Wikipedia-W-bold-in-square" transform="translate(2.000000, 4.000000)" fill="#000000">
                                <path d="M3.29754592,6.40201831 L3.73388536,6.40201831 L5.1907255,3.67219979 L6.38920135,6.40201831 L6.80928627,6.40201831 L9.29917137,0.868600856 C9.43874817,0.558177008 9.71083457,0.371763419 10,0.329554422 L10,0 L7.98667837,0 L7.98667837,0.329668193 C8.25381775,0.387065603 8.53738832,0.483770852 8.66347858,0.756087144 L6.83519927,4.829426 C6.50469084,4.15049826 6.16581959,3.40859835 5.84237834,2.66823434 C6.17621423,1.98316298 6.44886012,1.34684244 6.85840317,0.721500796 C7.09783921,0.353565767 7.48638096,0.34491918 7.68661771,0.32682961 L7.68661771,2.27541762e-05 L5.5464402,2.27541762e-05 L5.5464402,0.32682961 C5.8134618,0.327085594 6.36911878,0.350027492 6.12135525,0.852963049 L5.50068022,2.11348752 L4.84325585,0.711318302 C4.74090542,0.492991981 4.93972285,0.34753591 5.26428306,0.330202916 L5.26189789,0.000307181379 L2.85328536,0.000307181379 L2.85328536,0.327114037 C3.14025995,0.336221396 3.54486776,0.334736686 3.69422081,0.569758883 C4.15411752,1.38578053 4.46159871,2.23343048 4.88085913,3.06543693 L3.7959293,5.02508347 L1.97236144,0.976091585 C1.76687142,0.519813467 2.2547247,0.372821488 2.57165825,0.334708243 L2.56809522,0.000255984482 L0,0.000255984482 L0,0.32706284 C0.354595728,0.440310375 0.812018916,0.949844643 0.939699292,1.20770634 C1.89901001,3.1457933 2.38205172,4.44517053 3.2977226,6.402371 L3.29754592,6.40201831 Z" id="Shape"></path>
                            </g>
                            <rect id="Rectangle-212" opacity="0.486590485" fill="#5E8CDC" x="2" y="14" width="11" height="23"></rect>
                            <rect id="Rectangle-212" opacity="0.486590485" fill="#9B9B9B" x="18" y="7" width="36" height="30"></rect>
                            <g id="pin" transform="translate(29.000000, 10.000000)">
                                <path d="M17.54365,15.303823 C16.28097,16.411488 5.525629,20.9997926 5.525629,20.9997926 C5.525629,20.9997926 5.229082,16.411488 6.491765,15.303823 C7.754449,14.196158 11.25224,13.296958 14.30364,13.296958 C17.35504,13.296958 18.80634,14.196158 17.54365,15.303823" id="Fill-1" fill-opacity="0.25" fill="#000000"></path>
                                <path d="M11.05178,5.46925 C11.05178,8.4894 5.526363,21.0004149 5.526363,21.0004149 C5.526363,21.0004149 -0.000104787,8.4894 -0.000104787,5.46925 C-0.000104787,2.4491 2.473917,0.000410000001 5.526363,0.000410000001 C8.577761,0.000410000001 11.05178,2.4491 11.05178,5.46925" id="Fill-4" fill="#0645AD"></path>
                                <path d="M8.100561,5.34262 C8.100561,6.74898 6.946856,7.89087 5.525944,7.89087 C4.105032,7.89087 2.951326,6.74898 2.951326,5.34262 C2.951326,3.93314 4.105032,2.79125 5.525944,2.79125 C6.946856,2.79125 8.100561,3.93314 8.100561,5.34262" id="Fill-6" fill="#FFFFFF"></path>
                            </g>
                        </g>
                        <text id="Annecy" sketch:type="MSTextLayer" font-family="Fira Sans" font-size="12" font-weight="260" sketch:alignment="middle" fill="#424242">
                            <tspan x="8.752" y="79">Annecy</tspan>
                        </text>
                        <text id="”Weak”-link-" sketch:type="MSTextLayer" font-family="Fira Sans" font-size="13" font-weight="260" sketch:alignment="middle" fill="#424242">
                            <tspan x="107.0715" y="12">”Weak” link </tspan>
                        </text>
                        <text id="”Strong”-link-" sketch:type="MSTextLayer" font-family="Fira Sans" font-size="13" font-weight="260" sketch:alignment="middle" fill="#424242">
                            <tspan x="340.308" y="12">”Strong” link </tspan>
                        </text>
                    </g>
                    <g id="wiki_article_mini-+-Annecy" transform="translate(234.000000, 23.000000)">
                        <g id="wiki_article_mini" sketch:type="MSShapeGroup">
                            <path d="M56,39 L0,39 L0,0 L56,0 L56,39 Z" id="Stroke-220" stroke="#979797" fill="#FFFFFF"></path>
                            <path d="M15.9041038,40 L15.9041038,5 L56.0001476,5" id="Rectangle-208" stroke="#979797"></path>
                            <g id="Wikipedia-W-bold-in-square" transform="translate(2.000000, 4.000000)" fill="#000000">
                                <path d="M3.29754592,6.40201831 L3.73388536,6.40201831 L5.1907255,3.67219979 L6.38920135,6.40201831 L6.80928627,6.40201831 L9.29917137,0.868600856 C9.43874817,0.558177008 9.71083457,0.371763419 10,0.329554422 L10,0 L7.98667837,0 L7.98667837,0.329668193 C8.25381775,0.387065603 8.53738832,0.483770852 8.66347858,0.756087144 L6.83519927,4.829426 C6.50469084,4.15049826 6.16581959,3.40859835 5.84237834,2.66823434 C6.17621423,1.98316298 6.44886012,1.34684244 6.85840317,0.721500796 C7.09783921,0.353565767 7.48638096,0.34491918 7.68661771,0.32682961 L7.68661771,2.27541762e-05 L5.5464402,2.27541762e-05 L5.5464402,0.32682961 C5.8134618,0.327085594 6.36911878,0.350027492 6.12135525,0.852963049 L5.50068022,2.11348752 L4.84325585,0.711318302 C4.74090542,0.492991981 4.93972285,0.34753591 5.26428306,0.330202916 L5.26189789,0.000307181379 L2.85328536,0.000307181379 L2.85328536,0.327114037 C3.14025995,0.336221396 3.54486776,0.334736686 3.69422081,0.569758883 C4.15411752,1.38578053 4.46159871,2.23343048 4.88085913,3.06543693 L3.7959293,5.02508347 L1.97236144,0.976091585 C1.76687142,0.519813467 2.2547247,0.372821488 2.57165825,0.334708243 L2.56809522,0.000255984482 L0,0.000255984482 L0,0.32706284 C0.354595728,0.440310375 0.812018916,0.949844643 0.939699292,1.20770634 C1.89901001,3.1457933 2.38205172,4.44517053 3.2977226,6.402371 L3.29754592,6.40201831 Z" id="Shape"></path>
                            </g>
                            <rect id="Rectangle-212" opacity="0.486590485" fill="#5E8CDC" x="2" y="14" width="11" height="23"></rect>
                            <rect id="Rectangle-212" opacity="0.486590485" fill="#9B9B9B" x="18" y="7" width="36" height="30"></rect>
                            <g id="pin" transform="translate(29.000000, 10.000000)">
                                <path d="M17.54365,15.303823 C16.28097,16.411488 5.525629,20.9997926 5.525629,20.9997926 C5.525629,20.9997926 5.229082,16.411488 6.491765,15.303823 C7.754449,14.196158 11.25224,13.296958 14.30364,13.296958 C17.35504,13.296958 18.80634,14.196158 17.54365,15.303823" id="Fill-1" fill-opacity="0.25" fill="#000000"></path>
                                <path d="M11.05178,5.46925 C11.05178,8.4894 5.526363,21.0004149 5.526363,21.0004149 C5.526363,21.0004149 -0.000104787,8.4894 -0.000104787,5.46925 C-0.000104787,2.4491 2.473917,0.000410000001 5.526363,0.000410000001 C8.577761,0.000410000001 11.05178,2.4491 11.05178,5.46925" id="Fill-4" fill="#0645AD"></path>
                                <path d="M8.100561,5.34262 C8.100561,6.74898 6.946856,7.89087 5.525944,7.89087 C4.105032,7.89087 2.951326,6.74898 2.951326,5.34262 C2.951326,3.93314 4.105032,2.79125 5.525944,2.79125 C6.946856,2.79125 8.100561,3.93314 8.100561,5.34262" id="Fill-6" fill="#FFFFFF"></path>
                            </g>
                        </g>
                        <text id="Annecy" sketch:type="MSTextLayer" font-family="Fira Sans" font-size="12" font-weight="260" sketch:alignment="middle" fill="#424242">
                            <tspan x="8.252" y="56">Annecy</tspan>
                        </text>
                    </g>
                    <g id="wiki_article_mini-+-Annecy" transform="translate(469.000000, 23.000000)">
                        <g id="wiki_article_mini" sketch:type="MSShapeGroup">
                            <path d="M56,39 L0,39 L0,0 L56,0 L56,39 Z" id="Stroke-220" stroke="#979797" fill="#FFFFFF"></path>
                            <path d="M15.9041038,40 L15.9041038,5 L56.0001476,5" id="Rectangle-208" stroke="#979797"></path>
                            <g id="Wikipedia-W-bold-in-square" transform="translate(2.000000, 4.000000)" fill="#000000">
                                <path d="M3.29754592,6.40201831 L3.73388536,6.40201831 L5.1907255,3.67219979 L6.38920135,6.40201831 L6.80928627,6.40201831 L9.29917137,0.868600856 C9.43874817,0.558177008 9.71083457,0.371763419 10,0.329554422 L10,0 L7.98667837,0 L7.98667837,0.329668193 C8.25381775,0.387065603 8.53738832,0.483770852 8.66347858,0.756087144 L6.83519927,4.829426 C6.50469084,4.15049826 6.16581959,3.40859835 5.84237834,2.66823434 C6.17621423,1.98316298 6.44886012,1.34684244 6.85840317,0.721500796 C7.09783921,0.353565767 7.48638096,0.34491918 7.68661771,0.32682961 L7.68661771,2.27541762e-05 L5.5464402,2.27541762e-05 L5.5464402,0.32682961 C5.8134618,0.327085594 6.36911878,0.350027492 6.12135525,0.852963049 L5.50068022,2.11348752 L4.84325585,0.711318302 C4.74090542,0.492991981 4.93972285,0.34753591 5.26428306,0.330202916 L5.26189789,0.000307181379 L2.85328536,0.000307181379 L2.85328536,0.327114037 C3.14025995,0.336221396 3.54486776,0.334736686 3.69422081,0.569758883 C4.15411752,1.38578053 4.46159871,2.23343048 4.88085913,3.06543693 L3.7959293,5.02508347 L1.97236144,0.976091585 C1.76687142,0.519813467 2.2547247,0.372821488 2.57165825,0.334708243 L2.56809522,0.000255984482 L0,0.000255984482 L0,0.32706284 C0.354595728,0.440310375 0.812018916,0.949844643 0.939699292,1.20770634 C1.89901001,3.1457933 2.38205172,4.44517053 3.2977226,6.402371 L3.29754592,6.40201831 Z" id="Shape"></path>
                            </g>
                            <rect id="Rectangle-212" opacity="0.486590485" fill="#5E8CDC" x="2" y="14" width="11" height="23"></rect>
                            <rect id="Rectangle-212" opacity="0.486590485" fill="#9B9B9B" x="18" y="7" width="36" height="30"></rect>
                            <g id="pin" transform="translate(29.000000, 10.000000)">
                                <path d="M17.54365,15.303823 C16.28097,16.411488 5.525629,20.9997926 5.525629,20.9997926 C5.525629,20.9997926 5.229082,16.411488 6.491765,15.303823 C7.754449,14.196158 11.25224,13.296958 14.30364,13.296958 C17.35504,13.296958 18.80634,14.196158 17.54365,15.303823" id="Fill-1" fill-opacity="0.25" fill="#000000"></path>
                                <path d="M11.05178,5.46925 C11.05178,8.4894 5.526363,21.0004149 5.526363,21.0004149 C5.526363,21.0004149 -0.000104787,8.4894 -0.000104787,5.46925 C-0.000104787,2.4491 2.473917,0.000410000001 5.526363,0.000410000001 C8.577761,0.000410000001 11.05178,2.4491 11.05178,5.46925" id="Fill-4" fill="#0645AD"></path>
                                <path d="M8.100561,5.34262 C8.100561,6.74898 6.946856,7.89087 5.525944,7.89087 C4.105032,7.89087 2.951326,6.74898 2.951326,5.34262 C2.951326,3.93314 4.105032,2.79125 5.525944,2.79125 C6.946856,2.79125 8.100561,3.93314 8.100561,5.34262" id="Fill-6" fill="#FFFFFF"></path>
                            </g>
                        </g>
                        <text id="Annecy" sketch:type="MSTextLayer" font-family="Fira Sans" font-size="12" font-weight="260" sketch:alignment="middle" fill="#424242">
                            <tspan x="8.252" y="56">Annecy</tspan>
                        </text>
                    </g>
                    <path d="M74,44.5 L218.531143,44.5" id="Path" stroke="#979797" sketch:type="MSShapeGroup"></path>
                    <path id="Path-decoration-1" d="M207.731143,47.5 L218.531143,44.5 L207.731143,41.5" stroke="#979797"></path>
                    <path d="M303,44.5 L447.531143,44.5" id="Path" stroke="#979797" sketch:type="MSShapeGroup"></path>
                    <path id="Path-decoration-1" d="M436.731143,47.5 L447.531143,44.5 L436.731143,41.5" stroke="#979797"></path>
                    <path d="M303,33.5 L447.531143,33.5" id="Path" stroke="#979797" sketch:type="MSShapeGroup"></path>
                    <path id="Path-decoration-1" d="M313.8,36.5 L303,33.5 L313.8,30.5" stroke="#979797"></path>
                    <path d="M74,33.5 L218.531143,33.5" id="Path" stroke="#979797" stroke-dasharray="3" sketch:type="MSShapeGroup"></path>
                </g>
            </g>
        </g>
    </g>
</svg>