<?xml version="1.0" encoding="UTF-8" standalone="no"?>
<svg width="390px" height="409px" viewBox="0 0 390 409" version="1.1" xmlns="http://www.w3.org/2000/svg" xmlns:xlink="http://www.w3.org/1999/xlink" xmlns:sketch="http://www.bohemiancoding.com/sketch/ns">
    <!-- Generator: Sketch 3.4.4 (17249) - http://www.bohemiancoding.com/sketch -->
    <title>compare-de</title>
    <desc>Created with Sketch.</desc>
    <defs></defs>
    <g id="Page-1" stroke="none" stroke-width="1" fill="none" fill-rule="evenodd" sketch:type="MSPage">
        <g id="Project-–-addictionary" sketch:type="MSArtboardGroup" transform="translate(-91.000000, -2341.000000)">
            <g id="Group" sketch:type="MSLayerGroup" transform="translate(39.000000, 1426.000000)">
                <g id="Group-+-Group" transform="translate(52.000000, 913.000000)">
                    <g id="compare-de">
                        <g id="Group" transform="translate(69.000000, 70.000000)" stroke="#979797" sketch:type="MSShapeGroup">
                            <path d="M135.263862,119.345737 L138.845821,0.717597008" id="Path" stroke-linecap="square"></path>
                            <path d="M114.767151,118.279172 L48.0032506,33.6518276" id="Path" stroke-linecap="square"></path>
                            <path d="M98.4199727,135.839336 L0.719844109,115.554124" id="Path" stroke-linecap="square"></path>
                            <path d="M104.878891,159.285232 L16.0213174,207.071084" id="Path" stroke-linecap="square"></path>
                            <path d="M139.834326,159.410836 L176.352942,270.024017" id="Path" stroke-linecap="square"></path>
                            <path d="M156.67852,157.039207 L233.885191,204.777974" id="Path" stroke-linecap="square"></path>
                            <path d="M157.199063,140.052144 L256.843163,125.568055" id="Path" stroke-linecap="square"></path>
                            <path d="M155.621621,119.711911 L226.901621,39.7919112" id="Path" stroke-dasharray="3"></path>
                            <path d="M128.5,159.5 L86.4425925,266.514187" id="Path"></path>
                        </g>
                        <g id="wiki_article_mini" transform="translate(174.000000, 30.000000)" sketch:type="MSShapeGroup">
                            <path d="M56,39 L0,39 L0,0 L56,0 L56,39 Z" id="Stroke-220" stroke="#979797" fill="#FFFFFF"></path>
                            <path d="M15.9041038,40 L15.9041038,5 L56.0001476,5" id="Rectangle-208" stroke="#979797"></path>
                            <g id="Wikipedia-W-bold-in-square" transform="translate(2.000000, 4.000000)" fill="#000000">
                                <path d="M3.29754592,6.40201831 L3.73388536,6.40201831 L5.1907255,3.67219979 L6.38920135,6.40201831 L6.80928627,6.40201831 L9.29917137,0.868600856 C9.43874817,0.558177008 9.71083457,0.371763419 10,0.329554422 L10,0 L7.98667837,0 L7.98667837,0.329668193 C8.25381775,0.387065603 8.53738832,0.483770852 8.66347858,0.756087144 L6.83519927,4.829426 C6.50469084,4.15049826 6.16581959,3.40859835 5.84237834,2.66823434 C6.17621423,1.98316298 6.44886012,1.34684244 6.85840317,0.721500796 C7.09783921,0.353565767 7.48638096,0.34491918 7.68661771,0.32682961 L7.68661771,2.27541762e-05 L5.5464402,2.27541762e-05 L5.5464402,0.32682961 C5.8134618,0.327085594 6.36911878,0.350027492 6.12135525,0.852963049 L5.50068022,2.11348752 L4.84325585,0.711318302 C4.74090542,0.492991981 4.93972285,0.34753591 5.26428306,0.330202916 L5.26189789,0.000307181379 L2.85328536,0.000307181379 L2.85328536,0.327114037 C3.14025995,0.336221396 3.54486776,0.334736686 3.69422081,0.569758883 C4.15411752,1.38578053 4.46159871,2.23343048 4.88085913,3.06543693 L3.7959293,5.02508347 L1.97236144,0.976091585 C1.76687142,0.519813467 2.2547247,0.372821488 2.57165825,0.334708243 L2.56809522,0.000255984482 L0,0.000255984482 L0,0.32706284 C0.354595728,0.440310375 0.812018916,0.949844643 0.939699292,1.20770634 C1.89901001,3.1457933 2.38205172,4.44517053 3.2977226,6.402371 L3.29754592,6.40201831 Z" id="Shape"></path>
                            </g>
                            <rect id="Rectangle-212" opacity="0.486590485" fill="#5E8CDC" x="2" y="14" width="11" height="23"></rect>
                            <rect id="Rectangle-212" opacity="0.486590485" fill="#9B9B9B" x="18" y="7" width="36" height="30"></rect>
                            <g id="pin" transform="translate(29.000000, 10.000000)">
                                <path d="M17.54365,15.303823 C16.28097,16.411488 5.525629,20.9997926 5.525629,20.9997926 C5.525629,20.9997926 5.229082,16.411488 6.491765,15.303823 C7.754449,14.196158 11.25224,13.296958 14.30364,13.296958 C17.35504,13.296958 18.80634,14.196158 17.54365,15.303823" id="Fill-1" fill-opacity="0.25" fill="#000000"></path>
                                <path d="M11.05178,5.46925 C11.05178,8.4894 5.526363,21.0004149 5.526363,21.0004149 C5.526363,21.0004149 -0.000104787,8.4894 -0.000104787,5.46925 C-0.000104787,2.4491 2.473917,0.000410000001 5.526363,0.000410000001 C8.577761,0.000410000001 11.05178,2.4491 11.05178,5.46925" id="Fill-4" fill="#0645AD"></path>
                                <path d="M8.100561,5.34262 C8.100561,6.74898 6.946856,7.89087 5.525944,7.89087 C4.105032,7.89087 2.951326,6.74898 2.951326,5.34262 C2.951326,3.93314 4.105032,2.79125 5.525944,2.79125 C6.946856,2.79125 8.100561,3.93314 8.100561,5.34262" id="Fill-6" fill="#FFFFFF"></path>
                            </g>
                        </g>
                        <g id="wiki_article_mini" transform="translate(70.000000, 64.000000)" sketch:type="MSShapeGroup">
                            <path d="M56,39 L0,39 L0,0 L56,0 L56,39 Z" id="Stroke-220" stroke="#979797" fill="#FFFFFF"></path>
                            <path d="M15.9041038,40 L15.9041038,5 L56.0001476,5" id="Rectangle-208" stroke="#979797"></path>
                            <g id="Wikipedia-W-bold-in-square" transform="translate(2.000000, 4.000000)" fill="#000000">
                                <path d="M3.29754592,6.40201831 L3.73388536,6.40201831 L5.1907255,3.67219979 L6.38920135,6.40201831 L6.80928627,6.40201831 L9.29917137,0.868600856 C9.43874817,0.558177008 9.71083457,0.371763419 10,0.329554422 L10,0 L7.98667837,0 L7.98667837,0.329668193 C8.25381775,0.387065603 8.53738832,0.483770852 8.66347858,0.756087144 L6.83519927,4.829426 C6.50469084,4.15049826 6.16581959,3.40859835 5.84237834,2.66823434 C6.17621423,1.98316298 6.44886012,1.34684244 6.85840317,0.721500796 C7.09783921,0.353565767 7.48638096,0.34491918 7.68661771,0.32682961 L7.68661771,2.27541762e-05 L5.5464402,2.27541762e-05 L5.5464402,0.32682961 C5.8134618,0.327085594 6.36911878,0.350027492 6.12135525,0.852963049 L5.50068022,2.11348752 L4.84325585,0.711318302 C4.74090542,0.492991981 4.93972285,0.34753591 5.26428306,0.330202916 L5.26189789,0.000307181379 L2.85328536,0.000307181379 L2.85328536,0.327114037 C3.14025995,0.336221396 3.54486776,0.334736686 3.69422081,0.569758883 C4.15411752,1.38578053 4.46159871,2.23343048 4.88085913,3.06543693 L3.7959293,5.02508347 L1.97236144,0.976091585 C1.76687142,0.519813467 2.2547247,0.372821488 2.57165825,0.334708243 L2.56809522,0.000255984482 L0,0.000255984482 L0,0.32706284 C0.354595728,0.440310375 0.812018916,0.949844643 0.939699292,1.20770634 C1.89901001,3.1457933 2.38205172,4.44517053 3.2977226,6.402371 L3.29754592,6.40201831 Z" id="Shape"></path>
                            </g>
                            <rect id="Rectangle-212" opacity="0.486590485" fill="#5E8CDC" x="2" y="14" width="11" height="23"></rect>
                            <rect id="Rectangle-212" opacity="0.486590485" fill="#9B9B9B" x="18" y="7" width="36" height="30"></rect>
                            <g id="pin" transform="translate(29.000000, 10.000000)">
                                <path d="M17.54365,15.303823 C16.28097,16.411488 5.525629,20.9997926 5.525629,20.9997926 C5.525629,20.9997926 5.229082,16.411488 6.491765,15.303823 C7.754449,14.196158 11.25224,13.296958 14.30364,13.296958 C17.35504,13.296958 18.80634,14.196158 17.54365,15.303823" id="Fill-1" fill-opacity="0.25" fill="#000000"></path>
                                <path d="M11.05178,5.46925 C11.05178,8.4894 5.526363,21.0004149 5.526363,21.0004149 C5.526363,21.0004149 -0.000104787,8.4894 -0.000104787,5.46925 C-0.000104787,2.4491 2.473917,0.000410000001 5.526363,0.000410000001 C8.577761,0.000410000001 11.05178,2.4491 11.05178,5.46925" id="Fill-4" fill="#0645AD"></path>
                                <path d="M8.100561,5.34262 C8.100561,6.74898 6.946856,7.89087 5.525944,7.89087 C4.105032,7.89087 2.951326,6.74898 2.951326,5.34262 C2.951326,3.93314 4.105032,2.79125 5.525944,2.79125 C6.946856,2.79125 8.100561,3.93314 8.100561,5.34262" id="Fill-6" fill="#FFFFFF"></path>
                            </g>
                        </g>
                        <g id="wiki_article_mini" transform="translate(327.000000, 166.000000)" sketch:type="MSShapeGroup">
                            <path d="M56,39 L0,39 L0,0 L56,0 L56,39 Z" id="Stroke-220" stroke="#979797" fill="#FFFFFF"></path>
                            <path d="M15.9041038,40 L15.9041038,5 L56.0001476,5" id="Rectangle-208" stroke="#979797"></path>
                            <g id="Wikipedia-W-bold-in-square" transform="translate(2.000000, 4.000000)" fill="#000000">
                                <path d="M3.29754592,6.40201831 L3.73388536,6.40201831 L5.1907255,3.67219979 L6.38920135,6.40201831 L6.80928627,6.40201831 L9.29917137,0.868600856 C9.43874817,0.558177008 9.71083457,0.371763419 10,0.329554422 L10,0 L7.98667837,0 L7.98667837,0.329668193 C8.25381775,0.387065603 8.53738832,0.483770852 8.66347858,0.756087144 L6.83519927,4.829426 C6.50469084,4.15049826 6.16581959,3.40859835 5.84237834,2.66823434 C6.17621423,1.98316298 6.44886012,1.34684244 6.85840317,0.721500796 C7.09783921,0.353565767 7.48638096,0.34491918 7.68661771,0.32682961 L7.68661771,2.27541762e-05 L5.5464402,2.27541762e-05 L5.5464402,0.32682961 C5.8134618,0.327085594 6.36911878,0.350027492 6.12135525,0.852963049 L5.50068022,2.11348752 L4.84325585,0.711318302 C4.74090542,0.492991981 4.93972285,0.34753591 5.26428306,0.330202916 L5.26189789,0.000307181379 L2.85328536,0.000307181379 L2.85328536,0.327114037 C3.14025995,0.336221396 3.54486776,0.334736686 3.69422081,0.569758883 C4.15411752,1.38578053 4.46159871,2.23343048 4.88085913,3.06543693 L3.7959293,5.02508347 L1.97236144,0.976091585 C1.76687142,0.519813467 2.2547247,0.372821488 2.57165825,0.334708243 L2.56809522,0.000255984482 L0,0.000255984482 L0,0.32706284 C0.354595728,0.440310375 0.812018916,0.949844643 0.939699292,1.20770634 C1.89901001,3.1457933 2.38205172,4.44517053 3.2977226,6.402371 L3.29754592,6.40201831 Z" id="Shape"></path>
                            </g>
                            <rect id="Rectangle-212" opacity="0.486590485" fill="#5E8CDC" x="2" y="14" width="11" height="23"></rect>
                            <rect id="Rectangle-212" opacity="0.486590485" fill="#9B9B9B" x="18" y="7" width="36" height="30"></rect>
                            <g id="pin" transform="translate(29.000000, 10.000000)">
                                <path d="M17.54365,15.303823 C16.28097,16.411488 5.525629,20.9997926 5.525629,20.9997926 C5.525629,20.9997926 5.229082,16.411488 6.491765,15.303823 C7.754449,14.196158 11.25224,13.296958 14.30364,13.296958 C17.35504,13.296958 18.80634,14.196158 17.54365,15.303823" id="Fill-1" fill-opacity="0.25" fill="#000000"></path>
                                <path d="M11.05178,5.46925 C11.05178,8.4894 5.526363,21.0004149 5.526363,21.0004149 C5.526363,21.0004149 -0.000104787,8.4894 -0.000104787,5.46925 C-0.000104787,2.4491 2.473917,0.000410000001 5.526363,0.000410000001 C8.577761,0.000410000001 11.05178,2.4491 11.05178,5.46925" id="Fill-4" fill="#0645AD"></path>
                                <path d="M8.100561,5.34262 C8.100561,6.74898 6.946856,7.89087 5.525944,7.89087 C4.105032,7.89087 2.951326,6.74898 2.951326,5.34262 C2.951326,3.93314 4.105032,2.79125 5.525944,2.79125 C6.946856,2.79125 8.100561,3.93314 8.100561,5.34262" id="Fill-6" fill="#FFFFFF"></path>
                            </g>
                        </g>
                        <g id="wiki_article_mini" transform="translate(12.000000, 157.000000)" sketch:type="MSShapeGroup">
                            <path d="M56,39 L0,39 L0,0 L56,0 L56,39 Z" id="Stroke-220" stroke="#979797" fill="#FFFFFF"></path>
                            <path d="M15.9041038,40 L15.9041038,5 L56.0001476,5" id="Rectangle-208" stroke="#979797"></path>
                            <g id="Wikipedia-W-bold-in-square" transform="translate(2.000000, 4.000000)" fill="#000000">
                                <path d="M3.29754592,6.40201831 L3.73388536,6.40201831 L5.1907255,3.67219979 L6.38920135,6.40201831 L6.80928627,6.40201831 L9.29917137,0.868600856 C9.43874817,0.558177008 9.71083457,0.371763419 10,0.329554422 L10,0 L7.98667837,0 L7.98667837,0.329668193 C8.25381775,0.387065603 8.53738832,0.483770852 8.66347858,0.756087144 L6.83519927,4.829426 C6.50469084,4.15049826 6.16581959,3.40859835 5.84237834,2.66823434 C6.17621423,1.98316298 6.44886012,1.34684244 6.85840317,0.721500796 C7.09783921,0.353565767 7.48638096,0.34491918 7.68661771,0.32682961 L7.68661771,2.27541762e-05 L5.5464402,2.27541762e-05 L5.5464402,0.32682961 C5.8134618,0.327085594 6.36911878,0.350027492 6.12135525,0.852963049 L5.50068022,2.11348752 L4.84325585,0.711318302 C4.74090542,0.492991981 4.93972285,0.34753591 5.26428306,0.330202916 L5.26189789,0.000307181379 L2.85328536,0.000307181379 L2.85328536,0.327114037 C3.14025995,0.336221396 3.54486776,0.334736686 3.69422081,0.569758883 C4.15411752,1.38578053 4.46159871,2.23343048 4.88085913,3.06543693 L3.7959293,5.02508347 L1.97236144,0.976091585 C1.76687142,0.519813467 2.2547247,0.372821488 2.57165825,0.334708243 L2.56809522,0.000255984482 L0,0.000255984482 L0,0.32706284 C0.354595728,0.440310375 0.812018916,0.949844643 0.939699292,1.20770634 C1.89901001,3.1457933 2.38205172,4.44517053 3.2977226,6.402371 L3.29754592,6.40201831 Z" id="Shape"></path>
                            </g>
                            <rect id="Rectangle-212" opacity="0.486590485" fill="#5E8CDC" x="2" y="14" width="11" height="23"></rect>
                            <rect id="Rectangle-212" opacity="0.486590485" fill="#9B9B9B" x="18" y="7" width="36" height="30"></rect>
                            <g id="pin" transform="translate(29.000000, 10.000000)">
                                <path d="M17.54365,15.303823 C16.28097,16.411488 5.525629,20.9997926 5.525629,20.9997926 C5.525629,20.9997926 5.229082,16.411488 6.491765,15.303823 C7.754449,14.196158 11.25224,13.296958 14.30364,13.296958 C17.35504,13.296958 18.80634,14.196158 17.54365,15.303823" id="Fill-1" fill-opacity="0.25" fill="#000000"></path>
                                <path d="M11.05178,5.46925 C11.05178,8.4894 5.526363,21.0004149 5.526363,21.0004149 C5.526363,21.0004149 -0.000104787,8.4894 -0.000104787,5.46925 C-0.000104787,2.4491 2.473917,0.000410000001 5.526363,0.000410000001 C8.577761,0.000410000001 11.05178,2.4491 11.05178,5.46925" id="Fill-4" fill="#0645AD"></path>
                                <path d="M8.100561,5.34262 C8.100561,6.74898 6.946856,7.89087 5.525944,7.89087 C4.105032,7.89087 2.951326,6.74898 2.951326,5.34262 C2.951326,3.93314 4.105032,2.79125 5.525944,2.79125 C6.946856,2.79125 8.100561,3.93314 8.100561,5.34262" id="Fill-6" fill="#FFFFFF"></path>
                            </g>
                        </g>
                        <g id="wiki_article_mini" transform="translate(304.000000, 273.000000)" sketch:type="MSShapeGroup">
                            <path d="M56,39 L0,39 L0,0 L56,0 L56,39 Z" id="Stroke-220" stroke="#979797" fill="#FFFFFF"></path>
                            <path d="M15.9041038,40 L15.9041038,5 L56.0001476,5" id="Rectangle-208" stroke="#979797"></path>
                            <g id="Wikipedia-W-bold-in-square" transform="translate(2.000000, 4.000000)" fill="#000000">
                                <path d="M3.29754592,6.40201831 L3.73388536,6.40201831 L5.1907255,3.67219979 L6.38920135,6.40201831 L6.80928627,6.40201831 L9.29917137,0.868600856 C9.43874817,0.558177008 9.71083457,0.371763419 10,0.329554422 L10,0 L7.98667837,0 L7.98667837,0.329668193 C8.25381775,0.387065603 8.53738832,0.483770852 8.66347858,0.756087144 L6.83519927,4.829426 C6.50469084,4.15049826 6.16581959,3.40859835 5.84237834,2.66823434 C6.17621423,1.98316298 6.44886012,1.34684244 6.85840317,0.721500796 C7.09783921,0.353565767 7.48638096,0.34491918 7.68661771,0.32682961 L7.68661771,2.27541762e-05 L5.5464402,2.27541762e-05 L5.5464402,0.32682961 C5.8134618,0.327085594 6.36911878,0.350027492 6.12135525,0.852963049 L5.50068022,2.11348752 L4.84325585,0.711318302 C4.74090542,0.492991981 4.93972285,0.34753591 5.26428306,0.330202916 L5.26189789,0.000307181379 L2.85328536,0.000307181379 L2.85328536,0.327114037 C3.14025995,0.336221396 3.54486776,0.334736686 3.69422081,0.569758883 C4.15411752,1.38578053 4.46159871,2.23343048 4.88085913,3.06543693 L3.7959293,5.02508347 L1.97236144,0.976091585 C1.76687142,0.519813467 2.2547247,0.372821488 2.57165825,0.334708243 L2.56809522,0.000255984482 L0,0.000255984482 L0,0.32706284 C0.354595728,0.440310375 0.812018916,0.949844643 0.939699292,1.20770634 C1.89901001,3.1457933 2.38205172,4.44517053 3.2977226,6.402371 L3.29754592,6.40201831 Z" id="Shape"></path>
                            </g>
                            <rect id="Rectangle-212" opacity="0.486590485" fill="#5E8CDC" x="2" y="14" width="11" height="23"></rect>
                            <rect id="Rectangle-212" opacity="0.486590485" fill="#9B9B9B" x="18" y="7" width="36" height="30"></rect>
                            <g id="pin" transform="translate(29.000000, 10.000000)">
                                <path d="M17.54365,15.303823 C16.28097,16.411488 5.525629,20.9997926 5.525629,20.9997926 C5.525629,20.9997926 5.229082,16.411488 6.491765,15.303823 C7.754449,14.196158 11.25224,13.296958 14.30364,13.296958 C17.35504,13.296958 18.80634,14.196158 17.54365,15.303823" id="Fill-1" fill-opacity="0.25" fill="#000000"></path>
                                <path d="M11.05178,5.46925 C11.05178,8.4894 5.526363,21.0004149 5.526363,21.0004149 C5.526363,21.0004149 -0.000104787,8.4894 -0.000104787,5.46925 C-0.000104787,2.4491 2.473917,0.000410000001 5.526363,0.000410000001 C8.577761,0.000410000001 11.05178,2.4491 11.05178,5.46925" id="Fill-4" fill="#0645AD"></path>
                                <path d="M8.100561,5.34262 C8.100561,6.74898 6.946856,7.89087 5.525944,7.89087 C4.105032,7.89087 2.951326,6.74898 2.951326,5.34262 C2.951326,3.93314 4.105032,2.79125 5.525944,2.79125 C6.946856,2.79125 8.100561,3.93314 8.100561,5.34262" id="Fill-6" fill="#FFFFFF"></path>
                            </g>
                        </g>
                        <g id="wiki_article_mini" transform="translate(28.000000, 265.000000)" sketch:type="MSShapeGroup">
                            <path d="M56,39 L0,39 L0,0 L56,0 L56,39 Z" id="Stroke-220" stroke="#979797" fill="#FFFFFF"></path>
                            <path d="M15.9041038,40 L15.9041038,5 L56.0001476,5" id="Rectangle-208" stroke="#979797"></path>
                            <g id="Wikipedia-W-bold-in-square" transform="translate(2.000000, 4.000000)" fill="#000000">
                                <path d="M3.29754592,6.40201831 L3.73388536,6.40201831 L5.1907255,3.67219979 L6.38920135,6.40201831 L6.80928627,6.40201831 L9.29917137,0.868600856 C9.43874817,0.558177008 9.71083457,0.371763419 10,0.329554422 L10,0 L7.98667837,0 L7.98667837,0.329668193 C8.25381775,0.387065603 8.53738832,0.483770852 8.66347858,0.756087144 L6.83519927,4.829426 C6.50469084,4.15049826 6.16581959,3.40859835 5.84237834,2.66823434 C6.17621423,1.98316298 6.44886012,1.34684244 6.85840317,0.721500796 C7.09783921,0.353565767 7.48638096,0.34491918 7.68661771,0.32682961 L7.68661771,2.27541762e-05 L5.5464402,2.27541762e-05 L5.5464402,0.32682961 C5.8134618,0.327085594 6.36911878,0.350027492 6.12135525,0.852963049 L5.50068022,2.11348752 L4.84325585,0.711318302 C4.74090542,0.492991981 4.93972285,0.34753591 5.26428306,0.330202916 L5.26189789,0.000307181379 L2.85328536,0.000307181379 L2.85328536,0.327114037 C3.14025995,0.336221396 3.54486776,0.334736686 3.69422081,0.569758883 C4.15411752,1.38578053 4.46159871,2.23343048 4.88085913,3.06543693 L3.7959293,5.02508347 L1.97236144,0.976091585 C1.76687142,0.519813467 2.2547247,0.372821488 2.57165825,0.334708243 L2.56809522,0.000255984482 L0,0.000255984482 L0,0.32706284 C0.354595728,0.440310375 0.812018916,0.949844643 0.939699292,1.20770634 C1.89901001,3.1457933 2.38205172,4.44517053 3.2977226,6.402371 L3.29754592,6.40201831 Z" id="Shape"></path>
                            </g>
                            <rect id="Rectangle-212" opacity="0.486590485" fill="#5E8CDC" x="2" y="14" width="11" height="23"></rect>
                            <rect id="Rectangle-212" opacity="0.486590485" fill="#9B9B9B" x="18" y="7" width="36" height="30"></rect>
                            <g id="pin" transform="translate(29.000000, 10.000000)">
                                <path d="M17.54365,15.303823 C16.28097,16.411488 5.525629,20.9997926 5.525629,20.9997926 C5.525629,20.9997926 5.229082,16.411488 6.491765,15.303823 C7.754449,14.196158 11.25224,13.296958 14.30364,13.296958 C17.35504,13.296958 18.80634,14.196158 17.54365,15.303823" id="Fill-1" fill-opacity="0.25" fill="#000000"></path>
                                <path d="M11.05178,5.46925 C11.05178,8.4894 5.526363,21.0004149 5.526363,21.0004149 C5.526363,21.0004149 -0.000104787,8.4894 -0.000104787,5.46925 C-0.000104787,2.4491 2.473917,0.000410000001 5.526363,0.000410000001 C8.577761,0.000410000001 11.05178,2.4491 11.05178,5.46925" id="Fill-4" fill="#0645AD"></path>
                                <path d="M8.100561,5.34262 C8.100561,6.74898 6.946856,7.89087 5.525944,7.89087 C4.105032,7.89087 2.951326,6.74898 2.951326,5.34262 C2.951326,3.93314 4.105032,2.79125 5.525944,2.79125 C6.946856,2.79125 8.100561,3.93314 8.100561,5.34262" id="Fill-6" fill="#FFFFFF"></path>
                            </g>
                        </g>
                        <g id="wiki_article_mini" transform="translate(219.000000, 341.000000)" sketch:type="MSShapeGroup">
                            <path d="M56,39 L0,39 L0,0 L56,0 L56,39 Z" id="Stroke-220" stroke="#979797" fill="#FFFFFF"></path>
                            <path d="M15.9041038,40 L15.9041038,5 L56.0001476,5" id="Rectangle-208" stroke="#979797"></path>
                            <g id="Wikipedia-W-bold-in-square" transform="translate(2.000000, 4.000000)" fill="#000000">
                                <path d="M3.29754592,6.40201831 L3.73388536,6.40201831 L5.1907255,3.67219979 L6.38920135,6.40201831 L6.80928627,6.40201831 L9.29917137,0.868600856 C9.43874817,0.558177008 9.71083457,0.371763419 10,0.329554422 L10,0 L7.98667837,0 L7.98667837,0.329668193 C8.25381775,0.387065603 8.53738832,0.483770852 8.66347858,0.756087144 L6.83519927,4.829426 C6.50469084,4.15049826 6.16581959,3.40859835 5.84237834,2.66823434 C6.17621423,1.98316298 6.44886012,1.34684244 6.85840317,0.721500796 C7.09783921,0.353565767 7.48638096,0.34491918 7.68661771,0.32682961 L7.68661771,2.27541762e-05 L5.5464402,2.27541762e-05 L5.5464402,0.32682961 C5.8134618,0.327085594 6.36911878,0.350027492 6.12135525,0.852963049 L5.50068022,2.11348752 L4.84325585,0.711318302 C4.74090542,0.492991981 4.93972285,0.34753591 5.26428306,0.330202916 L5.26189789,0.000307181379 L2.85328536,0.000307181379 L2.85328536,0.327114037 C3.14025995,0.336221396 3.54486776,0.334736686 3.69422081,0.569758883 C4.15411752,1.38578053 4.46159871,2.23343048 4.88085913,3.06543693 L3.7959293,5.02508347 L1.97236144,0.976091585 C1.76687142,0.519813467 2.2547247,0.372821488 2.57165825,0.334708243 L2.56809522,0.000255984482 L0,0.000255984482 L0,0.32706284 C0.354595728,0.440310375 0.812018916,0.949844643 0.939699292,1.20770634 C1.89901001,3.1457933 2.38205172,4.44517053 3.2977226,6.402371 L3.29754592,6.40201831 Z" id="Shape"></path>
                            </g>
                            <rect id="Rectangle-212" opacity="0.486590485" fill="#5E8CDC" x="2" y="14" width="11" height="23"></rect>
                            <rect id="Rectangle-212" opacity="0.486590485" fill="#9B9B9B" x="18" y="7" width="36" height="30"></rect>
                            <g id="pin" transform="translate(29.000000, 10.000000)">
                                <path d="M17.54365,15.303823 C16.28097,16.411488 5.525629,20.9997926 5.525629,20.9997926 C5.525629,20.9997926 5.229082,16.411488 6.491765,15.303823 C7.754449,14.196158 11.25224,13.296958 14.30364,13.296958 C17.35504,13.296958 18.80634,14.196158 17.54365,15.303823" id="Fill-1" fill-opacity="0.25" fill="#000000"></path>
                                <path d="M11.05178,5.46925 C11.05178,8.4894 5.526363,21.0004149 5.526363,21.0004149 C5.526363,21.0004149 -0.000104787,8.4894 -0.000104787,5.46925 C-0.000104787,2.4491 2.473917,0.000410000001 5.526363,0.000410000001 C8.577761,0.000410000001 11.05178,2.4491 11.05178,5.46925" id="Fill-4" fill="#0645AD"></path>
                                <path d="M8.100561,5.34262 C8.100561,6.74898 6.946856,7.89087 5.525944,7.89087 C4.105032,7.89087 2.951326,6.74898 2.951326,5.34262 C2.951326,3.93314 4.105032,2.79125 5.525944,2.79125 C6.946856,2.79125 8.100561,3.93314 8.100561,5.34262" id="Fill-6" fill="#FFFFFF"></path>
                            </g>
                        </g>
                        <g id="wiki_article_mini" transform="translate(109.000000, 337.000000)" sketch:type="MSShapeGroup">
                            <path d="M56,39 L0,39 L0,0 L56,0 L56,39 Z" id="Stroke-220" stroke="#979797" fill="#FFFFFF"></path>
                            <path d="M15.9041038,40 L15.9041038,5 L56.0001476,5" id="Rectangle-208" stroke="#979797"></path>
                            <g id="Wikipedia-W-bold-in-square" transform="translate(2.000000, 4.000000)" fill="#000000">
                                <path d="M3.29754592,6.40201831 L3.73388536,6.40201831 L5.1907255,3.67219979 L6.38920135,6.40201831 L6.80928627,6.40201831 L9.29917137,0.868600856 C9.43874817,0.558177008 9.71083457,0.371763419 10,0.329554422 L10,0 L7.98667837,0 L7.98667837,0.329668193 C8.25381775,0.387065603 8.53738832,0.483770852 8.66347858,0.756087144 L6.83519927,4.829426 C6.50469084,4.15049826 6.16581959,3.40859835 5.84237834,2.66823434 C6.17621423,1.98316298 6.44886012,1.34684244 6.85840317,0.721500796 C7.09783921,0.353565767 7.48638096,0.34491918 7.68661771,0.32682961 L7.68661771,2.27541762e-05 L5.5464402,2.27541762e-05 L5.5464402,0.32682961 C5.8134618,0.327085594 6.36911878,0.350027492 6.12135525,0.852963049 L5.50068022,2.11348752 L4.84325585,0.711318302 C4.74090542,0.492991981 4.93972285,0.34753591 5.26428306,0.330202916 L5.26189789,0.000307181379 L2.85328536,0.000307181379 L2.85328536,0.327114037 C3.14025995,0.336221396 3.54486776,0.334736686 3.69422081,0.569758883 C4.15411752,1.38578053 4.46159871,2.23343048 4.88085913,3.06543693 L3.7959293,5.02508347 L1.97236144,0.976091585 C1.76687142,0.519813467 2.2547247,0.372821488 2.57165825,0.334708243 L2.56809522,0.000255984482 L0,0.000255984482 L0,0.32706284 C0.354595728,0.440310375 0.812018916,0.949844643 0.939699292,1.20770634 C1.89901001,3.1457933 2.38205172,4.44517053 3.2977226,6.402371 L3.29754592,6.40201831 Z" id="Shape"></path>
                            </g>
                            <rect id="Rectangle-212" opacity="0.486590485" fill="#5E8CDC" x="2" y="14" width="11" height="23"></rect>
                            <rect id="Rectangle-212" opacity="0.486590485" fill="#9B9B9B" x="18" y="7" width="36" height="30"></rect>
                            <g id="pin" transform="translate(29.000000, 10.000000)">
                                <path d="M17.54365,15.303823 C16.28097,16.411488 5.525629,20.9997926 5.525629,20.9997926 C5.525629,20.9997926 5.229082,16.411488 6.491765,15.303823 C7.754449,14.196158 11.25224,13.296958 14.30364,13.296958 C17.35504,13.296958 18.80634,14.196158 17.54365,15.303823" id="Fill-1" fill-opacity="0.25" fill="#000000"></path>
                                <path d="M11.05178,5.46925 C11.05178,8.4894 5.526363,21.0004149 5.526363,21.0004149 C5.526363,21.0004149 -0.000104787,8.4894 -0.000104787,5.46925 C-0.000104787,2.4491 2.473917,0.000410000001 5.526363,0.000410000001 C8.577761,0.000410000001 11.05178,2.4491 11.05178,5.46925" id="Fill-4" fill="#0645AD"></path>
                                <path d="M8.100561,5.34262 C8.100561,6.74898 6.946856,7.89087 5.525944,7.89087 C4.105032,7.89087 2.951326,6.74898 2.951326,5.34262 C2.951326,3.93314 4.105032,2.79125 5.525944,2.79125 C6.946856,2.79125 8.100561,3.93314 8.100561,5.34262" id="Fill-6" fill="#FFFFFF"></path>
                            </g>
                        </g>
                        <g id="wiki_article_mini" transform="translate(169.000000, 190.000000)" sketch:type="MSShapeGroup">
                            <path d="M56,39 L0,39 L0,0 L56,0 L56,39 Z" id="Stroke-220" stroke="#979797" fill="#FFFFFF"></path>
                            <path d="M15.9041038,40 L15.9041038,5 L56.0001476,5" id="Rectangle-208" stroke="#979797"></path>
                            <g id="Wikipedia-W-bold-in-square" transform="translate(2.000000, 4.000000)" fill="#000000">
                                <path d="M3.29754592,6.40201831 L3.73388536,6.40201831 L5.1907255,3.67219979 L6.38920135,6.40201831 L6.80928627,6.40201831 L9.29917137,0.868600856 C9.43874817,0.558177008 9.71083457,0.371763419 10,0.329554422 L10,0 L7.98667837,0 L7.98667837,0.329668193 C8.25381775,0.387065603 8.53738832,0.483770852 8.66347858,0.756087144 L6.83519927,4.829426 C6.50469084,4.15049826 6.16581959,3.40859835 5.84237834,2.66823434 C6.17621423,1.98316298 6.44886012,1.34684244 6.85840317,0.721500796 C7.09783921,0.353565767 7.48638096,0.34491918 7.68661771,0.32682961 L7.68661771,2.27541762e-05 L5.5464402,2.27541762e-05 L5.5464402,0.32682961 C5.8134618,0.327085594 6.36911878,0.350027492 6.12135525,0.852963049 L5.50068022,2.11348752 L4.84325585,0.711318302 C4.74090542,0.492991981 4.93972285,0.34753591 5.26428306,0.330202916 L5.26189789,0.000307181379 L2.85328536,0.000307181379 L2.85328536,0.327114037 C3.14025995,0.336221396 3.54486776,0.334736686 3.69422081,0.569758883 C4.15411752,1.38578053 4.46159871,2.23343048 4.88085913,3.06543693 L3.7959293,5.02508347 L1.97236144,0.976091585 C1.76687142,0.519813467 2.2547247,0.372821488 2.57165825,0.334708243 L2.56809522,0.000255984482 L0,0.000255984482 L0,0.32706284 C0.354595728,0.440310375 0.812018916,0.949844643 0.939699292,1.20770634 C1.89901001,3.1457933 2.38205172,4.44517053 3.2977226,6.402371 L3.29754592,6.40201831 Z" id="Shape"></path>
                            </g>
                            <rect id="Rectangle-212" opacity="0.486590485" fill="#5E8CDC" x="2" y="14" width="11" height="23"></rect>
                            <rect id="Rectangle-212" opacity="0.486590485" fill="#9B9B9B" x="18" y="7" width="36" height="30"></rect>
                            <g id="pin" transform="translate(29.000000, 10.000000)">
                                <path d="M17.54365,15.303823 C16.28097,16.411488 5.525629,20.9997926 5.525629,20.9997926 C5.525629,20.9997926 5.229082,16.411488 6.491765,15.303823 C7.754449,14.196158 11.25224,13.296958 14.30364,13.296958 C17.35504,13.296958 18.80634,14.196158 17.54365,15.303823" id="Fill-1" fill-opacity="0.25" fill="#000000"></path>
                                <path d="M11.05178,5.46925 C11.05178,8.4894 5.526363,21.0004149 5.526363,21.0004149 C5.526363,21.0004149 -0.000104787,8.4894 -0.000104787,5.46925 C-0.000104787,2.4491 2.473917,0.000410000001 5.526363,0.000410000001 C8.577761,0.000410000001 11.05178,2.4491 11.05178,5.46925" id="Fill-4" fill="#0645AD"></path>
                                <path d="M8.100561,5.34262 C8.100561,6.74898 6.946856,7.89087 5.525944,7.89087 C4.105032,7.89087 2.951326,6.74898 2.951326,5.34262 C2.951326,3.93314 4.105032,2.79125 5.525944,2.79125 C6.946856,2.79125 8.100561,3.93314 8.100561,5.34262" id="Fill-6" fill="#FFFFFF"></path>
                            </g>
                        </g>
                        <text id="—-The-networked-arti" sketch:type="MSTextLayer" font-family="Fira Sans" font-size="13" font-weight="260" sketch:alignment="middle" fill="#424242">
                            <tspan x="77.579" y="12">— The networked article Berlin in German</tspan>
                        </text>
                        <text id="Berlin" sketch:type="MSTextLayer" font-family="Fira Sans" font-size="12" font-weight="260" sketch:alignment="middle" fill="#424242">
                            <tspan x="183.618" y="247">Berlin</tspan>
                        </text>
                        <text id="Berliner" sketch:type="MSTextLayer" font-family="Fira Sans" font-size="12" font-weight="260" sketch:alignment="middle" fill="#424242">
                            <tspan x="32.652" y="324">Berliner</tspan>
                            <tspan x="19.872" y="338">Fernsehturm</tspan>
                        </text>
                        <text id="Karl-Marx-Allee" sketch:type="MSTextLayer" font-family="Fira Sans" font-size="12" font-weight="260" sketch:alignment="middle" fill="#424242">
                            <tspan x="97.828" y="392">Karl-Marx-Allee</tspan>
                        </text>
                        <text id="Museumsinsel" sketch:type="MSTextLayer" font-family="Fira Sans" font-size="12" font-weight="260" sketch:alignment="middle" fill="#424242">
                            <tspan x="211.63" y="395">Museumsinsel</tspan>
                            <tspan x="230.23" y="409">(Berlin)</tspan>
                        </text>
                        <text id="Humboldt-Universität" sketch:type="MSTextLayer" font-family="Fira Sans" font-size="12" font-weight="260" sketch:alignment="middle" fill="#424242">
                            <tspan x="274.016" y="328">Humboldt-Universität</tspan>
                            <tspan x="308.438" y="342">zu Berlin</tspan>
                        </text>
                        <text id="Maxim-Gorki--Theater" sketch:type="MSTextLayer" font-family="Fira Sans" font-size="12" font-weight="260" sketch:alignment="middle" fill="#424242">
                            <tspan x="316.952" y="221">Maxim-Gorki-</tspan>
                            <tspan x="332.63" y="235">Theater</tspan>
                        </text>
                        <text id="HKW" sketch:type="MSTextLayer" font-family="Fira Sans" font-size="12" font-weight="260" sketch:alignment="middle" fill="#424242">
                            <tspan x="289.838" y="126">HKW</tspan>
                        </text>
                        <text id="Am-" sketch:type="MSTextLayer" font-family="Fira Sans" font-size="12" font-weight="260" sketch:alignment="middle" fill="#424242">
                            <tspan x="195.492" y="86">Am </tspan>
                            <tspan x="167.976" y="100">Kupfergraben</tspan>
                        </text>
                        <text id="Volksbühne" sketch:type="MSTextLayer" font-family="Fira Sans" font-size="12" font-weight="260" sketch:alignment="middle" fill="#424242">
                            <tspan x="67.866" y="120">Volksbühne</tspan>
                            <tspan x="83.118" y="134">Berlin</tspan>
                        </text>
                        <text id="Alexanderplatz" sketch:type="MSTextLayer" font-family="Fira Sans" font-size="12" font-weight="260" sketch:alignment="middle" fill="#424242">
                            <tspan x="0.304" y="213">Alexanderplatz</tspan>
                        </text>
                        <g id="wiki_article_mini" transform="translate(275.000000, 70.000000)" sketch:type="MSShapeGroup">
                            <path d="M56,39 L0,39 L0,0 L56,0 L56,39 Z" id="Stroke-220" stroke="#979797" fill="#FFFFFF"></path>
                            <path d="M15.9041038,40 L15.9041038,5 L56.0001476,5" id="Rectangle-208" stroke="#979797"></path>
                            <g id="Wikipedia-W-bold-in-square" transform="translate(2.000000, 4.000000)" fill="#000000">
                                <path d="M3.29754592,6.40201831 L3.73388536,6.40201831 L5.1907255,3.67219979 L6.38920135,6.40201831 L6.80928627,6.40201831 L9.29917137,0.868600856 C9.43874817,0.558177008 9.71083457,0.371763419 10,0.329554422 L10,0 L7.98667837,0 L7.98667837,0.329668193 C8.25381775,0.387065603 8.53738832,0.483770852 8.66347858,0.756087144 L6.83519927,4.829426 C6.50469084,4.15049826 6.16581959,3.40859835 5.84237834,2.66823434 C6.17621423,1.98316298 6.44886012,1.34684244 6.85840317,0.721500796 C7.09783921,0.353565767 7.48638096,0.34491918 7.68661771,0.32682961 L7.68661771,2.27541762e-05 L5.5464402,2.27541762e-05 L5.5464402,0.32682961 C5.8134618,0.327085594 6.36911878,0.350027492 6.12135525,0.852963049 L5.50068022,2.11348752 L4.84325585,0.711318302 C4.74090542,0.492991981 4.93972285,0.34753591 5.26428306,0.330202916 L5.26189789,0.000307181379 L2.85328536,0.000307181379 L2.85328536,0.327114037 C3.14025995,0.336221396 3.54486776,0.334736686 3.69422081,0.569758883 C4.15411752,1.38578053 4.46159871,2.23343048 4.88085913,3.06543693 L3.7959293,5.02508347 L1.97236144,0.976091585 C1.76687142,0.519813467 2.2547247,0.372821488 2.57165825,0.334708243 L2.56809522,0.000255984482 L0,0.000255984482 L0,0.32706284 C0.354595728,0.440310375 0.812018916,0.949844643 0.939699292,1.20770634 C1.89901001,3.1457933 2.38205172,4.44517053 3.2977226,6.402371 L3.29754592,6.40201831 Z" id="Shape"></path>
                            </g>
                            <rect id="Rectangle-212" opacity="0.486590485" fill="#5E8CDC" x="2" y="14" width="11" height="23"></rect>
                            <rect id="Rectangle-212" opacity="0.486590485" fill="#9B9B9B" x="18" y="7" width="36" height="30"></rect>
                            <g id="pin" transform="translate(29.000000, 10.000000)">
                                <path d="M17.54365,15.303823 C16.28097,16.411488 5.525629,20.9997926 5.525629,20.9997926 C5.525629,20.9997926 5.229082,16.411488 6.491765,15.303823 C7.754449,14.196158 11.25224,13.296958 14.30364,13.296958 C17.35504,13.296958 18.80634,14.196158 17.54365,15.303823" id="Fill-1" fill-opacity="0.25" fill="#000000"></path>
                                <path d="M11.05178,5.46925 C11.05178,8.4894 5.526363,21.0004149 5.526363,21.0004149 C5.526363,21.0004149 -0.000104787,8.4894 -0.000104787,5.46925 C-0.000104787,2.4491 2.473917,0.000410000001 5.526363,0.000410000001 C8.577761,0.000410000001 11.05178,2.4491 11.05178,5.46925" id="Fill-4" fill="#0645AD"></path>
                                <path d="M8.100561,5.34262 C8.100561,6.74898 6.946856,7.89087 5.525944,7.89087 C4.105032,7.89087 2.951326,6.74898 2.951326,5.34262 C2.951326,3.93314 4.105032,2.79125 5.525944,2.79125 C6.946856,2.79125 8.100561,3.93314 8.100561,5.34262" id="Fill-6" fill="#FFFFFF"></path>
                            </g>
                        </g>
                    </g>
                </g>
            </g>
        </g>
    </g>
</svg>