<?xml version="1.0" encoding="UTF-8" standalone="no"?>
<svg width="770px" height="206px" viewBox="0 0 770 206" version="1.1" xmlns="http://www.w3.org/2000/svg" xmlns:xlink="http://www.w3.org/1999/xlink" xmlns:sketch="http://www.bohemiancoding.com/sketch/ns">
    <!-- Generator: Sketch 3.4.4 (17249) - http://www.bohemiancoding.com/sketch -->
    <title>author + user</title>
    <desc>Created with Sketch.</desc>
    <defs></defs>
    <g id="2.-Content" stroke="none" stroke-width="1" fill="none" fill-rule="evenodd" sketch:type="MSPage">
        <g id="project_-Helen" sketch:type="MSArtboardGroup" transform="translate(-54.000000, -4127.000000)">
            <g id="author-+-user" sketch:type="MSLayerGroup" transform="translate(54.000000, 4127.000000)">
                <g id="author" transform="translate(0.000000, 112.991285)">
                    <path d="M0.431826148,92.2525922 L113.096995,92.2525922 L113.096995,0.470358287 L0.431826148,0.470358287 L0.431826148,92.2525922 Z" id="Fill-3" fill="#A7EAFA" sketch:type="MSShapeGroup"></path>
                    <path d="M0,0.0371609033 L0,0.903382426 L0,91.8193948 L0,92.6856163 L0.863652296,92.6856163 L112.666033,92.6856163 L113.529685,92.6856163 L113.529685,91.8193948 L113.529685,0.903382426 L113.529685,0.0371609033 L0,0.0371609033 Z M0.863652296,0.903382426 L112.666033,0.903382426 L112.666033,91.8193948 L0.863652296,91.8193948 L0.863652296,0.903382426 Z" id="Fill-4" fill="#FFFFFF" sketch:type="MSShapeGroup"></path>
                    <text id="Incoming-citations" sketch:type="MSTextLayer" font-family="Fira Sans" font-size="10.3638275" font-weight="normal" fill="#00A3D6">
                        <tspan x="12.0169444" y="73.0311078">Incoming citations</tspan>
                    </text>
                    <path d="M621.979065,92.2525922 L737.308601,92.2525922 L737.308601,0.470358287 L621.979065,0.470358287 L621.979065,92.2525922 Z" id="Fill-5" fill="#A7EAFA" sketch:type="MSShapeGroup"></path>
                    <path d="M621.546721,0.0371609033 L621.546721,0.903382426 L621.546721,91.8193948 L621.546721,92.6856163 L622.411236,92.6856163 L736.877121,92.6856163 L737.739909,92.6856163 L737.739909,91.8193948 L737.739909,0.903382426 L737.739909,0.0371609033 L621.546721,0.0371609033 Z M622.411236,0.903382426 L736.877121,0.903382426 L736.877121,91.8193948 L622.411236,91.8193948 L622.411236,0.903382426 Z" id="Fill-6" fill="#FFFFFF" sketch:type="MSShapeGroup"></path>
                    <text id="Outgoing-citations" sketch:type="MSTextLayer" font-family="Fira Sans" font-size="10.3638275" font-weight="normal" fill="#00A3D6">
                        <tspan x="634.01691" y="73.0311078">Outgoing citations</tspan>
                    </text>
                    <path d="M475.470817,92.2525922 L622.841853,92.2525922 L622.841853,0.470358287 L475.470817,0.470358287 L475.470817,92.2525922 Z" id="Fill-17" fill="#A7EAFA" sketch:type="MSShapeGroup"></path>
                    <path d="M475.038991,0.0371609033 L475.038991,0.903382426 L475.038991,91.8193948 L475.038991,92.6856163 L475.902643,92.6856163 L622.410891,92.6856163 L623.274543,92.6856163 L623.274543,91.8193948 L623.274543,0.903382426 L623.274543,0.0371609033 L475.038991,0.0371609033 Z M475.902643,0.903382426 L622.410891,0.903382426 L622.410891,91.8193948 L475.902643,91.8193948 L475.902643,0.903382426 Z" id="Fill-18" fill="#FFFFFF" sketch:type="MSShapeGroup"></path>
                    <text id="Outgoing-image-linkages" sketch:type="MSTextLayer" font-family="Fira Sans" font-size="10.3638275" font-weight="normal" fill="#00A3D6">
                        <tspan x="487.930642" y="73.0311078">Outgoing image linkages</tspan>
                    </text>
                    <path d="M112.234207,92.2525922 L214.615005,92.2525922 L214.615005,0.470358287 L112.234207,0.470358287 L112.234207,92.2525922 Z" id="Fill-19" fill="#EFEFEF" sketch:type="MSShapeGroup"></path>
                    <path d="M111.80264,0.0371609033 L111.80264,0.903382426 L111.80264,91.8193948 L111.80264,92.6856163 L112.666292,92.6856163 L214.182574,92.6856163 L215.046226,92.6856163 L215.046226,91.8193948 L215.046226,0.903382426 L215.046226,0.0371609033 L111.80264,0.0371609033 Z M112.666292,0.903382426 L214.182574,0.903382426 L214.182574,91.8193948 L112.666292,91.8193948 L112.666292,0.903382426 Z" id="Fill-20" fill="#FFFFFF" sketch:type="MSShapeGroup"></path>
                    <text id="Publication-year" sketch:type="MSTextLayer" font-family="Fira Sans" font-size="10.3638275" font-weight="normal" fill="#929292">
                        <tspan x="124.287511" y="73.0311078">Publication year</tspan>
                    </text>
                    <path d="M213.750489,92.2525922 L259.184645,92.2525922 L259.184645,0.470358287 L213.750489,0.470358287 L213.750489,92.2525922 Z" id="Fill-21" fill="#EFEFEF" sketch:type="MSShapeGroup"></path>
                    <path d="M213.318662,0.0371609033 L213.318662,0.903382426 L213.318662,91.8193948 L213.318662,92.6856163 L214.182315,92.6856163 L258.753682,92.6856163 L259.617335,92.6856163 L259.617335,91.8193948 L259.617335,0.903382426 L259.617335,0.0371609033 L213.318662,0.0371609033 Z M214.182315,0.903382426 L258.753682,0.903382426 L258.753682,91.8193948 L214.182315,91.8193948 L214.182315,0.903382426 Z" id="Fill-22" fill="#FFFFFF" sketch:type="MSShapeGroup"></path>
                    <text id="Title" sketch:type="MSTextLayer" font-family="Fira Sans" font-size="10.3638275" font-weight="normal" letter-spacing="-0.444000006" fill="#929292">
                        <tspan x="226.083789" y="73.0311078">Title</tspan>
                    </text>
                    <path d="M258.320993,92.2525922 L322.515404,92.2525922 L322.515404,0.470358287 L258.320993,0.470358287 L258.320993,92.2525922 Z" id="Fill-23" fill="#EFEFEF" sketch:type="MSShapeGroup"></path>
                    <path d="M257.889857,0.0371609033 L257.889857,0.903382426 L257.889857,91.8193948 L257.889857,92.6856163 L258.75351,92.6856163 L322.084269,92.6856163 L322.947921,92.6856163 L322.947921,91.8193948 L322.947921,0.903382426 L322.947921,0.0371609033 L257.889857,0.0371609033 Z M258.75351,0.903382426 L322.084269,0.903382426 L322.084269,91.8193948 L258.75351,91.8193948 L258.75351,0.903382426 Z" id="Fill-24" fill="#FFFFFF" sketch:type="MSShapeGroup"></path>
                    <text id="Autor(s)" sketch:type="MSTextLayer" font-family="Fira Sans" font-size="10.3638275" font-weight="normal" fill="#929292">
                        <tspan x="270.795932" y="73.0311078">Autor(s)</tspan>
                    </text>
                    <path d="M321.652615,92.2525922 L374.320723,92.2525922 L374.320723,0.470358287 L321.652615,0.470358287 L321.652615,92.2525922 Z" id="Fill-25" fill="#EFEFEF" sketch:type="MSShapeGroup"></path>
                    <path d="M321.220098,0.0371609033 L321.220098,0.903382426 L321.220098,91.8193948 L321.220098,92.6856163 L322.084614,92.6856163 L373.88907,92.6856163 L374.752722,92.6856163 L374.752722,91.8193948 L374.752722,0.903382426 L374.752722,0.0371609033 L321.220098,0.0371609033 Z M322.084614,0.903382426 L373.88907,0.903382426 L373.88907,91.8193948 L322.084614,91.8193948 L322.084614,0.903382426 Z" id="Fill-26" fill="#FFFFFF" sketch:type="MSShapeGroup"></path>
                    <text id="Cover" sketch:type="MSTextLayer" font-family="Fira Sans" font-size="10.3638275" font-weight="normal" fill="#929292">
                        <tspan x="333.988852" y="73.0311078">Cover</tspan>
                    </text>
                    <path d="M373.457071,92.2525922 L476.334469,92.2525922 L476.334469,0.470358287 L373.457071,0.470358287 L373.457071,92.2525922 Z" id="Fill-35" fill="#CDCDCD" sketch:type="MSShapeGroup"></path>
                    <path d="M373.025504,0.0371609033 L373.025504,0.903382426 L373.025504,91.8193948 L373.025504,92.6856163 L373.889156,92.6856163 L475.902902,92.6856163 L476.765691,92.6856163 L476.765691,91.8193948 L476.765691,0.903382426 L476.765691,0.0371609033 L373.025504,0.0371609033 Z M373.889156,0.903382426 L475.902902,0.903382426 L475.902902,91.8193948 L373.889156,91.8193948 L373.889156,0.903382426 Z" id="Fill-36" fill="#FFFFFF" sketch:type="MSShapeGroup"></path>
                    <text id="Quantity-of-text" sketch:type="MSTextLayer" font-family="Fira Sans" font-size="10.3638275" font-weight="normal" fill="#929292">
                        <tspan x="385.876305" y="73.0311078">Quantity of text</tspan>
                    </text>
                    <path d="M93.1884282,25.3073548 L91.4611236,25.3073548 L91.4611236,13.1802534 L93.1884282,13.1802534 L100.104556,19.2438041 L93.1884282,25.3073548 Z" id="Fill-37" fill="#00A3D6" sketch:type="MSShapeGroup"></path>
                    <path d="M635.744214,25.3073548 L634.01691,25.3073548 L634.01691,13.1802534 L635.744214,13.1802534 L642.660342,19.2438041 L635.744214,25.3073548 Z" id="Fill-38" fill="#00A3D6" sketch:type="MSShapeGroup"></path>
                    <path d="M498.294556,18.3569665 L494.839947,18.3569665 L494.839947,14.9327928 L498.294556,14.9327928 L498.294556,18.3569665 Z M487.930728,25.307528 L500.02186,25.307528 L500.02186,13.1804267 L487.930728,13.1804267 L487.930728,25.307528 Z" id="Fill-39" fill="#00A3D6" sketch:type="MSShapeGroup"></path>
                    <path d="M385.876391,25.307528 L397.967523,25.307528 L397.967523,23.575085 L385.876391,23.575085 L385.876391,25.307528 Z M385.876391,21.8426419 L397.967523,21.8426419 L397.967523,20.1101989 L385.876391,20.1101989 L385.876391,21.8426419 Z M385.876391,18.3777558 L397.967523,18.3777558 L397.967523,16.6453128 L385.876391,16.6453128 L385.876391,18.3777558 Z M385.876391,14.9128697 L397.967523,14.9128697 L397.967523,13.1804267 L385.876391,13.1804267 L385.876391,14.9128697 Z" id="Fill-40" fill="#929292" sketch:type="MSShapeGroup"></path>
                </g>
                <g id="user">
                    <path d="M0.432098765,92.2525922 L113.168395,92.2525922 L113.168395,0.470358287 L0.432098765,0.470358287 L0.432098765,92.2525922 Z" id="Fill-1" fill="#FFEC62" sketch:type="MSShapeGroup"></path>
                    <path d="M112.737333,0.0373341476 L0.86437037,0.0373341476 L0.000172839507,0.0373341476 L0.000172839507,0.903555671 L0.000172839507,91.819568 L0.000172839507,92.6857896 L0.86437037,92.6857896 L112.737333,92.6857896 L113.601531,92.6857896 L113.601531,91.819568 L113.601531,0.903555671 L113.601531,0.0373341476 L112.737333,0.0373341476 Z M0.86437037,0.903555671 L112.737333,0.903555671 L112.737333,91.819568 L0.86437037,91.819568 L0.86437037,0.903555671 Z" id="Fill-2" fill="#FFFFFF" sketch:type="MSShapeGroup"></path>
                    <text id="Incoming-citations" sketch:type="MSTextLayer" font-family="Fira Sans" font-size="10.3703704" font-weight="normal" fill="#FF5C00">
                        <tspan x="12.0245309" y="73.0311078">Incoming citations</tspan>
                    </text>
                    <path d="M654.108519,92.2525922 L769.263704,92.2525922 L769.263704,0.470358287 L654.108519,0.470358287 L654.108519,92.2525922 Z" id="Fill-7" fill="#FFEC62" sketch:type="MSShapeGroup"></path>
                    <path d="M768.831778,0.0373341476 L654.541654,0.0373341476 L653.677457,0.0373341476 L653.677457,0.903555671 L653.677457,91.819568 L653.677457,92.6857896 L654.541654,92.6857896 L768.831778,92.6857896 L769.695975,92.6857896 L769.695975,0.0373341476 L768.831778,0.0373341476 Z M654.541654,0.903555671 L768.831778,0.903555671 L768.831778,91.819568 L654.541654,91.819568 L654.541654,0.903555671 Z" id="Fill-8" fill="#FFFFFF" sketch:type="MSShapeGroup"></path>
                    <text id="Outgoing-citations" sketch:type="MSTextLayer" font-family="Fira Sans" font-size="10.3703704" font-weight="normal" fill="#FF5C00">
                        <tspan x="666.269247" y="73.0311078">Outgoing citations</tspan>
                    </text>
                    <path d="M581.332716,92.2525922 L654.972716,92.2525922 L654.972716,0.470358287 L581.332716,0.470358287 L581.332716,92.2525922 Z" id="Fill-9" fill="#FFEC62" sketch:type="MSShapeGroup"></path>
                    <path d="M654.541222,0.0373341476 L581.76542,0.0373341476 L580.901222,0.0373341476 L580.901222,0.903555671 L580.901222,91.819568 L580.901222,92.6857896 L581.76542,92.6857896 L654.541222,92.6857896 L655.40542,92.6857896 L655.40542,91.819568 L655.40542,0.903555671 L655.40542,0.0373341476 L654.541222,0.0373341476 Z M581.76542,0.903555671 L654.541222,0.903555671 L654.541222,91.819568 L581.76542,91.819568 L581.76542,0.903555671 Z" id="Fill-10" fill="#FFFFFF" sketch:type="MSShapeGroup"></path>
                    <text id="Highlights" sketch:type="MSTextLayer" font-family="Fira Sans" font-size="10.3703704" font-weight="normal" fill="#FF5C00">
                        <tspan x="593.27584" y="73.0311078">Highlights</tspan>
                    </text>
                    <path d="M528.382469,92.2525922 L582.196914,92.2525922 L582.196914,0.470358287 L528.382469,0.470358287 L528.382469,92.2525922 Z" id="Fill-11" fill="#FFEC62" sketch:type="MSShapeGroup"></path>
                    <path d="M581.765333,0.0373341476 L528.814222,0.0373341476 L527.950025,0.0373341476 L527.950025,0.903555671 L527.950025,91.819568 L527.950025,92.6857896 L528.814222,92.6857896 L581.765333,92.6857896 L582.629531,92.6857896 L582.629531,91.819568 L582.629531,0.903555671 L582.629531,0.0373341476 L581.765333,0.0373341476 Z M528.814222,0.903555671 L581.765333,0.903555671 L581.765333,91.819568 L528.814222,91.819568 L528.814222,0.903555671 Z" id="Fill-12" fill="#FFFFFF" sketch:type="MSShapeGroup"></path>
                    <text id="Stacks" sketch:type="MSTextLayer" font-family="Fira Sans" font-size="10.3703704" font-weight="normal" fill="#FF5C00">
                        <tspan x="540.582173" y="73.0311078">Stacks</tspan>
                    </text>
                    <path d="M436.481975,92.2525922 L529.246667,92.2525922 L529.246667,0.470358287 L436.481975,0.470358287 L436.481975,92.2525922 Z" id="Fill-13" fill="#FFEC62" sketch:type="MSShapeGroup"></path>
                    <path d="M528.814222,0.0373341476 L436.914593,0.0373341476 L436.050395,0.0373341476 L436.050395,0.903555671 L436.050395,91.819568 L436.050395,92.6857896 L436.914593,92.6857896 L528.814222,92.6857896 L529.679284,92.6857896 L529.679284,91.819568 L529.679284,0.903555671 L529.679284,0.0373341476 L528.814222,0.0373341476 Z M436.914593,0.903555671 L528.814222,0.903555671 L528.814222,91.819568 L436.914593,91.819568 L436.914593,0.903555671 Z" id="Fill-14" fill="#FFFFFF" sketch:type="MSShapeGroup"></path>
                    <text id="Social-tagging" sketch:type="MSTextLayer" font-family="Fira Sans" font-size="10.3703704" font-weight="normal" fill="#FF5C00">
                        <tspan x="448.599926" y="73.0311078">Social tagging</tspan>
                    </text>
                    <path d="M373.69284,92.2525922 L437.347037,92.2525922 L437.347037,0.470358287 L373.69284,0.470358287 L373.69284,92.2525922 Z" id="Fill-15" fill="#FFEC62" sketch:type="MSShapeGroup"></path>
                    <path d="M436.914333,0.0373341476 L374.125198,0.0373341476 L373.261,0.0373341476 L373.261,0.903555671 L373.261,91.819568 L373.261,92.6857896 L374.125198,92.6857896 L436.914333,92.6857896 L437.778531,92.6857896 L437.778531,91.819568 L437.778531,0.903555671 L437.778531,0.0373341476 L436.914333,0.0373341476 Z M374.125198,0.903555671 L436.914333,0.903555671 L436.914333,91.819568 L374.125198,91.819568 L374.125198,0.903555671 Z" id="Fill-16" fill="#FFFFFF" sketch:type="MSShapeGroup"></path>
                    <text id="Reviews" sketch:type="MSTextLayer" font-family="Fira Sans" font-size="10.3703704" font-weight="normal" fill="#FF5C00">
                        <tspan x="385.434173" y="73.0311078">Reviews</tspan>
                    </text>
                    <path d="M112.305062,92.2525922 L214.750494,92.2525922 L214.750494,0.470358287 L112.305062,0.470358287 L112.305062,92.2525922 Z" id="Fill-27" fill="#EFEFEF" sketch:type="MSShapeGroup"></path>
                    <path d="M214.317444,0.0373341476 L112.737074,0.0373341476 L111.872877,0.0373341476 L111.872877,0.903555671 L111.872877,91.819568 L111.872877,92.6857896 L112.737074,92.6857896 L214.317444,92.6857896 L215.181642,92.6857896 L215.181642,91.819568 L215.181642,0.903555671 L215.181642,0.0373341476 L214.317444,0.0373341476 Z M112.737074,0.903555671 L214.317444,0.903555671 L214.317444,91.819568 L112.737074,91.819568 L112.737074,0.903555671 Z" id="Fill-28" fill="#FFFFFF" sketch:type="MSShapeGroup"></path>
                    <text id="Publication-year" sketch:type="MSTextLayer" font-family="Fira Sans" font-size="10.3703704" font-weight="normal" fill="#929292">
                        <tspan x="124.365975" y="73.0311078">Publication year</tspan>
                    </text>
                    <path d="M213.885432,92.2525922 L259.348272,92.2525922 L259.348272,0.470358287 L213.885432,0.470358287 L213.885432,92.2525922 Z" id="Fill-29" fill="#EFEFEF" sketch:type="MSShapeGroup"></path>
                    <path d="M258.916778,0.0373341476 L214.317272,0.0373341476 L213.453074,0.0373341476 L213.453074,0.903555671 L213.453074,91.819568 L213.453074,92.6857896 L214.317272,92.6857896 L258.916778,92.6857896 L259.780975,92.6857896 L259.780975,91.819568 L259.780975,0.903555671 L259.780975,0.0373341476 L258.916778,0.0373341476 Z M214.317272,0.903555671 L258.916778,0.903555671 L258.916778,91.819568 L214.317272,91.819568 L214.317272,0.903555671 Z" id="Fill-30" fill="#FFFFFF" sketch:type="MSShapeGroup"></path>
                    <text id="Title" sketch:type="MSTextLayer" font-family="Fira Sans" font-size="10.3703704" font-weight="normal" letter-spacing="-0.444000006" fill="#929292">
                        <tspan x="226.226519" y="73.0311078">Title</tspan>
                    </text>
                    <path d="M258.484074,92.2525922 L322.719012,92.2525922 L322.719012,0.470358287 L258.484074,0.470358287 L258.484074,92.2525922 Z" id="Fill-31" fill="#EFEFEF" sketch:type="MSShapeGroup"></path>
                    <path d="M322.287778,0.0373341476 L258.917037,0.0373341476 L258.05284,0.0373341476 L258.05284,0.903555671 L258.05284,91.819568 L258.05284,92.6857896 L258.917037,92.6857896 L322.287778,92.6857896 L323.151975,92.6857896 L323.151975,91.819568 L323.151975,0.903555671 L323.151975,0.0373341476 L322.287778,0.0373341476 Z M258.917037,0.903555671 L322.287778,0.903555671 L322.287778,91.819568 L258.917037,91.819568 L258.917037,0.903555671 Z" id="Fill-32" fill="#FFFFFF" sketch:type="MSShapeGroup"></path>
                    <text id="Autor(s)" sketch:type="MSTextLayer" font-family="Fira Sans" font-size="10.3703704" font-weight="normal" fill="#929292">
                        <tspan x="270.966889" y="73.0311078">Autor(s)</tspan>
                    </text>
                    <path d="M321.855679,92.2525922 L374.557037,92.2525922 L374.557037,0.470358287 L321.855679,0.470358287 L321.855679,92.2525922 Z" id="Fill-33" fill="#EFEFEF" sketch:type="MSShapeGroup"></path>
                    <path d="M374.125111,0.0373341476 L322.287951,0.0373341476 L321.422889,0.0373341476 L321.422889,0.903555671 L321.422889,91.819568 L321.422889,92.6857896 L322.287951,92.6857896 L374.125111,92.6857896 L374.989309,92.6857896 L374.989309,91.819568 L374.989309,0.903555671 L374.989309,0.0373341476 L374.125111,0.0373341476 Z M322.287951,0.903555671 L374.125111,0.903555671 L374.125111,91.819568 L322.287951,91.819568 L322.287951,0.903555671 Z" id="Fill-34" fill="#FFFFFF" sketch:type="MSShapeGroup"></path>
                    <text id="Cover" sketch:type="MSTextLayer" font-family="Fira Sans" font-size="10.3703704" font-weight="normal" fill="#929292">
                        <tspan x="334.199704" y="73.0311078">Cover</tspan>
                    </text>
                    <path d="M667.997642,25.3090872 L666.269247,25.3090872 L666.269247,13.1819859 L667.997642,13.1819859 L674.918136,19.2455366 L667.997642,25.3090872 Z" id="Fill-41" fill="#FF5C00" sketch:type="MSShapeGroup"></path>
                    <path d="M93.8320617,25.3090872 L92.1036667,25.3090872 L92.1036667,13.1819859 L93.8320617,13.1819859 L100.752556,19.2455366 L93.8320617,25.3090872 Z" id="Fill-42" fill="#FF5C00" sketch:type="MSShapeGroup"></path>
                    <path d="M390.15563,26.8232424 L387.251062,23.5766442 L385.434519,23.5766442 L385.434519,13.1819859 L397.533284,13.1819859 L397.533284,23.5766442 L390.301679,23.5766442 L390.15563,26.8232424 Z" id="Fill-43" fill="#FF5C00" sketch:type="MSShapeGroup"></path>
                    <path d="M593.275926,14.9146022 L610.559877,14.9146022 L610.559877,13.1821591 L593.275926,13.1821591 L593.275926,14.9146022 Z M608.115926,18.3794883 L600.99321,25.5197523 L603.43716,27.9685605 L610.315309,20.5311825 L610.207284,18.3794883 L608.115926,18.3794883 Z M604.659136,18.3794883 L593.275926,18.3794883 L593.275926,20.1119313 L602.930741,20.1119313 L604.659136,18.3794883 Z" id="Fill-44" fill="#FF5C00" sketch:type="MSShapeGroup"></path>
                    <path d="M452.057148,18.3775826 C451.10221,18.379315 450.328753,17.6023143 450.328753,16.646872 C450.328753,15.688831 451.10221,14.9144289 452.057148,14.9144289 C453.012086,14.9144289 453.785543,15.688831 453.784679,16.646872 C453.785543,17.6023143 453.012086,18.379315 452.057148,18.3775826 L452.057148,18.3775826 Z M455.513074,13.1819859 L448.600358,13.1819859 L448.600358,20.1100256 L458.283691,29.8177702 L465.197272,22.8879981 L455.513074,13.1819859 Z" id="Fill-45" fill="#FF5C00" sketch:type="MSShapeGroup"></path>
                    <path d="M547.495062,27.0417035 L540.581481,27.0417035 L540.581481,23.5768174 L547.495062,23.5768174 L547.495062,27.0417035 Z M540.581481,13.1821591 L549.223457,13.1821591 L549.223457,16.6470452 L540.581481,16.6470452 L540.581481,13.1821591 Z M540.581481,18.3794883 L550.951852,18.3794883 L550.951852,21.8443744 L540.581481,21.8443744 L540.581481,18.3794883 Z" id="Fill-47" fill="#FF5C00" sketch:type="MSShapeGroup"></path>
                </g>
            </g>
        </g>
    </g>
</svg>