<?xml version="1.0" encoding="UTF-8" standalone="no"?>
<svg width="786px" height="492px" viewBox="0 0 786 492" version="1.1" xmlns="http://www.w3.org/2000/svg" xmlns:xlink="http://www.w3.org/1999/xlink" xmlns:sketch="http://www.bohemiancoding.com/sketch/ns">
    <!-- Generator: Sketch 3.5.1 (25234) - http://www.bohemiancoding.com/sketch -->
    <title>visibility</title>
    <desc>Created with Sketch.</desc>
    <defs></defs>
    <g id="Page-1" stroke="none" stroke-width="1" fill="none" fill-rule="evenodd" sketch:type="MSPage">
        <g id="Project-–-addictionary" sketch:type="MSArtboardGroup" transform="translate(-60.000000, -1755.000000)">
            <g id="visibility" sketch:type="MSLayerGroup" transform="translate(60.000000, 1751.000000)">
                <g id="Group-14" transform="translate(630.000000, 0.000000)">
                    <text id="Looking-for-people" sketch:type="MSTextLayer" font-family="Fira Sans" font-size="13" font-weight="bold" line-spacing="19" fill="#424242">
                        <tspan x="0" y="15">Looking for people</tspan>
                        <tspan x="0" y="34" font-weight="normal">Connecting with the crowd</tspan>
                    </text>
                    <text id="“I-want-to-do-this-t" sketch:type="MSTextLayer" font-family="Fira Sans" font-size="13" font-weight="normal" line-spacing="19" fill="#9E9E9E">
                        <tspan x="0" y="419">“I want to </tspan>
                        <tspan x="60.307" y="419" font-weight="420">do this thing</tspan>
                        <tspan x="135.096" y="419"> </tspan>
                        <tspan x="0" y="438">with anybody.”</tspan>
                        <tspan x="0" y="457"></tspan>
                        <tspan x="0" y="476">“I want to do something </tspan>
                        <tspan x="0" y="495" font-weight="420">with someone new.</tspan>
                        <tspan x="113.594" y="495">”</tspan>
                    </text>
                    <g id="Group-6" transform="translate(0.000000, 85.000000)" sketch:type="MSShapeGroup">
                        <g id="Group-2" transform="translate(0.000000, 80.000000)" fill="#000000">
                            <g id="person">
                                <path d="M5.51457889,5.25156313 C6.81165994,5.25156313 7.86335971,4.19439699 7.86335971,2.89045854 C7.86335971,1.5865779 6.81165994,0.529411765 5.51457889,0.529411765 C4.21732528,0.529411765 3.16579807,1.5865779 3.16579807,2.89045854 C3.16579807,4.19439699 4.21732528,5.25156313 5.51457889,5.25156313 Z M3.00100263,5.7726297 C1.33769032,5.7726297 8.8817842e-16,7.13623756 8.8817842e-16,8.83704696 L8.8817842e-16,16.0861284 C8.8817842e-16,17.4954712 2.05191894,17.4954712 2.05191894,16.0861284 L2.05191894,9.45762036 L2.53767723,9.45762036 L2.53767723,27.60747 C2.53767723,29.4917975 5.27006042,29.4363489 5.27006042,27.60747 L5.27006042,17.0717143 L5.74069089,17.0717143 L5.74069089,27.60747 C5.74069089,29.4363489 8.48808686,29.4917975 8.48808686,27.60747 L8.48808686,9.45762036 L8.96245614,9.45762036 L8.96245614,16.0861284 C8.96245614,17.5063412 11.0036763,17.5062834 10.999995,16.0861284 L10.999995,8.88041135 C10.999995,7.31206573 9.78838903,5.77586757 7.96212193,5.77586757 L3.00100263,5.7726297 Z" id="Fill-1"></path>
                            </g>
                            <g id="person" transform="translate(17.000000, 0.000000)">
                                <path d="M5.51457889,5.25156313 C6.81165994,5.25156313 7.86335971,4.19439699 7.86335971,2.89045854 C7.86335971,1.5865779 6.81165994,0.529411765 5.51457889,0.529411765 C4.21732528,0.529411765 3.16579807,1.5865779 3.16579807,2.89045854 C3.16579807,4.19439699 4.21732528,5.25156313 5.51457889,5.25156313 Z M3.00100263,5.7726297 C1.33769032,5.7726297 8.8817842e-16,7.13623756 8.8817842e-16,8.83704696 L8.8817842e-16,16.0861284 C8.8817842e-16,17.4954712 2.05191894,17.4954712 2.05191894,16.0861284 L2.05191894,9.45762036 L2.53767723,9.45762036 L2.53767723,27.60747 C2.53767723,29.4917975 5.27006042,29.4363489 5.27006042,27.60747 L5.27006042,17.0717143 L5.74069089,17.0717143 L5.74069089,27.60747 C5.74069089,29.4363489 8.48808686,29.4917975 8.48808686,27.60747 L8.48808686,9.45762036 L8.96245614,9.45762036 L8.96245614,16.0861284 C8.96245614,17.5063412 11.0036763,17.5062834 10.999995,16.0861284 L10.999995,8.88041135 C10.999995,7.31206573 9.78838903,5.77586757 7.96212193,5.77586757 L3.00100263,5.7726297 Z" id="Fill-1"></path>
                            </g>
                            <g id="person" transform="translate(34.000000, 0.000000)">
                                <path d="M5.51457889,5.25156313 C6.81165994,5.25156313 7.86335971,4.19439699 7.86335971,2.89045854 C7.86335971,1.5865779 6.81165994,0.529411765 5.51457889,0.529411765 C4.21732528,0.529411765 3.16579807,1.5865779 3.16579807,2.89045854 C3.16579807,4.19439699 4.21732528,5.25156313 5.51457889,5.25156313 Z M3.00100263,5.7726297 C1.33769032,5.7726297 8.8817842e-16,7.13623756 8.8817842e-16,8.83704696 L8.8817842e-16,16.0861284 C8.8817842e-16,17.4954712 2.05191894,17.4954712 2.05191894,16.0861284 L2.05191894,9.45762036 L2.53767723,9.45762036 L2.53767723,27.60747 C2.53767723,29.4917975 5.27006042,29.4363489 5.27006042,27.60747 L5.27006042,17.0717143 L5.74069089,17.0717143 L5.74069089,27.60747 C5.74069089,29.4363489 8.48808686,29.4917975 8.48808686,27.60747 L8.48808686,9.45762036 L8.96245614,9.45762036 L8.96245614,16.0861284 C8.96245614,17.5063412 11.0036763,17.5062834 10.999995,16.0861284 L10.999995,8.88041135 C10.999995,7.31206573 9.78838903,5.77586757 7.96212193,5.77586757 L3.00100263,5.7726297 Z" id="Fill-1"></path>
                            </g>
                            <g id="person" transform="translate(51.000000, 0.000000)">
                                <path d="M5.51457889,5.25156313 C6.81165994,5.25156313 7.86335971,4.19439699 7.86335971,2.89045854 C7.86335971,1.5865779 6.81165994,0.529411765 5.51457889,0.529411765 C4.21732528,0.529411765 3.16579807,1.5865779 3.16579807,2.89045854 C3.16579807,4.19439699 4.21732528,5.25156313 5.51457889,5.25156313 Z M3.00100263,5.7726297 C1.33769032,5.7726297 8.8817842e-16,7.13623756 8.8817842e-16,8.83704696 L8.8817842e-16,16.0861284 C8.8817842e-16,17.4954712 2.05191894,17.4954712 2.05191894,16.0861284 L2.05191894,9.45762036 L2.53767723,9.45762036 L2.53767723,27.60747 C2.53767723,29.4917975 5.27006042,29.4363489 5.27006042,27.60747 L5.27006042,17.0717143 L5.74069089,17.0717143 L5.74069089,27.60747 C5.74069089,29.4363489 8.48808686,29.4917975 8.48808686,27.60747 L8.48808686,9.45762036 L8.96245614,9.45762036 L8.96245614,16.0861284 C8.96245614,17.5063412 11.0036763,17.5062834 10.999995,16.0861284 L10.999995,8.88041135 C10.999995,7.31206573 9.78838903,5.77586757 7.96212193,5.77586757 L3.00100263,5.7726297 Z" id="Fill-1"></path>
                            </g>
                            <g id="person" transform="translate(68.000000, 0.000000)">
                                <path d="M5.51457889,5.25156313 C6.81165994,5.25156313 7.86335971,4.19439699 7.86335971,2.89045854 C7.86335971,1.5865779 6.81165994,0.529411765 5.51457889,0.529411765 C4.21732528,0.529411765 3.16579807,1.5865779 3.16579807,2.89045854 C3.16579807,4.19439699 4.21732528,5.25156313 5.51457889,5.25156313 Z M3.00100263,5.7726297 C1.33769032,5.7726297 8.8817842e-16,7.13623756 8.8817842e-16,8.83704696 L8.8817842e-16,16.0861284 C8.8817842e-16,17.4954712 2.05191894,17.4954712 2.05191894,16.0861284 L2.05191894,9.45762036 L2.53767723,9.45762036 L2.53767723,27.60747 C2.53767723,29.4917975 5.27006042,29.4363489 5.27006042,27.60747 L5.27006042,17.0717143 L5.74069089,17.0717143 L5.74069089,27.60747 C5.74069089,29.4363489 8.48808686,29.4917975 8.48808686,27.60747 L8.48808686,9.45762036 L8.96245614,9.45762036 L8.96245614,16.0861284 C8.96245614,17.5063412 11.0036763,17.5062834 10.999995,16.0861284 L10.999995,8.88041135 C10.999995,7.31206573 9.78838903,5.77586757 7.96212193,5.77586757 L3.00100263,5.7726297 Z" id="Fill-1"></path>
                            </g>
                            <g id="person" transform="translate(85.000000, 0.000000)">
                                <path d="M5.51457889,5.25156313 C6.81165994,5.25156313 7.86335971,4.19439699 7.86335971,2.89045854 C7.86335971,1.5865779 6.81165994,0.529411765 5.51457889,0.529411765 C4.21732528,0.529411765 3.16579807,1.5865779 3.16579807,2.89045854 C3.16579807,4.19439699 4.21732528,5.25156313 5.51457889,5.25156313 Z M3.00100263,5.7726297 C1.33769032,5.7726297 8.8817842e-16,7.13623756 8.8817842e-16,8.83704696 L8.8817842e-16,16.0861284 C8.8817842e-16,17.4954712 2.05191894,17.4954712 2.05191894,16.0861284 L2.05191894,9.45762036 L2.53767723,9.45762036 L2.53767723,27.60747 C2.53767723,29.4917975 5.27006042,29.4363489 5.27006042,27.60747 L5.27006042,17.0717143 L5.74069089,17.0717143 L5.74069089,27.60747 C5.74069089,29.4363489 8.48808686,29.4917975 8.48808686,27.60747 L8.48808686,9.45762036 L8.96245614,9.45762036 L8.96245614,16.0861284 C8.96245614,17.5063412 11.0036763,17.5062834 10.999995,16.0861284 L10.999995,8.88041135 C10.999995,7.31206573 9.78838903,5.77586757 7.96212193,5.77586757 L3.00100263,5.7726297 Z" id="Fill-1"></path>
                            </g>
                            <g id="person" transform="translate(102.000000, 0.000000)">
                                <path d="M5.51457889,5.25156313 C6.81165994,5.25156313 7.86335971,4.19439699 7.86335971,2.89045854 C7.86335971,1.5865779 6.81165994,0.529411765 5.51457889,0.529411765 C4.21732528,0.529411765 3.16579807,1.5865779 3.16579807,2.89045854 C3.16579807,4.19439699 4.21732528,5.25156313 5.51457889,5.25156313 Z M3.00100263,5.7726297 C1.33769032,5.7726297 8.8817842e-16,7.13623756 8.8817842e-16,8.83704696 L8.8817842e-16,16.0861284 C8.8817842e-16,17.4954712 2.05191894,17.4954712 2.05191894,16.0861284 L2.05191894,9.45762036 L2.53767723,9.45762036 L2.53767723,27.60747 C2.53767723,29.4917975 5.27006042,29.4363489 5.27006042,27.60747 L5.27006042,17.0717143 L5.74069089,17.0717143 L5.74069089,27.60747 C5.74069089,29.4363489 8.48808686,29.4917975 8.48808686,27.60747 L8.48808686,9.45762036 L8.96245614,9.45762036 L8.96245614,16.0861284 C8.96245614,17.5063412 11.0036763,17.5062834 10.999995,16.0861284 L10.999995,8.88041135 C10.999995,7.31206573 9.78838903,5.77586757 7.96212193,5.77586757 L3.00100263,5.7726297 Z" id="Fill-1"></path>
                            </g>
                        </g>
                        <g id="Group-2" transform="translate(0.000000, 122.000000)" fill="#000000">
                            <g id="person">
                                <path d="M5.51457889,5.25156313 C6.81165994,5.25156313 7.86335971,4.19439699 7.86335971,2.89045854 C7.86335971,1.5865779 6.81165994,0.529411765 5.51457889,0.529411765 C4.21732528,0.529411765 3.16579807,1.5865779 3.16579807,2.89045854 C3.16579807,4.19439699 4.21732528,5.25156313 5.51457889,5.25156313 Z M3.00100263,5.7726297 C1.33769032,5.7726297 8.8817842e-16,7.13623756 8.8817842e-16,8.83704696 L8.8817842e-16,16.0861284 C8.8817842e-16,17.4954712 2.05191894,17.4954712 2.05191894,16.0861284 L2.05191894,9.45762036 L2.53767723,9.45762036 L2.53767723,27.60747 C2.53767723,29.4917975 5.27006042,29.4363489 5.27006042,27.60747 L5.27006042,17.0717143 L5.74069089,17.0717143 L5.74069089,27.60747 C5.74069089,29.4363489 8.48808686,29.4917975 8.48808686,27.60747 L8.48808686,9.45762036 L8.96245614,9.45762036 L8.96245614,16.0861284 C8.96245614,17.5063412 11.0036763,17.5062834 10.999995,16.0861284 L10.999995,8.88041135 C10.999995,7.31206573 9.78838903,5.77586757 7.96212193,5.77586757 L3.00100263,5.7726297 Z" id="Fill-1"></path>
                            </g>
                            <g id="person" transform="translate(17.000000, 0.000000)">
                                <path d="M5.51457889,5.25156313 C6.81165994,5.25156313 7.86335971,4.19439699 7.86335971,2.89045854 C7.86335971,1.5865779 6.81165994,0.529411765 5.51457889,0.529411765 C4.21732528,0.529411765 3.16579807,1.5865779 3.16579807,2.89045854 C3.16579807,4.19439699 4.21732528,5.25156313 5.51457889,5.25156313 Z M3.00100263,5.7726297 C1.33769032,5.7726297 8.8817842e-16,7.13623756 8.8817842e-16,8.83704696 L8.8817842e-16,16.0861284 C8.8817842e-16,17.4954712 2.05191894,17.4954712 2.05191894,16.0861284 L2.05191894,9.45762036 L2.53767723,9.45762036 L2.53767723,27.60747 C2.53767723,29.4917975 5.27006042,29.4363489 5.27006042,27.60747 L5.27006042,17.0717143 L5.74069089,17.0717143 L5.74069089,27.60747 C5.74069089,29.4363489 8.48808686,29.4917975 8.48808686,27.60747 L8.48808686,9.45762036 L8.96245614,9.45762036 L8.96245614,16.0861284 C8.96245614,17.5063412 11.0036763,17.5062834 10.999995,16.0861284 L10.999995,8.88041135 C10.999995,7.31206573 9.78838903,5.77586757 7.96212193,5.77586757 L3.00100263,5.7726297 Z" id="Fill-1"></path>
                            </g>
                            <g id="person" transform="translate(34.000000, 0.000000)">
                                <path d="M5.51457889,5.25156313 C6.81165994,5.25156313 7.86335971,4.19439699 7.86335971,2.89045854 C7.86335971,1.5865779 6.81165994,0.529411765 5.51457889,0.529411765 C4.21732528,0.529411765 3.16579807,1.5865779 3.16579807,2.89045854 C3.16579807,4.19439699 4.21732528,5.25156313 5.51457889,5.25156313 Z M3.00100263,5.7726297 C1.33769032,5.7726297 8.8817842e-16,7.13623756 8.8817842e-16,8.83704696 L8.8817842e-16,16.0861284 C8.8817842e-16,17.4954712 2.05191894,17.4954712 2.05191894,16.0861284 L2.05191894,9.45762036 L2.53767723,9.45762036 L2.53767723,27.60747 C2.53767723,29.4917975 5.27006042,29.4363489 5.27006042,27.60747 L5.27006042,17.0717143 L5.74069089,17.0717143 L5.74069089,27.60747 C5.74069089,29.4363489 8.48808686,29.4917975 8.48808686,27.60747 L8.48808686,9.45762036 L8.96245614,9.45762036 L8.96245614,16.0861284 C8.96245614,17.5063412 11.0036763,17.5062834 10.999995,16.0861284 L10.999995,8.88041135 C10.999995,7.31206573 9.78838903,5.77586757 7.96212193,5.77586757 L3.00100263,5.7726297 Z" id="Fill-1"></path>
                            </g>
                            <g id="person" transform="translate(51.000000, 0.000000)">
                                <path d="M5.51457889,5.25156313 C6.81165994,5.25156313 7.86335971,4.19439699 7.86335971,2.89045854 C7.86335971,1.5865779 6.81165994,0.529411765 5.51457889,0.529411765 C4.21732528,0.529411765 3.16579807,1.5865779 3.16579807,2.89045854 C3.16579807,4.19439699 4.21732528,5.25156313 5.51457889,5.25156313 Z M3.00100263,5.7726297 C1.33769032,5.7726297 8.8817842e-16,7.13623756 8.8817842e-16,8.83704696 L8.8817842e-16,16.0861284 C8.8817842e-16,17.4954712 2.05191894,17.4954712 2.05191894,16.0861284 L2.05191894,9.45762036 L2.53767723,9.45762036 L2.53767723,27.60747 C2.53767723,29.4917975 5.27006042,29.4363489 5.27006042,27.60747 L5.27006042,17.0717143 L5.74069089,17.0717143 L5.74069089,27.60747 C5.74069089,29.4363489 8.48808686,29.4917975 8.48808686,27.60747 L8.48808686,9.45762036 L8.96245614,9.45762036 L8.96245614,16.0861284 C8.96245614,17.5063412 11.0036763,17.5062834 10.999995,16.0861284 L10.999995,8.88041135 C10.999995,7.31206573 9.78838903,5.77586757 7.96212193,5.77586757 L3.00100263,5.7726297 Z" id="Fill-1"></path>
                            </g>
                            <g id="person" transform="translate(68.000000, 0.000000)">
                                <path d="M5.51457889,5.25156313 C6.81165994,5.25156313 7.86335971,4.19439699 7.86335971,2.89045854 C7.86335971,1.5865779 6.81165994,0.529411765 5.51457889,0.529411765 C4.21732528,0.529411765 3.16579807,1.5865779 3.16579807,2.89045854 C3.16579807,4.19439699 4.21732528,5.25156313 5.51457889,5.25156313 Z M3.00100263,5.7726297 C1.33769032,5.7726297 8.8817842e-16,7.13623756 8.8817842e-16,8.83704696 L8.8817842e-16,16.0861284 C8.8817842e-16,17.4954712 2.05191894,17.4954712 2.05191894,16.0861284 L2.05191894,9.45762036 L2.53767723,9.45762036 L2.53767723,27.60747 C2.53767723,29.4917975 5.27006042,29.4363489 5.27006042,27.60747 L5.27006042,17.0717143 L5.74069089,17.0717143 L5.74069089,27.60747 C5.74069089,29.4363489 8.48808686,29.4917975 8.48808686,27.60747 L8.48808686,9.45762036 L8.96245614,9.45762036 L8.96245614,16.0861284 C8.96245614,17.5063412 11.0036763,17.5062834 10.999995,16.0861284 L10.999995,8.88041135 C10.999995,7.31206573 9.78838903,5.77586757 7.96212193,5.77586757 L3.00100263,5.7726297 Z" id="Fill-1"></path>
                            </g>
                            <g id="person" transform="translate(85.000000, 0.000000)">
                                <path d="M5.51457889,5.25156313 C6.81165994,5.25156313 7.86335971,4.19439699 7.86335971,2.89045854 C7.86335971,1.5865779 6.81165994,0.529411765 5.51457889,0.529411765 C4.21732528,0.529411765 3.16579807,1.5865779 3.16579807,2.89045854 C3.16579807,4.19439699 4.21732528,5.25156313 5.51457889,5.25156313 Z M3.00100263,5.7726297 C1.33769032,5.7726297 8.8817842e-16,7.13623756 8.8817842e-16,8.83704696 L8.8817842e-16,16.0861284 C8.8817842e-16,17.4954712 2.05191894,17.4954712 2.05191894,16.0861284 L2.05191894,9.45762036 L2.53767723,9.45762036 L2.53767723,27.60747 C2.53767723,29.4917975 5.27006042,29.4363489 5.27006042,27.60747 L5.27006042,17.0717143 L5.74069089,17.0717143 L5.74069089,27.60747 C5.74069089,29.4363489 8.48808686,29.4917975 8.48808686,27.60747 L8.48808686,9.45762036 L8.96245614,9.45762036 L8.96245614,16.0861284 C8.96245614,17.5063412 11.0036763,17.5062834 10.999995,16.0861284 L10.999995,8.88041135 C10.999995,7.31206573 9.78838903,5.77586757 7.96212193,5.77586757 L3.00100263,5.7726297 Z" id="Fill-1"></path>
                            </g>
                            <g id="person" transform="translate(102.000000, 0.000000)">
                                <path d="M5.51457889,5.25156313 C6.81165994,5.25156313 7.86335971,4.19439699 7.86335971,2.89045854 C7.86335971,1.5865779 6.81165994,0.529411765 5.51457889,0.529411765 C4.21732528,0.529411765 3.16579807,1.5865779 3.16579807,2.89045854 C3.16579807,4.19439699 4.21732528,5.25156313 5.51457889,5.25156313 Z M3.00100263,5.7726297 C1.33769032,5.7726297 8.8817842e-16,7.13623756 8.8817842e-16,8.83704696 L8.8817842e-16,16.0861284 C8.8817842e-16,17.4954712 2.05191894,17.4954712 2.05191894,16.0861284 L2.05191894,9.45762036 L2.53767723,9.45762036 L2.53767723,27.60747 C2.53767723,29.4917975 5.27006042,29.4363489 5.27006042,27.60747 L5.27006042,17.0717143 L5.74069089,17.0717143 L5.74069089,27.60747 C5.74069089,29.4363489 8.48808686,29.4917975 8.48808686,27.60747 L8.48808686,9.45762036 L8.96245614,9.45762036 L8.96245614,16.0861284 C8.96245614,17.5063412 11.0036763,17.5062834 10.999995,16.0861284 L10.999995,8.88041135 C10.999995,7.31206573 9.78838903,5.77586757 7.96212193,5.77586757 L3.00100263,5.7726297 Z" id="Fill-1"></path>
                            </g>
                        </g>
                        <g id="Group-2" transform="translate(0.000000, 164.000000)" fill="#000000">
                            <g id="person">
                                <path d="M5.51457889,5.25156313 C6.81165994,5.25156313 7.86335971,4.19439699 7.86335971,2.89045854 C7.86335971,1.5865779 6.81165994,0.529411765 5.51457889,0.529411765 C4.21732528,0.529411765 3.16579807,1.5865779 3.16579807,2.89045854 C3.16579807,4.19439699 4.21732528,5.25156313 5.51457889,5.25156313 Z M3.00100263,5.7726297 C1.33769032,5.7726297 8.8817842e-16,7.13623756 8.8817842e-16,8.83704696 L8.8817842e-16,16.0861284 C8.8817842e-16,17.4954712 2.05191894,17.4954712 2.05191894,16.0861284 L2.05191894,9.45762036 L2.53767723,9.45762036 L2.53767723,27.60747 C2.53767723,29.4917975 5.27006042,29.4363489 5.27006042,27.60747 L5.27006042,17.0717143 L5.74069089,17.0717143 L5.74069089,27.60747 C5.74069089,29.4363489 8.48808686,29.4917975 8.48808686,27.60747 L8.48808686,9.45762036 L8.96245614,9.45762036 L8.96245614,16.0861284 C8.96245614,17.5063412 11.0036763,17.5062834 10.999995,16.0861284 L10.999995,8.88041135 C10.999995,7.31206573 9.78838903,5.77586757 7.96212193,5.77586757 L3.00100263,5.7726297 Z" id="Fill-1"></path>
                            </g>
                            <g id="person" transform="translate(17.000000, 0.000000)">
                                <path d="M5.51457889,5.25156313 C6.81165994,5.25156313 7.86335971,4.19439699 7.86335971,2.89045854 C7.86335971,1.5865779 6.81165994,0.529411765 5.51457889,0.529411765 C4.21732528,0.529411765 3.16579807,1.5865779 3.16579807,2.89045854 C3.16579807,4.19439699 4.21732528,5.25156313 5.51457889,5.25156313 Z M3.00100263,5.7726297 C1.33769032,5.7726297 8.8817842e-16,7.13623756 8.8817842e-16,8.83704696 L8.8817842e-16,16.0861284 C8.8817842e-16,17.4954712 2.05191894,17.4954712 2.05191894,16.0861284 L2.05191894,9.45762036 L2.53767723,9.45762036 L2.53767723,27.60747 C2.53767723,29.4917975 5.27006042,29.4363489 5.27006042,27.60747 L5.27006042,17.0717143 L5.74069089,17.0717143 L5.74069089,27.60747 C5.74069089,29.4363489 8.48808686,29.4917975 8.48808686,27.60747 L8.48808686,9.45762036 L8.96245614,9.45762036 L8.96245614,16.0861284 C8.96245614,17.5063412 11.0036763,17.5062834 10.999995,16.0861284 L10.999995,8.88041135 C10.999995,7.31206573 9.78838903,5.77586757 7.96212193,5.77586757 L3.00100263,5.7726297 Z" id="Fill-1"></path>
                            </g>
                            <g id="person" transform="translate(34.000000, 0.000000)">
                                <path d="M5.51457889,5.25156313 C6.81165994,5.25156313 7.86335971,4.19439699 7.86335971,2.89045854 C7.86335971,1.5865779 6.81165994,0.529411765 5.51457889,0.529411765 C4.21732528,0.529411765 3.16579807,1.5865779 3.16579807,2.89045854 C3.16579807,4.19439699 4.21732528,5.25156313 5.51457889,5.25156313 Z M3.00100263,5.7726297 C1.33769032,5.7726297 8.8817842e-16,7.13623756 8.8817842e-16,8.83704696 L8.8817842e-16,16.0861284 C8.8817842e-16,17.4954712 2.05191894,17.4954712 2.05191894,16.0861284 L2.05191894,9.45762036 L2.53767723,9.45762036 L2.53767723,27.60747 C2.53767723,29.4917975 5.27006042,29.4363489 5.27006042,27.60747 L5.27006042,17.0717143 L5.74069089,17.0717143 L5.74069089,27.60747 C5.74069089,29.4363489 8.48808686,29.4917975 8.48808686,27.60747 L8.48808686,9.45762036 L8.96245614,9.45762036 L8.96245614,16.0861284 C8.96245614,17.5063412 11.0036763,17.5062834 10.999995,16.0861284 L10.999995,8.88041135 C10.999995,7.31206573 9.78838903,5.77586757 7.96212193,5.77586757 L3.00100263,5.7726297 Z" id="Fill-1"></path>
                            </g>
                            <g id="person" transform="translate(51.000000, 0.000000)">
                                <path d="M5.51457889,5.25156313 C6.81165994,5.25156313 7.86335971,4.19439699 7.86335971,2.89045854 C7.86335971,1.5865779 6.81165994,0.529411765 5.51457889,0.529411765 C4.21732528,0.529411765 3.16579807,1.5865779 3.16579807,2.89045854 C3.16579807,4.19439699 4.21732528,5.25156313 5.51457889,5.25156313 Z M3.00100263,5.7726297 C1.33769032,5.7726297 8.8817842e-16,7.13623756 8.8817842e-16,8.83704696 L8.8817842e-16,16.0861284 C8.8817842e-16,17.4954712 2.05191894,17.4954712 2.05191894,16.0861284 L2.05191894,9.45762036 L2.53767723,9.45762036 L2.53767723,27.60747 C2.53767723,29.4917975 5.27006042,29.4363489 5.27006042,27.60747 L5.27006042,17.0717143 L5.74069089,17.0717143 L5.74069089,27.60747 C5.74069089,29.4363489 8.48808686,29.4917975 8.48808686,27.60747 L8.48808686,9.45762036 L8.96245614,9.45762036 L8.96245614,16.0861284 C8.96245614,17.5063412 11.0036763,17.5062834 10.999995,16.0861284 L10.999995,8.88041135 C10.999995,7.31206573 9.78838903,5.77586757 7.96212193,5.77586757 L3.00100263,5.7726297 Z" id="Fill-1"></path>
                            </g>
                            <g id="person" transform="translate(68.000000, 0.000000)">
                                <path d="M5.51457889,5.25156313 C6.81165994,5.25156313 7.86335971,4.19439699 7.86335971,2.89045854 C7.86335971,1.5865779 6.81165994,0.529411765 5.51457889,0.529411765 C4.21732528,0.529411765 3.16579807,1.5865779 3.16579807,2.89045854 C3.16579807,4.19439699 4.21732528,5.25156313 5.51457889,5.25156313 Z M3.00100263,5.7726297 C1.33769032,5.7726297 8.8817842e-16,7.13623756 8.8817842e-16,8.83704696 L8.8817842e-16,16.0861284 C8.8817842e-16,17.4954712 2.05191894,17.4954712 2.05191894,16.0861284 L2.05191894,9.45762036 L2.53767723,9.45762036 L2.53767723,27.60747 C2.53767723,29.4917975 5.27006042,29.4363489 5.27006042,27.60747 L5.27006042,17.0717143 L5.74069089,17.0717143 L5.74069089,27.60747 C5.74069089,29.4363489 8.48808686,29.4917975 8.48808686,27.60747 L8.48808686,9.45762036 L8.96245614,9.45762036 L8.96245614,16.0861284 C8.96245614,17.5063412 11.0036763,17.5062834 10.999995,16.0861284 L10.999995,8.88041135 C10.999995,7.31206573 9.78838903,5.77586757 7.96212193,5.77586757 L3.00100263,5.7726297 Z" id="Fill-1"></path>
                            </g>
                            <g id="person" transform="translate(85.000000, 0.000000)">
                                <path d="M5.51457889,5.25156313 C6.81165994,5.25156313 7.86335971,4.19439699 7.86335971,2.89045854 C7.86335971,1.5865779 6.81165994,0.529411765 5.51457889,0.529411765 C4.21732528,0.529411765 3.16579807,1.5865779 3.16579807,2.89045854 C3.16579807,4.19439699 4.21732528,5.25156313 5.51457889,5.25156313 Z M3.00100263,5.7726297 C1.33769032,5.7726297 8.8817842e-16,7.13623756 8.8817842e-16,8.83704696 L8.8817842e-16,16.0861284 C8.8817842e-16,17.4954712 2.05191894,17.4954712 2.05191894,16.0861284 L2.05191894,9.45762036 L2.53767723,9.45762036 L2.53767723,27.60747 C2.53767723,29.4917975 5.27006042,29.4363489 5.27006042,27.60747 L5.27006042,17.0717143 L5.74069089,17.0717143 L5.74069089,27.60747 C5.74069089,29.4363489 8.48808686,29.4917975 8.48808686,27.60747 L8.48808686,9.45762036 L8.96245614,9.45762036 L8.96245614,16.0861284 C8.96245614,17.5063412 11.0036763,17.5062834 10.999995,16.0861284 L10.999995,8.88041135 C10.999995,7.31206573 9.78838903,5.77586757 7.96212193,5.77586757 L3.00100263,5.7726297 Z" id="Fill-1"></path>
                            </g>
                            <g id="person" transform="translate(102.000000, 0.000000)">
                                <path d="M5.51457889,5.25156313 C6.81165994,5.25156313 7.86335971,4.19439699 7.86335971,2.89045854 C7.86335971,1.5865779 6.81165994,0.529411765 5.51457889,0.529411765 C4.21732528,0.529411765 3.16579807,1.5865779 3.16579807,2.89045854 C3.16579807,4.19439699 4.21732528,5.25156313 5.51457889,5.25156313 Z M3.00100263,5.7726297 C1.33769032,5.7726297 8.8817842e-16,7.13623756 8.8817842e-16,8.83704696 L8.8817842e-16,16.0861284 C8.8817842e-16,17.4954712 2.05191894,17.4954712 2.05191894,16.0861284 L2.05191894,9.45762036 L2.53767723,9.45762036 L2.53767723,27.60747 C2.53767723,29.4917975 5.27006042,29.4363489 5.27006042,27.60747 L5.27006042,17.0717143 L5.74069089,17.0717143 L5.74069089,27.60747 C5.74069089,29.4363489 8.48808686,29.4917975 8.48808686,27.60747 L8.48808686,9.45762036 L8.96245614,9.45762036 L8.96245614,16.0861284 C8.96245614,17.5063412 11.0036763,17.5062834 10.999995,16.0861284 L10.999995,8.88041135 C10.999995,7.31206573 9.78838903,5.77586757 7.96212193,5.77586757 L3.00100263,5.7726297 Z" id="Fill-1"></path>
                            </g>
                        </g>
                        <g id="Group-2" transform="translate(0.000000, 204.000000)" fill="#000000">
                            <g id="person">
                                <path d="M5.51457889,5.25156313 C6.81165994,5.25156313 7.86335971,4.19439699 7.86335971,2.89045854 C7.86335971,1.5865779 6.81165994,0.529411765 5.51457889,0.529411765 C4.21732528,0.529411765 3.16579807,1.5865779 3.16579807,2.89045854 C3.16579807,4.19439699 4.21732528,5.25156313 5.51457889,5.25156313 Z M3.00100263,5.7726297 C1.33769032,5.7726297 8.8817842e-16,7.13623756 8.8817842e-16,8.83704696 L8.8817842e-16,16.0861284 C8.8817842e-16,17.4954712 2.05191894,17.4954712 2.05191894,16.0861284 L2.05191894,9.45762036 L2.53767723,9.45762036 L2.53767723,27.60747 C2.53767723,29.4917975 5.27006042,29.4363489 5.27006042,27.60747 L5.27006042,17.0717143 L5.74069089,17.0717143 L5.74069089,27.60747 C5.74069089,29.4363489 8.48808686,29.4917975 8.48808686,27.60747 L8.48808686,9.45762036 L8.96245614,9.45762036 L8.96245614,16.0861284 C8.96245614,17.5063412 11.0036763,17.5062834 10.999995,16.0861284 L10.999995,8.88041135 C10.999995,7.31206573 9.78838903,5.77586757 7.96212193,5.77586757 L3.00100263,5.7726297 Z" id="Fill-1"></path>
                            </g>
                            <g id="person" transform="translate(17.000000, 0.000000)">
                                <path d="M5.51457889,5.25156313 C6.81165994,5.25156313 7.86335971,4.19439699 7.86335971,2.89045854 C7.86335971,1.5865779 6.81165994,0.529411765 5.51457889,0.529411765 C4.21732528,0.529411765 3.16579807,1.5865779 3.16579807,2.89045854 C3.16579807,4.19439699 4.21732528,5.25156313 5.51457889,5.25156313 Z M3.00100263,5.7726297 C1.33769032,5.7726297 8.8817842e-16,7.13623756 8.8817842e-16,8.83704696 L8.8817842e-16,16.0861284 C8.8817842e-16,17.4954712 2.05191894,17.4954712 2.05191894,16.0861284 L2.05191894,9.45762036 L2.53767723,9.45762036 L2.53767723,27.60747 C2.53767723,29.4917975 5.27006042,29.4363489 5.27006042,27.60747 L5.27006042,17.0717143 L5.74069089,17.0717143 L5.74069089,27.60747 C5.74069089,29.4363489 8.48808686,29.4917975 8.48808686,27.60747 L8.48808686,9.45762036 L8.96245614,9.45762036 L8.96245614,16.0861284 C8.96245614,17.5063412 11.0036763,17.5062834 10.999995,16.0861284 L10.999995,8.88041135 C10.999995,7.31206573 9.78838903,5.77586757 7.96212193,5.77586757 L3.00100263,5.7726297 Z" id="Fill-1"></path>
                            </g>
                            <g id="person" transform="translate(34.000000, 0.000000)">
                                <path d="M5.51457889,5.25156313 C6.81165994,5.25156313 7.86335971,4.19439699 7.86335971,2.89045854 C7.86335971,1.5865779 6.81165994,0.529411765 5.51457889,0.529411765 C4.21732528,0.529411765 3.16579807,1.5865779 3.16579807,2.89045854 C3.16579807,4.19439699 4.21732528,5.25156313 5.51457889,5.25156313 Z M3.00100263,5.7726297 C1.33769032,5.7726297 8.8817842e-16,7.13623756 8.8817842e-16,8.83704696 L8.8817842e-16,16.0861284 C8.8817842e-16,17.4954712 2.05191894,17.4954712 2.05191894,16.0861284 L2.05191894,9.45762036 L2.53767723,9.45762036 L2.53767723,27.60747 C2.53767723,29.4917975 5.27006042,29.4363489 5.27006042,27.60747 L5.27006042,17.0717143 L5.74069089,17.0717143 L5.74069089,27.60747 C5.74069089,29.4363489 8.48808686,29.4917975 8.48808686,27.60747 L8.48808686,9.45762036 L8.96245614,9.45762036 L8.96245614,16.0861284 C8.96245614,17.5063412 11.0036763,17.5062834 10.999995,16.0861284 L10.999995,8.88041135 C10.999995,7.31206573 9.78838903,5.77586757 7.96212193,5.77586757 L3.00100263,5.7726297 Z" id="Fill-1"></path>
                            </g>
                            <g id="person" transform="translate(51.000000, 0.000000)">
                                <path d="M5.51457889,5.25156313 C6.81165994,5.25156313 7.86335971,4.19439699 7.86335971,2.89045854 C7.86335971,1.5865779 6.81165994,0.529411765 5.51457889,0.529411765 C4.21732528,0.529411765 3.16579807,1.5865779 3.16579807,2.89045854 C3.16579807,4.19439699 4.21732528,5.25156313 5.51457889,5.25156313 Z M3.00100263,5.7726297 C1.33769032,5.7726297 8.8817842e-16,7.13623756 8.8817842e-16,8.83704696 L8.8817842e-16,16.0861284 C8.8817842e-16,17.4954712 2.05191894,17.4954712 2.05191894,16.0861284 L2.05191894,9.45762036 L2.53767723,9.45762036 L2.53767723,27.60747 C2.53767723,29.4917975 5.27006042,29.4363489 5.27006042,27.60747 L5.27006042,17.0717143 L5.74069089,17.0717143 L5.74069089,27.60747 C5.74069089,29.4363489 8.48808686,29.4917975 8.48808686,27.60747 L8.48808686,9.45762036 L8.96245614,9.45762036 L8.96245614,16.0861284 C8.96245614,17.5063412 11.0036763,17.5062834 10.999995,16.0861284 L10.999995,8.88041135 C10.999995,7.31206573 9.78838903,5.77586757 7.96212193,5.77586757 L3.00100263,5.7726297 Z" id="Fill-1"></path>
                            </g>
                            <g id="person" transform="translate(68.000000, 0.000000)">
                                <path d="M5.51457889,5.25156313 C6.81165994,5.25156313 7.86335971,4.19439699 7.86335971,2.89045854 C7.86335971,1.5865779 6.81165994,0.529411765 5.51457889,0.529411765 C4.21732528,0.529411765 3.16579807,1.5865779 3.16579807,2.89045854 C3.16579807,4.19439699 4.21732528,5.25156313 5.51457889,5.25156313 Z M3.00100263,5.7726297 C1.33769032,5.7726297 8.8817842e-16,7.13623756 8.8817842e-16,8.83704696 L8.8817842e-16,16.0861284 C8.8817842e-16,17.4954712 2.05191894,17.4954712 2.05191894,16.0861284 L2.05191894,9.45762036 L2.53767723,9.45762036 L2.53767723,27.60747 C2.53767723,29.4917975 5.27006042,29.4363489 5.27006042,27.60747 L5.27006042,17.0717143 L5.74069089,17.0717143 L5.74069089,27.60747 C5.74069089,29.4363489 8.48808686,29.4917975 8.48808686,27.60747 L8.48808686,9.45762036 L8.96245614,9.45762036 L8.96245614,16.0861284 C8.96245614,17.5063412 11.0036763,17.5062834 10.999995,16.0861284 L10.999995,8.88041135 C10.999995,7.31206573 9.78838903,5.77586757 7.96212193,5.77586757 L3.00100263,5.7726297 Z" id="Fill-1"></path>
                            </g>
                            <g id="person" transform="translate(85.000000, 0.000000)">
                                <path d="M5.51457889,5.25156313 C6.81165994,5.25156313 7.86335971,4.19439699 7.86335971,2.89045854 C7.86335971,1.5865779 6.81165994,0.529411765 5.51457889,0.529411765 C4.21732528,0.529411765 3.16579807,1.5865779 3.16579807,2.89045854 C3.16579807,4.19439699 4.21732528,5.25156313 5.51457889,5.25156313 Z M3.00100263,5.7726297 C1.33769032,5.7726297 8.8817842e-16,7.13623756 8.8817842e-16,8.83704696 L8.8817842e-16,16.0861284 C8.8817842e-16,17.4954712 2.05191894,17.4954712 2.05191894,16.0861284 L2.05191894,9.45762036 L2.53767723,9.45762036 L2.53767723,27.60747 C2.53767723,29.4917975 5.27006042,29.4363489 5.27006042,27.60747 L5.27006042,17.0717143 L5.74069089,17.0717143 L5.74069089,27.60747 C5.74069089,29.4363489 8.48808686,29.4917975 8.48808686,27.60747 L8.48808686,9.45762036 L8.96245614,9.45762036 L8.96245614,16.0861284 C8.96245614,17.5063412 11.0036763,17.5062834 10.999995,16.0861284 L10.999995,8.88041135 C10.999995,7.31206573 9.78838903,5.77586757 7.96212193,5.77586757 L3.00100263,5.7726297 Z" id="Fill-1"></path>
                            </g>
                            <g id="person" transform="translate(102.000000, 0.000000)">
                                <path d="M5.51457889,5.25156313 C6.81165994,5.25156313 7.86335971,4.19439699 7.86335971,2.89045854 C7.86335971,1.5865779 6.81165994,0.529411765 5.51457889,0.529411765 C4.21732528,0.529411765 3.16579807,1.5865779 3.16579807,2.89045854 C3.16579807,4.19439699 4.21732528,5.25156313 5.51457889,5.25156313 Z M3.00100263,5.7726297 C1.33769032,5.7726297 8.8817842e-16,7.13623756 8.8817842e-16,8.83704696 L8.8817842e-16,16.0861284 C8.8817842e-16,17.4954712 2.05191894,17.4954712 2.05191894,16.0861284 L2.05191894,9.45762036 L2.53767723,9.45762036 L2.53767723,27.60747 C2.53767723,29.4917975 5.27006042,29.4363489 5.27006042,27.60747 L5.27006042,17.0717143 L5.74069089,17.0717143 L5.74069089,27.60747 C5.74069089,29.4363489 8.48808686,29.4917975 8.48808686,27.60747 L8.48808686,9.45762036 L8.96245614,9.45762036 L8.96245614,16.0861284 C8.96245614,17.5063412 11.0036763,17.5062834 10.999995,16.0861284 L10.999995,8.88041135 C10.999995,7.31206573 9.78838903,5.77586757 7.96212193,5.77586757 L3.00100263,5.7726297 Z" id="Fill-1"></path>
                            </g>
                        </g>
                        <g id="Group-2" transform="translate(0.000000, 245.000000)" fill="#000000">
                            <g id="person">
                                <path d="M5.51457889,5.25156313 C6.81165994,5.25156313 7.86335971,4.19439699 7.86335971,2.89045854 C7.86335971,1.5865779 6.81165994,0.529411765 5.51457889,0.529411765 C4.21732528,0.529411765 3.16579807,1.5865779 3.16579807,2.89045854 C3.16579807,4.19439699 4.21732528,5.25156313 5.51457889,5.25156313 Z M3.00100263,5.7726297 C1.33769032,5.7726297 8.8817842e-16,7.13623756 8.8817842e-16,8.83704696 L8.8817842e-16,16.0861284 C8.8817842e-16,17.4954712 2.05191894,17.4954712 2.05191894,16.0861284 L2.05191894,9.45762036 L2.53767723,9.45762036 L2.53767723,27.60747 C2.53767723,29.4917975 5.27006042,29.4363489 5.27006042,27.60747 L5.27006042,17.0717143 L5.74069089,17.0717143 L5.74069089,27.60747 C5.74069089,29.4363489 8.48808686,29.4917975 8.48808686,27.60747 L8.48808686,9.45762036 L8.96245614,9.45762036 L8.96245614,16.0861284 C8.96245614,17.5063412 11.0036763,17.5062834 10.999995,16.0861284 L10.999995,8.88041135 C10.999995,7.31206573 9.78838903,5.77586757 7.96212193,5.77586757 L3.00100263,5.7726297 Z" id="Fill-1"></path>
                            </g>
                            <g id="person" transform="translate(17.000000, 0.000000)">
                                <path d="M5.51457889,5.25156313 C6.81165994,5.25156313 7.86335971,4.19439699 7.86335971,2.89045854 C7.86335971,1.5865779 6.81165994,0.529411765 5.51457889,0.529411765 C4.21732528,0.529411765 3.16579807,1.5865779 3.16579807,2.89045854 C3.16579807,4.19439699 4.21732528,5.25156313 5.51457889,5.25156313 Z M3.00100263,5.7726297 C1.33769032,5.7726297 8.8817842e-16,7.13623756 8.8817842e-16,8.83704696 L8.8817842e-16,16.0861284 C8.8817842e-16,17.4954712 2.05191894,17.4954712 2.05191894,16.0861284 L2.05191894,9.45762036 L2.53767723,9.45762036 L2.53767723,27.60747 C2.53767723,29.4917975 5.27006042,29.4363489 5.27006042,27.60747 L5.27006042,17.0717143 L5.74069089,17.0717143 L5.74069089,27.60747 C5.74069089,29.4363489 8.48808686,29.4917975 8.48808686,27.60747 L8.48808686,9.45762036 L8.96245614,9.45762036 L8.96245614,16.0861284 C8.96245614,17.5063412 11.0036763,17.5062834 10.999995,16.0861284 L10.999995,8.88041135 C10.999995,7.31206573 9.78838903,5.77586757 7.96212193,5.77586757 L3.00100263,5.7726297 Z" id="Fill-1"></path>
                            </g>
                            <g id="person" transform="translate(34.000000, 0.000000)">
                                <path d="M5.51457889,5.25156313 C6.81165994,5.25156313 7.86335971,4.19439699 7.86335971,2.89045854 C7.86335971,1.5865779 6.81165994,0.529411765 5.51457889,0.529411765 C4.21732528,0.529411765 3.16579807,1.5865779 3.16579807,2.89045854 C3.16579807,4.19439699 4.21732528,5.25156313 5.51457889,5.25156313 Z M3.00100263,5.7726297 C1.33769032,5.7726297 8.8817842e-16,7.13623756 8.8817842e-16,8.83704696 L8.8817842e-16,16.0861284 C8.8817842e-16,17.4954712 2.05191894,17.4954712 2.05191894,16.0861284 L2.05191894,9.45762036 L2.53767723,9.45762036 L2.53767723,27.60747 C2.53767723,29.4917975 5.27006042,29.4363489 5.27006042,27.60747 L5.27006042,17.0717143 L5.74069089,17.0717143 L5.74069089,27.60747 C5.74069089,29.4363489 8.48808686,29.4917975 8.48808686,27.60747 L8.48808686,9.45762036 L8.96245614,9.45762036 L8.96245614,16.0861284 C8.96245614,17.5063412 11.0036763,17.5062834 10.999995,16.0861284 L10.999995,8.88041135 C10.999995,7.31206573 9.78838903,5.77586757 7.96212193,5.77586757 L3.00100263,5.7726297 Z" id="Fill-1"></path>
                            </g>
                            <g id="person" transform="translate(51.000000, 0.000000)">
                                <path d="M5.51457889,5.25156313 C6.81165994,5.25156313 7.86335971,4.19439699 7.86335971,2.89045854 C7.86335971,1.5865779 6.81165994,0.529411765 5.51457889,0.529411765 C4.21732528,0.529411765 3.16579807,1.5865779 3.16579807,2.89045854 C3.16579807,4.19439699 4.21732528,5.25156313 5.51457889,5.25156313 Z M3.00100263,5.7726297 C1.33769032,5.7726297 8.8817842e-16,7.13623756 8.8817842e-16,8.83704696 L8.8817842e-16,16.0861284 C8.8817842e-16,17.4954712 2.05191894,17.4954712 2.05191894,16.0861284 L2.05191894,9.45762036 L2.53767723,9.45762036 L2.53767723,27.60747 C2.53767723,29.4917975 5.27006042,29.4363489 5.27006042,27.60747 L5.27006042,17.0717143 L5.74069089,17.0717143 L5.74069089,27.60747 C5.74069089,29.4363489 8.48808686,29.4917975 8.48808686,27.60747 L8.48808686,9.45762036 L8.96245614,9.45762036 L8.96245614,16.0861284 C8.96245614,17.5063412 11.0036763,17.5062834 10.999995,16.0861284 L10.999995,8.88041135 C10.999995,7.31206573 9.78838903,5.77586757 7.96212193,5.77586757 L3.00100263,5.7726297 Z" id="Fill-1"></path>
                            </g>
                            <g id="person" transform="translate(68.000000, 0.000000)">
                                <path d="M5.51457889,5.25156313 C6.81165994,5.25156313 7.86335971,4.19439699 7.86335971,2.89045854 C7.86335971,1.5865779 6.81165994,0.529411765 5.51457889,0.529411765 C4.21732528,0.529411765 3.16579807,1.5865779 3.16579807,2.89045854 C3.16579807,4.19439699 4.21732528,5.25156313 5.51457889,5.25156313 Z M3.00100263,5.7726297 C1.33769032,5.7726297 8.8817842e-16,7.13623756 8.8817842e-16,8.83704696 L8.8817842e-16,16.0861284 C8.8817842e-16,17.4954712 2.05191894,17.4954712 2.05191894,16.0861284 L2.05191894,9.45762036 L2.53767723,9.45762036 L2.53767723,27.60747 C2.53767723,29.4917975 5.27006042,29.4363489 5.27006042,27.60747 L5.27006042,17.0717143 L5.74069089,17.0717143 L5.74069089,27.60747 C5.74069089,29.4363489 8.48808686,29.4917975 8.48808686,27.60747 L8.48808686,9.45762036 L8.96245614,9.45762036 L8.96245614,16.0861284 C8.96245614,17.5063412 11.0036763,17.5062834 10.999995,16.0861284 L10.999995,8.88041135 C10.999995,7.31206573 9.78838903,5.77586757 7.96212193,5.77586757 L3.00100263,5.7726297 Z" id="Fill-1"></path>
                            </g>
                            <g id="person" transform="translate(85.000000, 0.000000)">
                                <path d="M5.51457889,5.25156313 C6.81165994,5.25156313 7.86335971,4.19439699 7.86335971,2.89045854 C7.86335971,1.5865779 6.81165994,0.529411765 5.51457889,0.529411765 C4.21732528,0.529411765 3.16579807,1.5865779 3.16579807,2.89045854 C3.16579807,4.19439699 4.21732528,5.25156313 5.51457889,5.25156313 Z M3.00100263,5.7726297 C1.33769032,5.7726297 8.8817842e-16,7.13623756 8.8817842e-16,8.83704696 L8.8817842e-16,16.0861284 C8.8817842e-16,17.4954712 2.05191894,17.4954712 2.05191894,16.0861284 L2.05191894,9.45762036 L2.53767723,9.45762036 L2.53767723,27.60747 C2.53767723,29.4917975 5.27006042,29.4363489 5.27006042,27.60747 L5.27006042,17.0717143 L5.74069089,17.0717143 L5.74069089,27.60747 C5.74069089,29.4363489 8.48808686,29.4917975 8.48808686,27.60747 L8.48808686,9.45762036 L8.96245614,9.45762036 L8.96245614,16.0861284 C8.96245614,17.5063412 11.0036763,17.5062834 10.999995,16.0861284 L10.999995,8.88041135 C10.999995,7.31206573 9.78838903,5.77586757 7.96212193,5.77586757 L3.00100263,5.7726297 Z" id="Fill-1"></path>
                            </g>
                            <g id="person" transform="translate(102.000000, 0.000000)">
                                <path d="M5.51457889,5.25156313 C6.81165994,5.25156313 7.86335971,4.19439699 7.86335971,2.89045854 C7.86335971,1.5865779 6.81165994,0.529411765 5.51457889,0.529411765 C4.21732528,0.529411765 3.16579807,1.5865779 3.16579807,2.89045854 C3.16579807,4.19439699 4.21732528,5.25156313 5.51457889,5.25156313 Z M3.00100263,5.7726297 C1.33769032,5.7726297 8.8817842e-16,7.13623756 8.8817842e-16,8.83704696 L8.8817842e-16,16.0861284 C8.8817842e-16,17.4954712 2.05191894,17.4954712 2.05191894,16.0861284 L2.05191894,9.45762036 L2.53767723,9.45762036 L2.53767723,27.60747 C2.53767723,29.4917975 5.27006042,29.4363489 5.27006042,27.60747 L5.27006042,17.0717143 L5.74069089,17.0717143 L5.74069089,27.60747 C5.74069089,29.4363489 8.48808686,29.4917975 8.48808686,27.60747 L8.48808686,9.45762036 L8.96245614,9.45762036 L8.96245614,16.0861284 C8.96245614,17.5063412 11.0036763,17.5062834 10.999995,16.0861284 L10.999995,8.88041135 C10.999995,7.31206573 9.78838903,5.77586757 7.96212193,5.77586757 L3.00100263,5.7726297 Z" id="Fill-1"></path>
                            </g>
                        </g>
                        <g id="person" transform="translate(50.000000, 0.000000)" fill="#000000">
                            <path d="M5.51457889,5.25156313 C6.81165994,5.25156313 7.86335971,4.19439699 7.86335971,2.89045854 C7.86335971,1.5865779 6.81165994,0.529411765 5.51457889,0.529411765 C4.21732528,0.529411765 3.16579807,1.5865779 3.16579807,2.89045854 C3.16579807,4.19439699 4.21732528,5.25156313 5.51457889,5.25156313 Z M3.00100263,5.7726297 C1.33769032,5.7726297 8.8817842e-16,7.13623756 8.8817842e-16,8.83704696 L8.8817842e-16,16.0861284 C8.8817842e-16,17.4954712 2.05191894,17.4954712 2.05191894,16.0861284 L2.05191894,9.45762036 L2.53767723,9.45762036 L2.53767723,27.60747 C2.53767723,29.4917975 5.27006042,29.4363489 5.27006042,27.60747 L5.27006042,17.0717143 L5.74069089,17.0717143 L5.74069089,27.60747 C5.74069089,29.4363489 8.48808686,29.4917975 8.48808686,27.60747 L8.48808686,9.45762036 L8.96245614,9.45762036 L8.96245614,16.0861284 C8.96245614,17.5063412 11.0036763,17.5062834 10.999995,16.0861284 L10.999995,8.88041135 C10.999995,7.31206573 9.78838903,5.77586757 7.96212193,5.77586757 L3.00100263,5.7726297 Z" id="Fill-1"></path>
                        </g>
                        <path d="M55.5,37.5 L55.5,67.5665932" id="Line" stroke="#979797" stroke-linecap="square" stroke-dasharray="2"></path>
                    </g>
                </g>
                <g id="Group-12" transform="translate(211.000000, 0.000000)">
                    <text id="Invitation-only" sketch:type="MSTextLayer" font-family="Fira Sans" font-size="13" font-weight="bold" line-spacing="19" fill="#424242">
                        <tspan x="0" y="15">Invitation only</tspan>
                        <tspan x="86.125" y="15" font-weight="420"></tspan>
                        <tspan x="0" y="34" font-weight="normal">Series of explicit </tspan>
                        <tspan x="0" y="53" font-weight="normal">invitations</tspan>
                    </text>
                    <text id="“I-want-to-do-this-w" sketch:type="MSTextLayer" font-family="Fira Sans" font-size="13" font-weight="normal" line-spacing="19" fill="#9E9E9E">
                        <tspan x="0" y="419">“I want to do this </tspan>
                        <tspan x="104.611" y="419" font-weight="420">with </tspan>
                        <tspan x="0" y="438" font-weight="420">certain people.</tspan>
                        <tspan x="89.284" y="438">”</tspan>
                    </text>
                    <g id="Group-8" transform="translate(0.000000, 85.000000)">
                        <g id="person" transform="translate(44.000000, 139.000000)" fill="#000000" sketch:type="MSShapeGroup">
                            <path d="M5.51457889,5.25156313 C6.81165994,5.25156313 7.86335971,4.19439699 7.86335971,2.89045854 C7.86335971,1.5865779 6.81165994,0.529411765 5.51457889,0.529411765 C4.21732528,0.529411765 3.16579807,1.5865779 3.16579807,2.89045854 C3.16579807,4.19439699 4.21732528,5.25156313 5.51457889,5.25156313 Z M3.00100263,5.7726297 C1.33769032,5.7726297 8.8817842e-16,7.13623756 8.8817842e-16,8.83704696 L8.8817842e-16,16.0861284 C8.8817842e-16,17.4954712 2.05191894,17.4954712 2.05191894,16.0861284 L2.05191894,9.45762036 L2.53767723,9.45762036 L2.53767723,27.60747 C2.53767723,29.4917975 5.27006042,29.4363489 5.27006042,27.60747 L5.27006042,17.0717143 L5.74069089,17.0717143 L5.74069089,27.60747 C5.74069089,29.4363489 8.48808686,29.4917975 8.48808686,27.60747 L8.48808686,9.45762036 L8.96245614,9.45762036 L8.96245614,16.0861284 C8.96245614,17.5063412 11.0036763,17.5062834 10.999995,16.0861284 L10.999995,8.88041135 C10.999995,7.31206573 9.78838903,5.77586757 7.96212193,5.77586757 L3.00100263,5.7726297 Z" id="Fill-1"></path>
                        </g>
                        <g id="Group-4" transform="translate(0.000000, 70.000000)" fill="#000000" sketch:type="MSShapeGroup">
                            <g id="person">
                                <path d="M5.51457889,5.25156313 C6.81165994,5.25156313 7.86335971,4.19439699 7.86335971,2.89045854 C7.86335971,1.5865779 6.81165994,0.529411765 5.51457889,0.529411765 C4.21732528,0.529411765 3.16579807,1.5865779 3.16579807,2.89045854 C3.16579807,4.19439699 4.21732528,5.25156313 5.51457889,5.25156313 Z M3.00100263,5.7726297 C1.33769032,5.7726297 8.8817842e-16,7.13623756 8.8817842e-16,8.83704696 L8.8817842e-16,16.0861284 C8.8817842e-16,17.4954712 2.05191894,17.4954712 2.05191894,16.0861284 L2.05191894,9.45762036 L2.53767723,9.45762036 L2.53767723,27.60747 C2.53767723,29.4917975 5.27006042,29.4363489 5.27006042,27.60747 L5.27006042,17.0717143 L5.74069089,17.0717143 L5.74069089,27.60747 C5.74069089,29.4363489 8.48808686,29.4917975 8.48808686,27.60747 L8.48808686,9.45762036 L8.96245614,9.45762036 L8.96245614,16.0861284 C8.96245614,17.5063412 11.0036763,17.5062834 10.999995,16.0861284 L10.999995,8.88041135 C10.999995,7.31206573 9.78838903,5.77586757 7.96212193,5.77586757 L3.00100263,5.7726297 Z" id="Fill-1"></path>
                            </g>
                            <g id="person" transform="translate(29.000000, 0.000000)">
                                <path d="M5.51457889,5.25156313 C6.81165994,5.25156313 7.86335971,4.19439699 7.86335971,2.89045854 C7.86335971,1.5865779 6.81165994,0.529411765 5.51457889,0.529411765 C4.21732528,0.529411765 3.16579807,1.5865779 3.16579807,2.89045854 C3.16579807,4.19439699 4.21732528,5.25156313 5.51457889,5.25156313 Z M3.00100263,5.7726297 C1.33769032,5.7726297 8.8817842e-16,7.13623756 8.8817842e-16,8.83704696 L8.8817842e-16,16.0861284 C8.8817842e-16,17.4954712 2.05191894,17.4954712 2.05191894,16.0861284 L2.05191894,9.45762036 L2.53767723,9.45762036 L2.53767723,27.60747 C2.53767723,29.4917975 5.27006042,29.4363489 5.27006042,27.60747 L5.27006042,17.0717143 L5.74069089,17.0717143 L5.74069089,27.60747 C5.74069089,29.4363489 8.48808686,29.4917975 8.48808686,27.60747 L8.48808686,9.45762036 L8.96245614,9.45762036 L8.96245614,16.0861284 C8.96245614,17.5063412 11.0036763,17.5062834 10.999995,16.0861284 L10.999995,8.88041135 C10.999995,7.31206573 9.78838903,5.77586757 7.96212193,5.77586757 L3.00100263,5.7726297 Z" id="Fill-1"></path>
                            </g>
                            <g id="person" transform="translate(58.000000, 0.000000)">
                                <path d="M5.51457889,5.25156313 C6.81165994,5.25156313 7.86335971,4.19439699 7.86335971,2.89045854 C7.86335971,1.5865779 6.81165994,0.529411765 5.51457889,0.529411765 C4.21732528,0.529411765 3.16579807,1.5865779 3.16579807,2.89045854 C3.16579807,4.19439699 4.21732528,5.25156313 5.51457889,5.25156313 Z M3.00100263,5.7726297 C1.33769032,5.7726297 8.8817842e-16,7.13623756 8.8817842e-16,8.83704696 L8.8817842e-16,16.0861284 C8.8817842e-16,17.4954712 2.05191894,17.4954712 2.05191894,16.0861284 L2.05191894,9.45762036 L2.53767723,9.45762036 L2.53767723,27.60747 C2.53767723,29.4917975 5.27006042,29.4363489 5.27006042,27.60747 L5.27006042,17.0717143 L5.74069089,17.0717143 L5.74069089,27.60747 C5.74069089,29.4363489 8.48808686,29.4917975 8.48808686,27.60747 L8.48808686,9.45762036 L8.96245614,9.45762036 L8.96245614,16.0861284 C8.96245614,17.5063412 11.0036763,17.5062834 10.999995,16.0861284 L10.999995,8.88041135 C10.999995,7.31206573 9.78838903,5.77586757 7.96212193,5.77586757 L3.00100263,5.7726297 Z" id="Fill-1"></path>
                            </g>
                            <g id="person" transform="translate(87.000000, 0.000000)">
                                <path d="M5.51457889,5.25156313 C6.81165994,5.25156313 7.86335971,4.19439699 7.86335971,2.89045854 C7.86335971,1.5865779 6.81165994,0.529411765 5.51457889,0.529411765 C4.21732528,0.529411765 3.16579807,1.5865779 3.16579807,2.89045854 C3.16579807,4.19439699 4.21732528,5.25156313 5.51457889,5.25156313 Z M3.00100263,5.7726297 C1.33769032,5.7726297 8.8817842e-16,7.13623756 8.8817842e-16,8.83704696 L8.8817842e-16,16.0861284 C8.8817842e-16,17.4954712 2.05191894,17.4954712 2.05191894,16.0861284 L2.05191894,9.45762036 L2.53767723,9.45762036 L2.53767723,27.60747 C2.53767723,29.4917975 5.27006042,29.4363489 5.27006042,27.60747 L5.27006042,17.0717143 L5.74069089,17.0717143 L5.74069089,27.60747 C5.74069089,29.4363489 8.48808686,29.4917975 8.48808686,27.60747 L8.48808686,9.45762036 L8.96245614,9.45762036 L8.96245614,16.0861284 C8.96245614,17.5063412 11.0036763,17.5062834 10.999995,16.0861284 L10.999995,8.88041135 C10.999995,7.31206573 9.78838903,5.77586757 7.96212193,5.77586757 L3.00100263,5.7726297 Z" id="Fill-1"></path>
                            </g>
                        </g>
                        <g id="person" transform="translate(73.000000, 139.000000)" fill="#000000" sketch:type="MSShapeGroup">
                            <path d="M5.51457889,5.25156313 C6.81165994,5.25156313 7.86335971,4.19439699 7.86335971,2.89045854 C7.86335971,1.5865779 6.81165994,0.529411765 5.51457889,0.529411765 C4.21732528,0.529411765 3.16579807,1.5865779 3.16579807,2.89045854 C3.16579807,4.19439699 4.21732528,5.25156313 5.51457889,5.25156313 Z M3.00100263,5.7726297 C1.33769032,5.7726297 8.8817842e-16,7.13623756 8.8817842e-16,8.83704696 L8.8817842e-16,16.0861284 C8.8817842e-16,17.4954712 2.05191894,17.4954712 2.05191894,16.0861284 L2.05191894,9.45762036 L2.53767723,9.45762036 L2.53767723,27.60747 C2.53767723,29.4917975 5.27006042,29.4363489 5.27006042,27.60747 L5.27006042,17.0717143 L5.74069089,17.0717143 L5.74069089,27.60747 C5.74069089,29.4363489 8.48808686,29.4917975 8.48808686,27.60747 L8.48808686,9.45762036 L8.96245614,9.45762036 L8.96245614,16.0861284 C8.96245614,17.5063412 11.0036763,17.5062834 10.999995,16.0861284 L10.999995,8.88041135 C10.999995,7.31206573 9.78838903,5.77586757 7.96212193,5.77586757 L3.00100263,5.7726297 Z" id="Fill-1"></path>
                        </g>
                        <g id="person" transform="translate(73.000000, 209.000000)" fill="#000000" sketch:type="MSShapeGroup">
                            <path d="M5.51457889,5.25156313 C6.81165994,5.25156313 7.86335971,4.19439699 7.86335971,2.89045854 C7.86335971,1.5865779 6.81165994,0.529411765 5.51457889,0.529411765 C4.21732528,0.529411765 3.16579807,1.5865779 3.16579807,2.89045854 C3.16579807,4.19439699 4.21732528,5.25156313 5.51457889,5.25156313 Z M3.00100263,5.7726297 C1.33769032,5.7726297 8.8817842e-16,7.13623756 8.8817842e-16,8.83704696 L8.8817842e-16,16.0861284 C8.8817842e-16,17.4954712 2.05191894,17.4954712 2.05191894,16.0861284 L2.05191894,9.45762036 L2.53767723,9.45762036 L2.53767723,27.60747 C2.53767723,29.4917975 5.27006042,29.4363489 5.27006042,27.60747 L5.27006042,17.0717143 L5.74069089,17.0717143 L5.74069089,27.60747 C5.74069089,29.4363489 8.48808686,29.4917975 8.48808686,27.60747 L8.48808686,9.45762036 L8.96245614,9.45762036 L8.96245614,16.0861284 C8.96245614,17.5063412 11.0036763,17.5062834 10.999995,16.0861284 L10.999995,8.88041135 C10.999995,7.31206573 9.78838903,5.77586757 7.96212193,5.77586757 L3.00100263,5.7726297 Z" id="Fill-1"></path>
                        </g>
                        <g id="person" transform="translate(44.000000, 0.000000)" fill="#000000" sketch:type="MSShapeGroup">
                            <path d="M5.51457889,5.25156313 C6.81165994,5.25156313 7.86335971,4.19439699 7.86335971,2.89045854 C7.86335971,1.5865779 6.81165994,0.529411765 5.51457889,0.529411765 C4.21732528,0.529411765 3.16579807,1.5865779 3.16579807,2.89045854 C3.16579807,4.19439699 4.21732528,5.25156313 5.51457889,5.25156313 Z M3.00100263,5.7726297 C1.33769032,5.7726297 8.8817842e-16,7.13623756 8.8817842e-16,8.83704696 L8.8817842e-16,16.0861284 C8.8817842e-16,17.4954712 2.05191894,17.4954712 2.05191894,16.0861284 L2.05191894,9.45762036 L2.53767723,9.45762036 L2.53767723,27.60747 C2.53767723,29.4917975 5.27006042,29.4363489 5.27006042,27.60747 L5.27006042,17.0717143 L5.74069089,17.0717143 L5.74069089,27.60747 C5.74069089,29.4363489 8.48808686,29.4917975 8.48808686,27.60747 L8.48808686,9.45762036 L8.96245614,9.45762036 L8.96245614,16.0861284 C8.96245614,17.5063412 11.0036763,17.5062834 10.999995,16.0861284 L10.999995,8.88041135 C10.999995,7.31206573 9.78838903,5.77586757 7.96212193,5.77586757 L3.00100263,5.7726297 Z" id="Fill-1"></path>
                        </g>
                        <path d="M78.5,172.5 L78.5,202.566593" id="Line" stroke="#979797" stroke-linecap="square" sketch:type="MSShapeGroup"></path>
                        <path id="Line-decoration-1" d="M75.5,191.766593 L78.5,202.566593 L81.5,191.766593" stroke="#979797" stroke-linecap="square"></path>
                        <g id="Group-3" transform="translate(49.000000, 105.000000)" stroke="#979797" stroke-linecap="square">
                            <path d="M15,0 L30,29.0665932" id="Line" sketch:type="MSShapeGroup"></path>
                            <path id="Line-decoration-1" d="M22.3812664,20.8449815 L30,29.0665932 L27.7131482,18.09343"></path>
                            <path d="M15,0 L0,29.0665932" id="Line" sketch:type="MSShapeGroup"></path>
                            <path id="Line-decoration-1" d="M2.28685177,18.09343 L0,29.0665932 L7.61873364,20.8449815"></path>
                        </g>
                        <g id="Group-5" transform="translate(5.000000, 36.000000)" stroke="#979797" stroke-linecap="square">
                            <path d="M44.5,0.5 L0.5,29.5665932" id="Line" sketch:type="MSShapeGroup"></path>
                            <path id="Line-decoration-1" d="M7.85769661,21.1105716 L0.5,29.5665932 L11.1648572,26.1168366"></path>
                            <path d="M44.5,0.5 L59.5,29.5665932" id="Line" sketch:type="MSShapeGroup"></path>
                            <path id="Line-decoration-1" d="M51.8812664,21.3449815 L59.5,29.5665932 L57.2131482,18.59343"></path>
                            <path d="M44.5,0.5 L29.5,29.5665932" id="Line" sketch:type="MSShapeGroup"></path>
                            <path id="Line-decoration-1" d="M31.7868518,18.59343 L29.5,29.5665932 L37.1187336,21.3449815"></path>
                            <path d="M44.5,0.5 L88.5,29.5665932" id="Line" sketch:type="MSShapeGroup"></path>
                            <path id="Line-decoration-1" d="M77.8351428,26.1168366 L88.5,29.5665932 L81.1423034,21.1105716"></path>
                        </g>
                    </g>
                </g>
                <g id="Group-13" transform="translate(422.000000, 0.000000)">
                    <text id="For-friends" sketch:type="MSTextLayer" font-family="Fira Sans" font-size="13" font-weight="bold" line-spacing="19" fill="#424242">
                        <tspan x="0" y="15">For friends</tspan>
                        <tspan x="0" y="34" font-weight="normal">Series of implicit </tspan>
                        <tspan x="0" y="53" font-weight="normal">invitations</tspan>
                    </text>
                    <text id="“I-want-to-do-this-t" sketch:type="MSTextLayer" font-family="Fira Sans" font-size="13" font-weight="normal" line-spacing="19" fill="#9E9E9E">
                        <tspan x="0" y="419">“I want to do this thing </tspan>
                        <tspan x="0" y="438">with people I know, more </tspan>
                        <tspan x="0" y="457">or less.”</tspan>
                    </text>
                    <g id="Group-7" transform="translate(0.000000, 85.000000)" sketch:type="MSShapeGroup">
                        <g id="Page-1">
                            <path d="M5.5137,64.4375 C6.8107,64.4375 7.8637,63.3795 7.8637,62.0765 C7.8637,60.7725 6.8107,59.7145 5.5137,59.7145 C4.2167,59.7145 3.1657,60.7725 3.1657,62.0765 C3.1657,63.3795 4.2167,64.4375 5.5137,64.4375 L5.5137,64.4375 Z M2.9997,64.9585 C1.3377,64.9585 -0.0003,66.3225 -0.0003,68.0225 L-0.0003,75.2715 C-0.0003,76.6805 2.0507,76.6805 2.0507,75.2715 L2.0507,68.6435 L2.5367,68.6435 L2.5367,86.7925 C2.5367,88.6775 5.2697,88.6225 5.2697,86.7925 L5.2697,76.2565 L5.7407,76.2565 L5.7407,86.7925 C5.7407,88.6225 8.4887,88.6775 8.4887,86.7925 L8.4887,68.6435 L8.9617,68.6435 L8.9617,75.2715 C8.9617,76.6915 11.0037,76.6915 10.9997,75.2715 L10.9997,68.0665 C10.9997,66.4985 9.7877,64.9605 7.9607,64.9605 L2.9997,64.9585 Z" id="Fill-1" stroke="#979797"></path>
                            <path d="M17.0811,100.1689 C18.3781,100.1689 19.4311,99.1109 19.4311,97.8079 C19.4311,96.5039 18.3781,95.4459 17.0811,95.4459 C15.7841,95.4459 14.7331,96.5039 14.7331,97.8079 C14.7331,99.1109 15.7841,100.1689 17.0811,100.1689 L17.0811,100.1689 Z M14.5671,100.6899 C12.9051,100.6899 11.5671,102.0539 11.5671,103.7539 L11.5671,111.0049 C11.5671,112.4139 13.6181,112.4139 13.6181,111.0049 L13.6181,104.3749 L14.1041,104.3749 L14.1041,122.5259 C14.1041,124.4109 16.8371,124.3559 16.8371,122.5259 L16.8371,111.9899 L17.3081,111.9899 L17.3081,122.5259 C17.3081,124.3559 20.0561,124.4109 20.0561,122.5259 L20.0561,104.3749 L20.5291,104.3749 L20.5291,111.0049 C20.5291,112.4249 22.5711,112.4249 22.5671,111.0049 L22.5671,103.7979 C22.5671,102.2299 21.3551,100.6919 19.5281,100.6919 L14.5671,100.6899 Z" id="Fill-4" stroke="#979797"></path>
                            <path d="M116.918,100.1689 C118.215,100.1689 119.268,99.1109 119.268,97.8079 C119.268,96.5039 118.215,95.4459 116.918,95.4459 C115.621,95.4459 114.57,96.5039 114.57,97.8079 C114.57,99.1109 115.621,100.1689 116.918,100.1689 L116.918,100.1689 Z M114.404,100.6899 C112.742,100.6899 111.404,102.0539 111.404,103.7539 L111.404,111.0049 C111.404,112.4139 113.455,112.4139 113.455,111.0049 L113.455,104.3749 L113.941,104.3749 L113.941,122.5259 C113.941,124.4109 116.674,124.3559 116.674,122.5259 L116.674,111.9899 L117.145,111.9899 L117.145,122.5259 C117.145,124.3559 119.893,124.4109 119.893,122.5259 L119.893,104.3749 L120.366,104.3749 L120.366,111.0049 C120.366,112.4249 122.408,112.4249 122.404,111.0049 L122.404,103.7979 C122.404,102.2299 121.192,100.6919 119.365,100.6919 L114.404,100.6899 Z" id="Fill-6" stroke="#979797"></path>
                            <path d="M17.0811,29.4409 C18.3781,29.4409 19.4311,28.3829 19.4311,27.0799 C19.4311,25.7759 18.3781,24.7179 17.0811,24.7179 C15.7841,24.7179 14.7331,25.7759 14.7331,27.0799 C14.7331,28.3829 15.7841,29.4409 17.0811,29.4409 L17.0811,29.4409 Z M14.5671,29.9619 C12.9051,29.9619 11.5671,31.3259 11.5671,33.0259 L11.5671,40.2769 C11.5671,41.6859 13.6181,41.6859 13.6181,40.2769 L13.6181,33.6469 L14.1041,33.6469 L14.1041,51.7979 C14.1041,53.6829 16.8371,53.6279 16.8371,51.7979 L16.8371,41.2619 L17.3081,41.2619 L17.3081,51.7979 C17.3081,53.6279 20.0561,53.6829 20.0561,51.7979 L20.0561,33.6469 L20.5291,33.6469 L20.5291,40.2769 C20.5291,41.6969 22.5711,41.6969 22.5671,40.2769 L22.5671,33.0699 C22.5671,31.5019 21.3551,29.9639 19.5281,29.9639 L14.5671,29.9619 Z" id="Fill-8" stroke="#979797"></path>
                            <path d="M116.918,29.4409 C118.215,29.4409 119.268,28.3829 119.268,27.0799 C119.268,25.7759 118.215,24.7179 116.918,24.7179 C115.621,24.7179 114.57,25.7759 114.57,27.0799 C114.57,28.3829 115.621,29.4409 116.918,29.4409 L116.918,29.4409 Z M114.404,29.9619 C112.742,29.9619 111.404,31.3259 111.404,33.0259 L111.404,40.2769 C111.404,41.6859 113.455,41.6859 113.455,40.2769 L113.455,33.6469 L113.941,33.6469 L113.941,51.7979 C113.941,53.6829 116.674,53.6279 116.674,51.7979 L116.674,41.2619 L117.145,41.2619 L117.145,51.7979 C117.145,53.6279 119.893,53.6829 119.893,51.7979 L119.893,33.6469 L120.366,33.6469 L120.366,40.2769 C120.366,41.6969 122.408,41.6969 122.404,40.2769 L122.404,33.0699 C122.404,31.5019 121.192,29.9639 119.365,29.9639 L114.404,29.9619 Z" id="Fill-10" stroke="#979797"></path>
                            <path d="M128.6318,65.0645 C129.9278,65.0645 130.9808,64.0065 130.9798,62.7045 C130.9798,61.3995 129.9288,60.3435 128.6308,60.3425 C127.3318,60.3425 126.2818,61.3995 126.2838,62.7045 C126.2838,64.0065 127.3338,65.0655 128.6318,65.0645 L128.6318,65.0645 Z M126.1168,65.5855 C124.4558,65.5855 123.1168,66.9495 123.1168,68.6505 L123.1168,75.8985 C123.1158,77.3085 125.1678,77.3075 125.1678,75.8995 L125.1678,69.2705 L125.6538,69.2705 L125.6538,87.4195 C125.6538,89.3055 128.3868,89.2505 128.3848,87.4205 L128.3868,76.8835 L128.8578,76.8855 L128.8558,87.4205 C128.8578,89.2505 131.6058,89.3055 131.6038,87.4185 L131.6068,69.2725 L132.0798,69.2725 L132.0798,75.8975 C132.0778,77.3195 134.1198,77.3175 134.1168,75.8995 L134.1168,68.6935 C134.1168,67.1265 132.9038,65.5885 131.0768,65.5885 L126.1168,65.5855 Z" id="Fill-12" stroke="#979797"></path>
                            <path d="M48.2461,5.2759 C49.5421,5.2759 50.5951,4.2179 50.5941,2.9159 C50.5941,1.6109 49.5431,0.5549 48.2451,0.5539 C46.9461,0.5539 45.8961,1.6109 45.8981,2.9159 C45.8981,4.2179 46.9481,5.2769 48.2461,5.2759 L48.2461,5.2759 Z M45.7311,5.7969 C44.0701,5.7969 42.7311,7.1609 42.7311,8.8619 L42.7311,16.1099 C42.7301,17.5199 44.7821,17.5189 44.7821,16.1109 L44.7821,9.4819 L45.2681,9.4819 L45.2681,27.6309 C45.2681,29.5169 48.0011,29.4619 47.9991,27.6319 L48.0011,17.0949 L48.4721,17.0969 L48.4701,27.6319 C48.4721,29.4619 51.2201,29.5169 51.2181,27.6299 L51.2211,9.4839 L51.6941,9.4839 L51.6941,16.1089 C51.6921,17.5309 53.7341,17.5289 53.7311,16.1109 L53.7311,8.9049 C53.7311,7.3379 52.5181,5.7999 50.6911,5.7999 L45.7311,5.7969 Z" id="Fill-14" fill="#000000"></path>
                            <path d="M86.2529,5.2759 C87.5489,5.2759 88.6019,4.2179 88.6009,2.9159 C88.6009,1.6109 87.5499,0.5549 86.2519,0.5539 C84.9529,0.5539 83.9029,1.6109 83.9049,2.9159 C83.9049,4.2179 84.9549,5.2769 86.2529,5.2759 L86.2529,5.2759 Z M83.7379,5.7969 C82.0769,5.7969 80.7379,7.1609 80.7379,8.8619 L80.7379,16.1099 C80.7369,17.5199 82.7889,17.5189 82.7889,16.1109 L82.7889,9.4819 L83.2749,9.4819 L83.2749,27.6309 C83.2749,29.5169 86.0079,29.4619 86.0059,27.6319 L86.0079,17.0949 L86.4789,17.0969 L86.4769,27.6319 C86.4789,29.4619 89.2269,29.5169 89.2249,27.6299 L89.2279,9.4839 L89.7009,9.4839 L89.7009,16.1089 C89.6989,17.5309 91.7409,17.5289 91.7379,16.1109 L91.7379,8.9049 C91.7379,7.3379 90.5249,5.7999 88.6979,5.7999 L83.7379,5.7969 Z" id="Fill-17" stroke="#979797"></path>
                            <path d="M48.2461,126.25 C49.5421,126.25 50.5951,125.192 50.5941,123.89 C50.5941,122.585 49.5431,121.529 48.2451,121.528 C46.9461,121.528 45.8961,122.585 45.8981,123.89 C45.8981,125.192 46.9481,126.251 48.2461,126.25 L48.2461,126.25 Z M45.7311,126.771 C44.0701,126.771 42.7311,128.135 42.7311,129.836 L42.7311,137.084 C42.7301,138.494 44.7821,138.493 44.7821,137.085 L44.7821,130.456 L45.2681,130.456 L45.2681,148.605 C45.2681,150.491 48.0011,150.436 47.9991,148.606 L48.0011,138.069 L48.4721,138.071 L48.4701,148.606 C48.4721,150.436 51.2201,150.491 51.2181,148.604 L51.2211,130.458 L51.6941,130.458 L51.6941,137.083 C51.6921,138.505 53.7341,138.503 53.7311,137.085 L53.7311,129.879 C53.7311,128.312 52.5181,126.774 50.6911,126.774 L45.7311,126.771 Z" id="Fill-20" stroke="#979797"></path>
                            <path d="M86.2529,126.25 C87.5489,126.25 88.6019,125.192 88.6009,123.89 C88.6009,122.585 87.5499,121.529 86.2519,121.528 C84.9529,121.528 83.9029,122.585 83.9049,123.89 C83.9049,125.192 84.9549,126.251 86.2529,126.25 L86.2529,126.25 Z M83.7379,126.771 C82.0769,126.771 80.7379,128.135 80.7379,129.836 L80.7379,137.084 C80.7369,138.494 82.7889,138.493 82.7889,137.085 L82.7889,130.456 L83.2749,130.456 L83.2749,148.605 C83.2749,150.491 86.0079,150.436 86.0059,148.606 L86.0079,138.069 L86.4789,138.071 L86.4769,148.606 C86.4789,150.436 89.2269,150.491 89.2249,148.604 L89.2279,130.458 L89.7009,130.458 L89.7009,137.083 C89.6989,138.505 91.7409,138.503 91.7379,137.085 L91.7379,129.879 C91.7379,128.312 90.5249,126.774 88.6979,126.774 L83.7379,126.771 Z" id="Fill-22" fill="#000000"></path>
                        </g>
                        <g id="Group-4" transform="translate(37.000000, 189.000000)">
                            <g id="person" stroke="#979797">
                                <path d="M5.51457889,5.25156313 C6.81165994,5.25156313 7.86335971,4.19439699 7.86335971,2.89045854 C7.86335971,1.5865779 6.81165994,0.529411765 5.51457889,0.529411765 C4.21732528,0.529411765 3.16579807,1.5865779 3.16579807,2.89045854 C3.16579807,4.19439699 4.21732528,5.25156313 5.51457889,5.25156313 Z M3.00100263,5.7726297 C1.33769032,5.7726297 8.8817842e-16,7.13623756 8.8817842e-16,8.83704696 L8.8817842e-16,16.0861284 C8.8817842e-16,17.4954712 2.05191894,17.4954712 2.05191894,16.0861284 L2.05191894,9.45762036 L2.53767723,9.45762036 L2.53767723,27.60747 C2.53767723,29.4917975 5.27006042,29.4363489 5.27006042,27.60747 L5.27006042,17.0717143 L5.74069089,17.0717143 L5.74069089,27.60747 C5.74069089,29.4363489 8.48808686,29.4917975 8.48808686,27.60747 L8.48808686,9.45762036 L8.96245614,9.45762036 L8.96245614,16.0861284 C8.96245614,17.5063412 11.0036763,17.5062834 10.999995,16.0861284 L10.999995,8.88041135 C10.999995,7.31206573 9.78838903,5.77586757 7.96212193,5.77586757 L3.00100263,5.7726297 Z" id="Fill-1"></path>
                            </g>
                            <g id="person" transform="translate(29.000000, 0.000000)" fill="#000000">
                                <path d="M5.51457889,5.25156313 C6.81165994,5.25156313 7.86335971,4.19439699 7.86335971,2.89045854 C7.86335971,1.5865779 6.81165994,0.529411765 5.51457889,0.529411765 C4.21732528,0.529411765 3.16579807,1.5865779 3.16579807,2.89045854 C3.16579807,4.19439699 4.21732528,5.25156313 5.51457889,5.25156313 Z M3.00100263,5.7726297 C1.33769032,5.7726297 8.8817842e-16,7.13623756 8.8817842e-16,8.83704696 L8.8817842e-16,16.0861284 C8.8817842e-16,17.4954712 2.05191894,17.4954712 2.05191894,16.0861284 L2.05191894,9.45762036 L2.53767723,9.45762036 L2.53767723,27.60747 C2.53767723,29.4917975 5.27006042,29.4363489 5.27006042,27.60747 L5.27006042,17.0717143 L5.74069089,17.0717143 L5.74069089,27.60747 C5.74069089,29.4363489 8.48808686,29.4917975 8.48808686,27.60747 L8.48808686,9.45762036 L8.96245614,9.45762036 L8.96245614,16.0861284 C8.96245614,17.5063412 11.0036763,17.5062834 10.999995,16.0861284 L10.999995,8.88041135 C10.999995,7.31206573 9.78838903,5.77586757 7.96212193,5.77586757 L3.00100263,5.7726297 Z" id="Fill-1"></path>
                            </g>
                            <g id="person" transform="translate(58.000000, 0.000000)" stroke="#979797">
                                <path d="M5.51457889,5.25156313 C6.81165994,5.25156313 7.86335971,4.19439699 7.86335971,2.89045854 C7.86335971,1.5865779 6.81165994,0.529411765 5.51457889,0.529411765 C4.21732528,0.529411765 3.16579807,1.5865779 3.16579807,2.89045854 C3.16579807,4.19439699 4.21732528,5.25156313 5.51457889,5.25156313 Z M3.00100263,5.7726297 C1.33769032,5.7726297 8.8817842e-16,7.13623756 8.8817842e-16,8.83704696 L8.8817842e-16,16.0861284 C8.8817842e-16,17.4954712 2.05191894,17.4954712 2.05191894,16.0861284 L2.05191894,9.45762036 L2.53767723,9.45762036 L2.53767723,27.60747 C2.53767723,29.4917975 5.27006042,29.4363489 5.27006042,27.60747 L5.27006042,17.0717143 L5.74069089,17.0717143 L5.74069089,27.60747 C5.74069089,29.4363489 8.48808686,29.4917975 8.48808686,27.60747 L8.48808686,9.45762036 L8.96245614,9.45762036 L8.96245614,16.0861284 C8.96245614,17.5063412 11.0036763,17.5062834 10.999995,16.0861284 L10.999995,8.88041135 C10.999995,7.31206573 9.78838903,5.77586757 7.96212193,5.77586757 L3.00100263,5.7726297 Z" id="Fill-1"></path>
                            </g>
                            <g id="person" transform="translate(87.000000, 0.000000)" stroke="#979797">
                                <path d="M5.51457889,5.25156313 C6.81165994,5.25156313 7.86335971,4.19439699 7.86335971,2.89045854 C7.86335971,1.5865779 6.81165994,0.529411765 5.51457889,0.529411765 C4.21732528,0.529411765 3.16579807,1.5865779 3.16579807,2.89045854 C3.16579807,4.19439699 4.21732528,5.25156313 5.51457889,5.25156313 Z M3.00100263,5.7726297 C1.33769032,5.7726297 8.8817842e-16,7.13623756 8.8817842e-16,8.83704696 L8.8817842e-16,16.0861284 C8.8817842e-16,17.4954712 2.05191894,17.4954712 2.05191894,16.0861284 L2.05191894,9.45762036 L2.53767723,9.45762036 L2.53767723,27.60747 C2.53767723,29.4917975 5.27006042,29.4363489 5.27006042,27.60747 L5.27006042,17.0717143 L5.74069089,17.0717143 L5.74069089,27.60747 C5.74069089,29.4363489 8.48808686,29.4917975 8.48808686,27.60747 L8.48808686,9.45762036 L8.96245614,9.45762036 L8.96245614,16.0861284 C8.96245614,17.5063412 11.0036763,17.5062834 10.999995,16.0861284 L10.999995,8.88041135 C10.999995,7.31206573 9.78838903,5.77586757 7.96212193,5.77586757 L3.00100263,5.7726297 Z" id="Fill-1"></path>
                            </g>
                        </g>
                        <g id="Group-4" transform="translate(22.000000, 255.000000)">
                            <g id="person" stroke="#979797">
                                <path d="M5.51457889,5.25156313 C6.81165994,5.25156313 7.86335971,4.19439699 7.86335971,2.89045854 C7.86335971,1.5865779 6.81165994,0.529411765 5.51457889,0.529411765 C4.21732528,0.529411765 3.16579807,1.5865779 3.16579807,2.89045854 C3.16579807,4.19439699 4.21732528,5.25156313 5.51457889,5.25156313 Z M3.00100263,5.7726297 C1.33769032,5.7726297 8.8817842e-16,7.13623756 8.8817842e-16,8.83704696 L8.8817842e-16,16.0861284 C8.8817842e-16,17.4954712 2.05191894,17.4954712 2.05191894,16.0861284 L2.05191894,9.45762036 L2.53767723,9.45762036 L2.53767723,27.60747 C2.53767723,29.4917975 5.27006042,29.4363489 5.27006042,27.60747 L5.27006042,17.0717143 L5.74069089,17.0717143 L5.74069089,27.60747 C5.74069089,29.4363489 8.48808686,29.4917975 8.48808686,27.60747 L8.48808686,9.45762036 L8.96245614,9.45762036 L8.96245614,16.0861284 C8.96245614,17.5063412 11.0036763,17.5062834 10.999995,16.0861284 L10.999995,8.88041135 C10.999995,7.31206573 9.78838903,5.77586757 7.96212193,5.77586757 L3.00100263,5.7726297 Z" id="Fill-1"></path>
                            </g>
                            <g id="person" transform="translate(29.000000, 0.000000)" stroke="#979797">
                                <path d="M5.51457889,5.25156313 C6.81165994,5.25156313 7.86335971,4.19439699 7.86335971,2.89045854 C7.86335971,1.5865779 6.81165994,0.529411765 5.51457889,0.529411765 C4.21732528,0.529411765 3.16579807,1.5865779 3.16579807,2.89045854 C3.16579807,4.19439699 4.21732528,5.25156313 5.51457889,5.25156313 Z M3.00100263,5.7726297 C1.33769032,5.7726297 8.8817842e-16,7.13623756 8.8817842e-16,8.83704696 L8.8817842e-16,16.0861284 C8.8817842e-16,17.4954712 2.05191894,17.4954712 2.05191894,16.0861284 L2.05191894,9.45762036 L2.53767723,9.45762036 L2.53767723,27.60747 C2.53767723,29.4917975 5.27006042,29.4363489 5.27006042,27.60747 L5.27006042,17.0717143 L5.74069089,17.0717143 L5.74069089,27.60747 C5.74069089,29.4363489 8.48808686,29.4917975 8.48808686,27.60747 L8.48808686,9.45762036 L8.96245614,9.45762036 L8.96245614,16.0861284 C8.96245614,17.5063412 11.0036763,17.5062834 10.999995,16.0861284 L10.999995,8.88041135 C10.999995,7.31206573 9.78838903,5.77586757 7.96212193,5.77586757 L3.00100263,5.7726297 Z" id="Fill-1"></path>
                            </g>
                            <g id="person" transform="translate(58.000000, 0.000000)" fill="#000000">
                                <path d="M5.51457889,5.25156313 C6.81165994,5.25156313 7.86335971,4.19439699 7.86335971,2.89045854 C7.86335971,1.5865779 6.81165994,0.529411765 5.51457889,0.529411765 C4.21732528,0.529411765 3.16579807,1.5865779 3.16579807,2.89045854 C3.16579807,4.19439699 4.21732528,5.25156313 5.51457889,5.25156313 Z M3.00100263,5.7726297 C1.33769032,5.7726297 8.8817842e-16,7.13623756 8.8817842e-16,8.83704696 L8.8817842e-16,16.0861284 C8.8817842e-16,17.4954712 2.05191894,17.4954712 2.05191894,16.0861284 L2.05191894,9.45762036 L2.53767723,9.45762036 L2.53767723,27.60747 C2.53767723,29.4917975 5.27006042,29.4363489 5.27006042,27.60747 L5.27006042,17.0717143 L5.74069089,17.0717143 L5.74069089,27.60747 C5.74069089,29.4363489 8.48808686,29.4917975 8.48808686,27.60747 L8.48808686,9.45762036 L8.96245614,9.45762036 L8.96245614,16.0861284 C8.96245614,17.5063412 11.0036763,17.5062834 10.999995,16.0861284 L10.999995,8.88041135 C10.999995,7.31206573 9.78838903,5.77586757 7.96212193,5.77586757 L3.00100263,5.7726297 Z" id="Fill-1"></path>
                            </g>
                            <g id="person" transform="translate(87.000000, 0.000000)" stroke="#979797">
                                <path d="M5.51457889,5.25156313 C6.81165994,5.25156313 7.86335971,4.19439699 7.86335971,2.89045854 C7.86335971,1.5865779 6.81165994,0.529411765 5.51457889,0.529411765 C4.21732528,0.529411765 3.16579807,1.5865779 3.16579807,2.89045854 C3.16579807,4.19439699 4.21732528,5.25156313 5.51457889,5.25156313 Z M3.00100263,5.7726297 C1.33769032,5.7726297 8.8817842e-16,7.13623756 8.8817842e-16,8.83704696 L8.8817842e-16,16.0861284 C8.8817842e-16,17.4954712 2.05191894,17.4954712 2.05191894,16.0861284 L2.05191894,9.45762036 L2.53767723,9.45762036 L2.53767723,27.60747 C2.53767723,29.4917975 5.27006042,29.4363489 5.27006042,27.60747 L5.27006042,17.0717143 L5.74069089,17.0717143 L5.74069089,27.60747 C5.74069089,29.4363489 8.48808686,29.4917975 8.48808686,27.60747 L8.48808686,9.45762036 L8.96245614,9.45762036 L8.96245614,16.0861284 C8.96245614,17.5063412 11.0036763,17.5062834 10.999995,16.0861284 L10.999995,8.88041135 C10.999995,7.31206573 9.78838903,5.77586757 7.96212193,5.77586757 L3.00100263,5.7726297 Z" id="Fill-1"></path>
                            </g>
                        </g>
                        <g id="person" transform="translate(62.000000, 61.000000)" fill="#000000">
                            <path d="M5.51457889,5.25156313 C6.81165994,5.25156313 7.86335971,4.19439699 7.86335971,2.89045854 C7.86335971,1.5865779 6.81165994,0.529411765 5.51457889,0.529411765 C4.21732528,0.529411765 3.16579807,1.5865779 3.16579807,2.89045854 C3.16579807,4.19439699 4.21732528,5.25156313 5.51457889,5.25156313 Z M3.00100263,5.7726297 C1.33769032,5.7726297 8.8817842e-16,7.13623756 8.8817842e-16,8.83704696 L8.8817842e-16,16.0861284 C8.8817842e-16,17.4954712 2.05191894,17.4954712 2.05191894,16.0861284 L2.05191894,9.45762036 L2.53767723,9.45762036 L2.53767723,27.60747 C2.53767723,29.4917975 5.27006042,29.4363489 5.27006042,27.60747 L5.27006042,17.0717143 L5.74069089,17.0717143 L5.74069089,27.60747 C5.74069089,29.4363489 8.48808686,29.4917975 8.48808686,27.60747 L8.48808686,9.45762036 L8.96245614,9.45762036 L8.96245614,16.0861284 C8.96245614,17.5063412 11.0036763,17.5062834 10.999995,16.0861284 L10.999995,8.88041135 C10.999995,7.31206573 9.78838903,5.77586757 7.96212193,5.77586757 L3.00100263,5.7726297 Z" id="Fill-1"></path>
                        </g>
                        <g id="Group-5" transform="translate(42.000000, 155.000000)" stroke="#979797" stroke-linecap="square">
                            <path d="M44.5,0.5 L0.5,29.5665932" id="Line" stroke-dasharray="2"></path>
                            <path d="M44.5,0.5 L59.5,29.5665932" id="Line" stroke-dasharray="2"></path>
                            <path d="M44.5,0.5 L29.5,29.5665932" id="Line"></path>
                            <path d="M44.5,0.5 L88.5,29.5665932" id="Line" stroke-dasharray="2"></path>
                        </g>
                        <g id="Group-5" transform="translate(27.000000, 222.000000)" stroke="#979797" stroke-linecap="square">
                            <path d="M44.5,0.5 L0.5,29.5665932" id="Line" stroke-dasharray="2"></path>
                            <path d="M44.5,0.5 L59.5,29.5665932" id="Line"></path>
                            <path d="M44.5,0.5 L29.5,29.5665932" id="Line" stroke-dasharray="2"></path>
                            <path d="M44.5,0.5 L88.5,29.5665932" id="Line" stroke-dasharray="2"></path>
                        </g>
                        <g id="Group-10" transform="translate(22.000000, 31.000000)" stroke="#979797" stroke-linecap="square">
                            <path d="M26.19945,44.1631818 L1.0443996,44.1631818" id="Path" stroke-dasharray="2"></path>
                            <path d="M32.3848869,25.1263645 L7.22983649,25.1263645" id="Path" stroke-dasharray="2" transform="translate(19.798069, 25.126364) rotate(36.000000) translate(-19.798069, -25.126364) "></path>
                            <path d="M48.5785709,13.3609643 L23.4235205,13.3609643" id="Path" transform="translate(35.991753, 13.360964) rotate(72.000000) translate(-35.991753, -13.360964) "></path>
                            <path d="M68.5950652,13.3609643 L43.4400148,13.3609643" id="Path" stroke-dasharray="2" transform="translate(56.008247, 13.360964) rotate(108.000000) translate(-56.008247, -13.360964) "></path>
                            <path d="M84.7887492,25.1263645 L59.6336988,25.1263645" id="Path" stroke-dasharray="2" transform="translate(72.201931, 25.126364) rotate(144.000000) translate(-72.201931, -25.126364) "></path>
                            <path d="M90.9741861,44.1631818 L65.8191357,44.1631818" id="Path" stroke-dasharray="2" transform="translate(78.387368, 44.163182) rotate(180.000000) translate(-78.387368, -44.163182) "></path>
                            <path d="M84.7887492,63.199999 L59.6336988,63.199999" id="Path" stroke-dasharray="2" transform="translate(72.201931, 63.199999) rotate(216.000000) translate(-72.201931, -63.199999) "></path>
                            <path d="M68.5950652,74.9653992 L43.4400148,74.9653992" id="Path" transform="translate(56.008247, 74.965399) rotate(252.000000) translate(-56.008247, -74.965399) "></path>
                            <path d="M48.5785709,74.9653992 L23.4235205,74.9653992" id="Path" stroke-dasharray="2" transform="translate(35.991753, 74.965399) rotate(288.000000) translate(-35.991753, -74.965399) "></path>
                            <path d="M32.3848869,63.199999 L7.22983649,63.199999" id="Path" stroke-dasharray="2" transform="translate(19.798069, 63.199999) rotate(324.000000) translate(-19.798069, -63.199999) "></path>
                        </g>
                    </g>
                </g>
                <g id="Group-11">
                    <text id="Private" sketch:type="MSTextLayer" font-family="Fira Sans" font-size="13" font-weight="bold" line-spacing="19" fill="#424242">
                        <tspan x="0" y="15">Private</tspan>
                        <tspan x="0" y="34" font-weight="normal">Closed group</tspan>
                    </text>
                    <text id="“We-want-to-do-this." sketch:type="MSTextLayer" font-family="Fira Sans" font-size="13" font-weight="normal" line-spacing="19" fill="#9E9E9E">
                        <tspan x="0" y="419">“</tspan>
                        <tspan x="5.278" y="419" font-weight="420">We</tspan>
                        <tspan x="22.945" y="419"> want to do this.”</tspan>
                    </text>
                    <g id="Group-9" transform="translate(0.000000, 85.000000)">
                        <g id="person" transform="translate(0.000000, 1.000000)" fill="#000000" sketch:type="MSShapeGroup">
                            <path d="M5.51457889,5.25156313 C6.81165994,5.25156313 7.86335971,4.19439699 7.86335971,2.89045854 C7.86335971,1.5865779 6.81165994,0.529411765 5.51457889,0.529411765 C4.21732528,0.529411765 3.16579807,1.5865779 3.16579807,2.89045854 C3.16579807,4.19439699 4.21732528,5.25156313 5.51457889,5.25156313 Z M3.00100263,5.7726297 C1.33769032,5.7726297 8.8817842e-16,7.13623756 8.8817842e-16,8.83704696 L8.8817842e-16,16.0861284 C8.8817842e-16,17.4954712 2.05191894,17.4954712 2.05191894,16.0861284 L2.05191894,9.45762036 L2.53767723,9.45762036 L2.53767723,27.60747 C2.53767723,29.4917975 5.27006042,29.4363489 5.27006042,27.60747 L5.27006042,17.0717143 L5.74069089,17.0717143 L5.74069089,27.60747 C5.74069089,29.4363489 8.48808686,29.4917975 8.48808686,27.60747 L8.48808686,9.45762036 L8.96245614,9.45762036 L8.96245614,16.0861284 C8.96245614,17.5063412 11.0036763,17.5062834 10.999995,16.0861284 L10.999995,8.88041135 C10.999995,7.31206573 9.78838903,5.77586757 7.96212193,5.77586757 L3.00100263,5.7726297 Z" id="Fill-1"></path>
                        </g>
                        <g id="person" transform="translate(0.000000, 71.000000)" fill="#000000" sketch:type="MSShapeGroup">
                            <path d="M5.51457889,5.25156313 C6.81165994,5.25156313 7.86335971,4.19439699 7.86335971,2.89045854 C7.86335971,1.5865779 6.81165994,0.529411765 5.51457889,0.529411765 C4.21732528,0.529411765 3.16579807,1.5865779 3.16579807,2.89045854 C3.16579807,4.19439699 4.21732528,5.25156313 5.51457889,5.25156313 Z M3.00100263,5.7726297 C1.33769032,5.7726297 8.8817842e-16,7.13623756 8.8817842e-16,8.83704696 L8.8817842e-16,16.0861284 C8.8817842e-16,17.4954712 2.05191894,17.4954712 2.05191894,16.0861284 L2.05191894,9.45762036 L2.53767723,9.45762036 L2.53767723,27.60747 C2.53767723,29.4917975 5.27006042,29.4363489 5.27006042,27.60747 L5.27006042,17.0717143 L5.74069089,17.0717143 L5.74069089,27.60747 C5.74069089,29.4363489 8.48808686,29.4917975 8.48808686,27.60747 L8.48808686,9.45762036 L8.96245614,9.45762036 L8.96245614,16.0861284 C8.96245614,17.5063412 11.0036763,17.5062834 10.999995,16.0861284 L10.999995,8.88041135 C10.999995,7.31206573 9.78838903,5.77586757 7.96212193,5.77586757 L3.00100263,5.7726297 Z" id="Fill-1"></path>
                        </g>
                        <g id="person" transform="translate(29.000000, 71.000000)" fill="#000000" sketch:type="MSShapeGroup">
                            <path d="M5.51457889,5.25156313 C6.81165994,5.25156313 7.86335971,4.19439699 7.86335971,2.89045854 C7.86335971,1.5865779 6.81165994,0.529411765 5.51457889,0.529411765 C4.21732528,0.529411765 3.16579807,1.5865779 3.16579807,2.89045854 C3.16579807,4.19439699 4.21732528,5.25156313 5.51457889,5.25156313 Z M3.00100263,5.7726297 C1.33769032,5.7726297 8.8817842e-16,7.13623756 8.8817842e-16,8.83704696 L8.8817842e-16,16.0861284 C8.8817842e-16,17.4954712 2.05191894,17.4954712 2.05191894,16.0861284 L2.05191894,9.45762036 L2.53767723,9.45762036 L2.53767723,27.60747 C2.53767723,29.4917975 5.27006042,29.4363489 5.27006042,27.60747 L5.27006042,17.0717143 L5.74069089,17.0717143 L5.74069089,27.60747 C5.74069089,29.4363489 8.48808686,29.4917975 8.48808686,27.60747 L8.48808686,9.45762036 L8.96245614,9.45762036 L8.96245614,16.0861284 C8.96245614,17.5063412 11.0036763,17.5062834 10.999995,16.0861284 L10.999995,8.88041135 C10.999995,7.31206573 9.78838903,5.77586757 7.96212193,5.77586757 L3.00100263,5.7726297 Z" id="Fill-1"></path>
                        </g>
                        <g id="person" transform="translate(58.000000, 71.000000)" fill="#000000" sketch:type="MSShapeGroup">
                            <path d="M5.51457889,5.25156313 C6.81165994,5.25156313 7.86335971,4.19439699 7.86335971,2.89045854 C7.86335971,1.5865779 6.81165994,0.529411765 5.51457889,0.529411765 C4.21732528,0.529411765 3.16579807,1.5865779 3.16579807,2.89045854 C3.16579807,4.19439699 4.21732528,5.25156313 5.51457889,5.25156313 Z M3.00100263,5.7726297 C1.33769032,5.7726297 8.8817842e-16,7.13623756 8.8817842e-16,8.83704696 L8.8817842e-16,16.0861284 C8.8817842e-16,17.4954712 2.05191894,17.4954712 2.05191894,16.0861284 L2.05191894,9.45762036 L2.53767723,9.45762036 L2.53767723,27.60747 C2.53767723,29.4917975 5.27006042,29.4363489 5.27006042,27.60747 L5.27006042,17.0717143 L5.74069089,17.0717143 L5.74069089,27.60747 C5.74069089,29.4363489 8.48808686,29.4917975 8.48808686,27.60747 L8.48808686,9.45762036 L8.96245614,9.45762036 L8.96245614,16.0861284 C8.96245614,17.5063412 11.0036763,17.5062834 10.999995,16.0861284 L10.999995,8.88041135 C10.999995,7.31206573 9.78838903,5.77586757 7.96212193,5.77586757 L3.00100263,5.7726297 Z" id="Fill-1"></path>
                        </g>
                        <g id="person" transform="translate(87.000000, 71.000000)" fill="#000000" sketch:type="MSShapeGroup">
                            <path d="M5.51457889,5.25156313 C6.81165994,5.25156313 7.86335971,4.19439699 7.86335971,2.89045854 C7.86335971,1.5865779 6.81165994,0.529411765 5.51457889,0.529411765 C4.21732528,0.529411765 3.16579807,1.5865779 3.16579807,2.89045854 C3.16579807,4.19439699 4.21732528,5.25156313 5.51457889,5.25156313 Z M3.00100263,5.7726297 C1.33769032,5.7726297 8.8817842e-16,7.13623756 8.8817842e-16,8.83704696 L8.8817842e-16,16.0861284 C8.8817842e-16,17.4954712 2.05191894,17.4954712 2.05191894,16.0861284 L2.05191894,9.45762036 L2.53767723,9.45762036 L2.53767723,27.60747 C2.53767723,29.4917975 5.27006042,29.4363489 5.27006042,27.60747 L5.27006042,17.0717143 L5.74069089,17.0717143 L5.74069089,27.60747 C5.74069089,29.4363489 8.48808686,29.4917975 8.48808686,27.60747 L8.48808686,9.45762036 L8.96245614,9.45762036 L8.96245614,16.0861284 C8.96245614,17.5063412 11.0036763,17.5062834 10.999995,16.0861284 L10.999995,8.88041135 C10.999995,7.31206573 9.78838903,5.77586757 7.96212193,5.77586757 L3.00100263,5.7726297 Z" id="Fill-1"></path>
                        </g>
                        <g id="person" transform="translate(116.000000, 71.000000)" fill="#000000" sketch:type="MSShapeGroup">
                            <path d="M5.51457889,5.25156313 C6.81165994,5.25156313 7.86335971,4.19439699 7.86335971,2.89045854 C7.86335971,1.5865779 6.81165994,0.529411765 5.51457889,0.529411765 C4.21732528,0.529411765 3.16579807,1.5865779 3.16579807,2.89045854 C3.16579807,4.19439699 4.21732528,5.25156313 5.51457889,5.25156313 Z M3.00100263,5.7726297 C1.33769032,5.7726297 8.8817842e-16,7.13623756 8.8817842e-16,8.83704696 L8.8817842e-16,16.0861284 C8.8817842e-16,17.4954712 2.05191894,17.4954712 2.05191894,16.0861284 L2.05191894,9.45762036 L2.53767723,9.45762036 L2.53767723,27.60747 C2.53767723,29.4917975 5.27006042,29.4363489 5.27006042,27.60747 L5.27006042,17.0717143 L5.74069089,17.0717143 L5.74069089,27.60747 C5.74069089,29.4363489 8.48808686,29.4917975 8.48808686,27.60747 L8.48808686,9.45762036 L8.96245614,9.45762036 L8.96245614,16.0861284 C8.96245614,17.5063412 11.0036763,17.5062834 10.999995,16.0861284 L10.999995,8.88041135 C10.999995,7.31206573 9.78838903,5.77586757 7.96212193,5.77586757 L3.00100263,5.7726297 Z" id="Fill-1"></path>
                        </g>
                        <g id="person" transform="translate(31.000000, 1.000000)" fill="#000000" sketch:type="MSShapeGroup">
                            <path d="M5.51457889,5.25156313 C6.81165994,5.25156313 7.86335971,4.19439699 7.86335971,2.89045854 C7.86335971,1.5865779 6.81165994,0.529411765 5.51457889,0.529411765 C4.21732528,0.529411765 3.16579807,1.5865779 3.16579807,2.89045854 C3.16579807,4.19439699 4.21732528,5.25156313 5.51457889,5.25156313 Z M3.00100263,5.7726297 C1.33769032,5.7726297 8.8817842e-16,7.13623756 8.8817842e-16,8.83704696 L8.8817842e-16,16.0861284 C8.8817842e-16,17.4954712 2.05191894,17.4954712 2.05191894,16.0861284 L2.05191894,9.45762036 L2.53767723,9.45762036 L2.53767723,27.60747 C2.53767723,29.4917975 5.27006042,29.4363489 5.27006042,27.60747 L5.27006042,17.0717143 L5.74069089,17.0717143 L5.74069089,27.60747 C5.74069089,29.4363489 8.48808686,29.4917975 8.48808686,27.60747 L8.48808686,9.45762036 L8.96245614,9.45762036 L8.96245614,16.0861284 C8.96245614,17.5063412 11.0036763,17.5062834 10.999995,16.0861284 L10.999995,8.88041135 C10.999995,7.31206573 9.78838903,5.77586757 7.96212193,5.77586757 L3.00100263,5.7726297 Z" id="Fill-1"></path>
                        </g>
                        <g id="person" transform="translate(47.000000, 1.000000)" fill="#000000" sketch:type="MSShapeGroup">
                            <path d="M5.51457889,5.25156313 C6.81165994,5.25156313 7.86335971,4.19439699 7.86335971,2.89045854 C7.86335971,1.5865779 6.81165994,0.529411765 5.51457889,0.529411765 C4.21732528,0.529411765 3.16579807,1.5865779 3.16579807,2.89045854 C3.16579807,4.19439699 4.21732528,5.25156313 5.51457889,5.25156313 Z M3.00100263,5.7726297 C1.33769032,5.7726297 8.8817842e-16,7.13623756 8.8817842e-16,8.83704696 L8.8817842e-16,16.0861284 C8.8817842e-16,17.4954712 2.05191894,17.4954712 2.05191894,16.0861284 L2.05191894,9.45762036 L2.53767723,9.45762036 L2.53767723,27.60747 C2.53767723,29.4917975 5.27006042,29.4363489 5.27006042,27.60747 L5.27006042,17.0717143 L5.74069089,17.0717143 L5.74069089,27.60747 C5.74069089,29.4363489 8.48808686,29.4917975 8.48808686,27.60747 L8.48808686,9.45762036 L8.96245614,9.45762036 L8.96245614,16.0861284 C8.96245614,17.5063412 11.0036763,17.5062834 10.999995,16.0861284 L10.999995,8.88041135 C10.999995,7.31206573 9.78838903,5.77586757 7.96212193,5.77586757 L3.00100263,5.7726297 Z" id="Fill-1"></path>
                        </g>
                        <g id="person" transform="translate(63.000000, 1.000000)" fill="#000000" sketch:type="MSShapeGroup">
                            <path d="M5.51457889,5.25156313 C6.81165994,5.25156313 7.86335971,4.19439699 7.86335971,2.89045854 C7.86335971,1.5865779 6.81165994,0.529411765 5.51457889,0.529411765 C4.21732528,0.529411765 3.16579807,1.5865779 3.16579807,2.89045854 C3.16579807,4.19439699 4.21732528,5.25156313 5.51457889,5.25156313 Z M3.00100263,5.7726297 C1.33769032,5.7726297 8.8817842e-16,7.13623756 8.8817842e-16,8.83704696 L8.8817842e-16,16.0861284 C8.8817842e-16,17.4954712 2.05191894,17.4954712 2.05191894,16.0861284 L2.05191894,9.45762036 L2.53767723,9.45762036 L2.53767723,27.60747 C2.53767723,29.4917975 5.27006042,29.4363489 5.27006042,27.60747 L5.27006042,17.0717143 L5.74069089,17.0717143 L5.74069089,27.60747 C5.74069089,29.4363489 8.48808686,29.4917975 8.48808686,27.60747 L8.48808686,9.45762036 L8.96245614,9.45762036 L8.96245614,16.0861284 C8.96245614,17.5063412 11.0036763,17.5062834 10.999995,16.0861284 L10.999995,8.88041135 C10.999995,7.31206573 9.78838903,5.77586757 7.96212193,5.77586757 L3.00100263,5.7726297 Z" id="Fill-1"></path>
                        </g>
                        <g id="person" transform="translate(79.000000, 1.000000)" fill="#000000" sketch:type="MSShapeGroup">
                            <path d="M5.51457889,5.25156313 C6.81165994,5.25156313 7.86335971,4.19439699 7.86335971,2.89045854 C7.86335971,1.5865779 6.81165994,0.529411765 5.51457889,0.529411765 C4.21732528,0.529411765 3.16579807,1.5865779 3.16579807,2.89045854 C3.16579807,4.19439699 4.21732528,5.25156313 5.51457889,5.25156313 Z M3.00100263,5.7726297 C1.33769032,5.7726297 8.8817842e-16,7.13623756 8.8817842e-16,8.83704696 L8.8817842e-16,16.0861284 C8.8817842e-16,17.4954712 2.05191894,17.4954712 2.05191894,16.0861284 L2.05191894,9.45762036 L2.53767723,9.45762036 L2.53767723,27.60747 C2.53767723,29.4917975 5.27006042,29.4363489 5.27006042,27.60747 L5.27006042,17.0717143 L5.74069089,17.0717143 L5.74069089,27.60747 C5.74069089,29.4363489 8.48808686,29.4917975 8.48808686,27.60747 L8.48808686,9.45762036 L8.96245614,9.45762036 L8.96245614,16.0861284 C8.96245614,17.5063412 11.0036763,17.5062834 10.999995,16.0861284 L10.999995,8.88041135 C10.999995,7.31206573 9.78838903,5.77586757 7.96212193,5.77586757 L3.00100263,5.7726297 Z" id="Fill-1"></path>
                        </g>
                        <path d="M5.5,36.5 L5.5,66.5665932" id="Line" stroke="#979797" stroke-linecap="square" sketch:type="MSShapeGroup"></path>
                        <path id="Line-decoration-1" d="M2.5,55.7665932 L5.5,66.5665932 L8.5,55.7665932" stroke="#979797" stroke-linecap="square"></path>
                        <path d="M89.8672263,36.5 L120.5,66.5665932" id="Line" stroke="#979797" stroke-linecap="square" sketch:type="MSShapeGroup"></path>
                        <path id="Line-decoration-1" d="M110.690907,61.1424158 L120.5,66.5665932 L114.893791,56.8603877" stroke="#979797" stroke-linecap="square"></path>
                        <path d="M37.5,36.5 L37.5,66.5" id="Line" stroke="#979797" stroke-linecap="square" sketch:type="MSShapeGroup"></path>
                        <path id="Line-decoration-1" d="M34.5,55.7 L37.5,66.5 L40.5,55.7" stroke="#979797" stroke-linecap="square"></path>
                        <path d="M54.5,36.5 L64.5,66.5" id="Line" stroke="#979797" stroke-linecap="square" sketch:type="MSShapeGroup"></path>
                        <path id="Line-decoration-1" d="M58.2386902,57.2029037 L64.5,66.5 L63.93079,55.3055371" stroke="#979797" stroke-linecap="square"></path>
                        <path d="M68.5,36.5 L91.5,66.5" id="Line" stroke="#979797" stroke-linecap="square" sketch:type="MSShapeGroup"></path>
                        <path id="Line-decoration-1" d="M82.5481202,59.7543459 L91.5,66.5 L87.3097584,56.1037567" stroke="#979797" stroke-linecap="square"></path>
                        <text id="+" sketch:type="MSTextLayer" font-family="Fira Sans" font-size="16" font-weight="bold" line-spacing="24" fill="#000000">
                            <tspan x="17" y="19">+</tspan>
                        </text>
                    </g>
                </g>
            </g>
        </g>
    </g>
</svg>